<svg id="svg" version="1.1" xmlns="http://www.w3.org/2000/svg" xmlns:xlink="http://www.w3.org/1999/xlink" width="400" height="400" viewBox="0, 0, 400,400"><g id="svgg"><path id="path0" d="M328.784 0.323 C 327.775 0.776,325.163 2.896,325.365 3.098 C 325.468 3.201,325.203 3.660,324.776 4.118 C 324.349 4.576,324.000 5.187,324.000 5.475 C 324.000 5.764,323.820 6.000,323.600 6.000 C 323.338 6.000,323.200 14.067,323.200 29.400 C 323.200 44.733,323.338 52.800,323.600 52.800 C 323.820 52.800,324.000 53.160,324.000 53.600 C 324.000 54.040,324.180 54.400,324.400 54.400 C 324.620 54.400,324.800 54.760,324.800 55.200 C 324.800 55.640,324.980 56.000,325.200 56.000 C 325.420 56.000,325.600 56.270,325.600 56.600 C 325.600 56.930,325.735 57.201,325.900 57.202 C 326.065 57.203,326.775 57.743,327.478 58.402 C 328.181 59.061,329.036 59.600,329.378 59.600 C 329.720 59.600,330.000 59.780,330.000 60.000 C 330.000 60.220,330.360 60.400,330.800 60.400 C 331.240 60.400,331.600 60.580,331.600 60.800 C 331.600 61.020,332.140 61.200,332.800 61.200 C 333.460 61.200,334.000 61.380,334.000 61.600 C 334.000 61.820,334.720 62.000,335.600 62.000 C 336.480 62.000,337.200 62.180,337.200 62.400 C 337.200 62.620,337.740 62.800,338.400 62.800 C 339.060 62.800,339.600 62.980,339.600 63.200 C 339.600 63.420,340.219 63.600,340.976 63.600 C 341.733 63.600,342.464 63.780,342.600 64.000 C 342.736 64.220,343.366 64.400,344.000 64.400 C 344.634 64.400,345.264 64.580,345.400 64.800 C 345.536 65.020,346.099 65.200,346.652 65.200 C 348.891 65.200,348.800 63.949,348.800 94.771 C 348.800 113.457,348.937 123.200,349.200 123.200 C 349.420 123.200,349.600 123.650,349.600 124.200 C 349.600 124.750,349.780 125.200,350.000 125.200 C 350.220 125.200,350.400 125.520,350.400 125.912 C 350.400 126.303,350.760 126.883,351.200 127.200 C 352.047 127.811,352.379 130.800,351.600 130.800 C 351.363 130.800,351.200 132.267,351.200 134.400 C 351.200 136.533,351.037 138.000,350.800 138.000 C 350.578 138.000,350.400 139.067,350.400 140.400 C 350.400 141.733,350.222 142.800,350.000 142.800 C 349.780 142.800,349.600 143.779,349.600 144.976 C 349.600 146.173,349.420 147.264,349.200 147.400 C 348.980 147.536,348.800 148.267,348.800 149.024 C 348.800 149.781,348.620 150.400,348.400 150.400 C 348.180 150.400,348.000 151.120,348.000 152.000 C 348.000 152.880,347.840 153.600,347.644 153.600 C 347.307 153.600,347.190 154.049,346.568 157.700 C 346.427 158.525,346.152 159.200,345.956 159.200 C 345.760 159.200,345.600 159.650,345.600 160.200 C 345.600 160.750,345.459 161.200,345.287 161.200 C 345.115 161.200,344.729 162.055,344.429 163.100 C 344.129 164.145,343.780 165.180,343.654 165.400 C 343.527 165.620,343.369 166.146,343.304 166.569 C 343.238 166.991,343.009 167.548,342.796 167.805 C 342.582 168.063,342.535 168.402,342.692 168.559 C 342.849 168.715,342.802 168.969,342.588 169.122 C 342.014 169.533,341.200 171.100,341.200 171.795 C 341.200 172.128,341.020 172.400,340.800 172.400 C 340.580 172.400,340.400 172.745,340.400 173.167 C 340.400 173.588,340.265 173.993,340.100 174.067 C 339.935 174.140,339.353 175.100,338.807 176.200 C 338.261 177.300,337.496 178.491,337.107 178.847 C 336.718 179.203,336.400 179.748,336.400 180.059 C 336.400 180.369,336.040 180.883,335.600 181.200 C 335.160 181.517,334.800 182.009,334.800 182.292 C 334.800 182.575,334.260 183.372,333.600 184.063 C 332.940 184.754,332.400 185.469,332.400 185.653 C 332.400 186.250,324.969 194.000,324.397 194.000 C 324.253 194.000,323.898 194.444,323.607 194.986 C 323.317 195.529,322.927 195.878,322.740 195.763 C 322.553 195.647,322.400 195.923,322.400 196.376 C 322.400 196.829,322.220 197.200,322.000 197.200 C 321.780 197.200,321.600 197.560,321.600 198.000 C 321.600 198.440,321.420 198.800,321.200 198.800 C 320.980 198.800,320.800 199.700,320.800 200.800 C 320.800 201.900,320.980 202.800,321.200 202.800 C 321.420 202.800,321.600 203.256,321.600 203.813 C 321.600 204.438,322.137 205.364,323.000 206.227 C 323.770 206.997,324.400 207.491,324.400 207.324 C 324.400 207.158,324.680 207.422,325.023 207.911 C 325.365 208.400,325.814 208.800,326.021 208.800 C 326.227 208.800,327.315 209.700,328.439 210.800 C 329.562 211.900,330.657 212.800,330.872 212.800 C 331.087 212.800,331.924 213.475,332.731 214.300 C 333.539 215.125,334.695 216.055,335.300 216.368 C 335.905 216.680,336.400 217.085,336.400 217.268 C 336.400 217.450,336.760 217.600,337.200 217.600 C 337.640 217.600,338.000 217.780,338.000 218.000 C 338.000 218.220,338.540 218.400,339.200 218.400 C 339.860 218.400,340.400 218.580,340.400 218.800 C 340.400 219.322,343.878 219.322,344.200 218.800 C 344.336 218.580,345.067 218.400,345.824 218.400 C 346.581 218.400,347.200 218.250,347.200 218.068 C 347.200 217.885,347.695 217.480,348.300 217.168 C 349.743 216.423,350.400 215.781,350.400 215.117 C 350.400 214.820,350.760 214.317,351.200 214.000 C 351.640 213.683,352.000 213.103,352.000 212.712 C 352.000 212.320,352.180 212.000,352.400 212.000 C 352.620 212.000,352.800 211.651,352.800 211.224 C 352.800 210.797,352.980 210.336,353.200 210.200 C 353.420 210.064,353.600 209.513,353.600 208.976 C 353.600 208.439,353.759 208.000,353.953 208.000 C 354.268 208.000,354.390 207.732,354.773 206.200 C 354.828 205.980,355.105 205.350,355.388 204.800 C 356.218 203.188,356.699 201.924,357.254 199.900 C 357.540 198.855,357.898 198.000,358.048 198.000 C 358.198 198.000,358.447 196.920,358.600 195.600 C 358.753 194.280,359.041 193.200,359.239 193.200 C 359.438 193.200,359.600 192.750,359.600 192.200 C 359.600 191.650,359.780 191.200,360.000 191.200 C 360.220 191.200,360.400 190.570,360.400 189.800 C 360.400 189.030,360.580 188.400,360.800 188.400 C 361.020 188.400,361.200 187.770,361.200 187.000 C 361.200 186.230,361.380 185.600,361.600 185.600 C 361.820 185.600,362.000 184.880,362.000 184.000 C 362.000 183.120,362.180 182.400,362.400 182.400 C 362.620 182.400,362.800 181.680,362.800 180.800 C 362.800 179.920,362.980 179.200,363.200 179.200 C 363.420 179.200,363.600 178.300,363.600 177.200 C 363.600 176.100,363.780 175.200,364.000 175.200 C 364.220 175.200,364.400 174.390,364.400 173.400 C 364.400 172.410,364.580 171.600,364.800 171.600 C 365.020 171.600,365.200 170.621,365.200 169.424 C 365.200 168.227,365.380 167.136,365.600 167.000 C 365.820 166.864,366.000 165.683,366.000 164.376 C 366.000 163.059,366.178 162.000,366.400 162.000 C 366.625 162.000,366.800 160.875,366.800 159.424 C 366.800 158.007,366.980 156.736,367.200 156.600 C 367.421 156.463,367.600 154.663,367.600 152.576 C 367.600 150.325,367.762 148.800,368.000 148.800 C 368.248 148.800,368.400 146.667,368.400 143.200 C 368.400 139.733,368.552 137.600,368.800 137.600 C 369.043 137.600,369.200 135.853,369.200 133.160 C 369.200 128.743,369.206 128.715,370.400 127.600 C 371.060 126.983,371.600 126.191,371.600 125.840 C 371.600 125.488,371.736 125.200,371.903 125.200 C 373.027 125.200,373.200 121.527,373.200 97.606 L 373.200 73.200 374.376 73.200 C 375.023 73.200,375.664 73.380,375.800 73.600 C 375.936 73.820,376.566 74.000,377.200 74.000 C 377.834 74.000,378.459 74.172,378.589 74.382 C 378.718 74.591,379.903 74.885,381.221 75.034 C 382.539 75.183,383.714 75.462,383.833 75.653 C 383.951 75.844,384.757 76.000,385.624 76.000 C 386.491 76.000,387.200 76.180,387.200 76.400 C 387.200 76.626,388.333 76.800,389.800 76.800 C 391.267 76.800,392.400 76.626,392.400 76.400 C 392.400 76.180,392.940 76.000,393.600 76.000 C 394.260 76.000,394.800 75.832,394.800 75.627 C 394.800 75.422,395.151 75.143,395.580 75.006 C 396.528 74.705,398.800 72.636,398.800 72.073 C 398.800 71.849,399.025 71.592,399.300 71.500 C 399.695 71.368,399.800 64.331,399.800 38.100 L 399.800 4.867 398.900 4.087 C 398.405 3.657,398.000 3.012,398.000 2.653 C 398.000 2.294,397.706 2.000,397.347 2.000 C 396.988 2.000,396.343 1.595,395.913 1.100 L 395.133 0.200 362.266 0.123 C 344.190 0.081,329.123 0.171,328.784 0.323 M195.800 133.600 C 195.664 133.820,194.933 134.000,194.176 134.000 C 193.419 134.000,192.800 134.180,192.800 134.400 C 192.800 134.620,192.440 134.800,192.000 134.800 C 191.560 134.800,191.200 134.980,191.200 135.200 C 191.200 135.420,190.660 135.600,190.000 135.600 C 189.340 135.600,188.800 135.780,188.800 136.000 C 188.800 136.220,188.260 136.400,187.600 136.400 C 186.940 136.400,186.400 136.580,186.400 136.800 C 186.400 137.020,186.040 137.200,185.600 137.200 C 185.160 137.200,184.800 137.380,184.800 137.600 C 184.800 137.820,184.440 138.000,184.000 138.000 C 183.560 138.000,183.200 138.180,183.200 138.400 C 183.200 138.620,182.840 138.800,182.400 138.800 C 181.960 138.800,181.600 138.980,181.600 139.200 C 181.600 139.420,181.240 139.600,180.800 139.600 C 180.360 139.600,180.000 139.746,180.000 139.925 C 180.000 140.104,179.370 140.498,178.600 140.800 C 177.830 141.102,177.200 141.496,177.200 141.675 C 177.200 141.854,176.913 142.000,176.563 142.000 C 176.213 142.000,175.472 142.358,174.916 142.795 C 174.361 143.232,173.780 143.511,173.626 143.416 C 173.472 143.321,173.093 143.593,172.785 144.021 C 172.476 144.450,171.903 144.800,171.512 144.800 C 171.120 144.800,170.800 144.980,170.800 145.200 C 170.800 145.420,170.480 145.600,170.088 145.600 C 169.697 145.600,169.117 145.960,168.800 146.400 C 168.483 146.840,167.903 147.200,167.512 147.200 C 167.120 147.200,166.800 147.380,166.800 147.600 C 166.800 147.820,166.564 148.000,166.275 148.000 C 165.987 148.000,165.402 148.315,164.975 148.700 C 164.549 149.085,163.705 149.655,163.100 149.968 C 162.495 150.280,162.000 150.685,162.000 150.868 C 162.000 151.050,161.652 151.200,161.227 151.200 C 160.802 151.200,160.340 151.560,160.200 152.000 C 160.060 152.440,159.638 152.800,159.261 152.800 C 158.885 152.800,158.317 153.160,158.000 153.600 C 157.683 154.040,157.143 154.400,156.800 154.400 C 156.457 154.400,155.917 154.760,155.600 155.200 C 155.283 155.640,154.775 156.000,154.472 156.000 C 154.169 156.000,153.417 156.540,152.800 157.200 C 152.183 157.860,151.423 158.400,151.109 158.400 C 150.796 158.400,150.117 158.850,149.600 159.400 C 149.083 159.950,148.441 160.400,148.172 160.400 C 147.904 160.400,147.260 160.855,146.742 161.410 C 146.224 161.966,145.217 162.706,144.504 163.054 C 143.790 163.403,143.306 163.848,143.427 164.044 C 143.548 164.240,143.367 164.400,143.024 164.400 C 142.681 164.400,142.400 164.580,142.400 164.800 C 142.400 165.020,142.206 165.200,141.969 165.200 C 141.731 165.200,140.846 165.920,140.000 166.800 C 139.154 167.680,138.254 168.400,138.000 168.400 C 137.746 168.400,136.846 169.120,136.000 170.000 C 135.154 170.880,134.254 171.600,134.000 171.600 C 133.746 171.600,132.846 172.320,132.000 173.200 C 131.154 174.080,130.260 174.800,130.013 174.800 C 129.766 174.800,129.139 175.205,128.620 175.700 C 128.100 176.195,127.200 176.960,126.619 177.400 C 126.039 177.840,124.948 178.785,124.195 179.500 C 123.442 180.215,122.627 180.800,122.382 180.800 C 122.137 180.800,121.246 181.520,120.400 182.400 C 119.554 183.280,118.654 184.000,118.400 184.000 C 118.146 184.000,117.246 184.720,116.400 185.600 C 115.554 186.480,114.690 187.200,114.480 187.200 C 114.269 187.200,113.355 187.920,112.448 188.800 C 111.541 189.680,110.696 190.400,110.571 190.400 C 110.446 190.400,110.106 190.637,109.815 190.927 C 109.525 191.217,108.773 191.892,108.144 192.427 L 107.000 193.400 107.278 197.800 C 107.659 203.816,108.035 206.774,108.450 207.031 C 108.643 207.150,108.800 207.689,108.800 208.229 C 108.800 208.769,108.960 209.523,109.156 209.905 C 109.352 210.287,109.934 211.500,110.450 212.600 C 111.736 215.345,115.317 218.792,118.441 220.294 C 123.680 222.813,125.975 223.284,132.001 223.077 C 137.614 222.884,139.737 222.523,143.000 221.204 C 143.440 221.026,144.430 220.647,145.200 220.362 C 147.839 219.384,154.505 214.834,157.745 211.799 C 158.215 211.359,159.768 210.009,161.195 208.799 C 167.995 203.036,183.901 187.145,189.220 180.801 C 192.117 177.346,192.750 176.800,193.861 176.800 C 194.378 176.800,194.800 176.564,194.800 176.276 C 194.800 175.988,195.516 175.133,196.391 174.376 C 197.266 173.619,197.986 172.775,197.991 172.500 C 197.996 172.225,198.180 172.000,198.400 172.000 C 198.620 172.000,198.800 171.770,198.800 171.488 C 198.800 171.207,199.160 170.717,199.600 170.400 C 200.040 170.083,200.400 169.591,200.400 169.308 C 200.400 169.025,200.940 168.228,201.600 167.537 C 202.260 166.846,202.800 166.078,202.800 165.829 C 202.800 165.580,203.160 165.117,203.600 164.800 C 204.040 164.483,204.400 163.943,204.400 163.600 C 204.400 163.257,204.760 162.717,205.200 162.400 C 205.640 162.083,206.000 161.680,206.000 161.504 C 206.000 161.328,206.489 160.423,207.087 159.492 C 207.684 158.561,208.179 157.680,208.187 157.533 C 208.194 157.387,208.335 157.132,208.500 156.967 C 208.665 156.802,208.800 156.337,208.800 155.933 C 208.800 155.530,208.980 155.200,209.200 155.200 C 209.420 155.200,209.600 154.840,209.600 154.400 C 209.600 153.960,209.780 153.600,210.000 153.600 C 210.220 153.600,210.400 153.240,210.400 152.800 C 210.400 152.360,210.580 152.000,210.800 152.000 C 211.020 152.000,211.200 151.460,211.200 150.800 C 211.200 150.140,211.380 149.600,211.600 149.600 C 211.820 149.600,212.000 148.700,212.000 147.600 C 212.000 146.500,212.180 145.600,212.400 145.600 C 212.620 145.600,212.800 144.610,212.800 143.400 C 212.800 142.190,212.620 141.200,212.400 141.200 C 212.180 141.200,212.000 140.480,212.000 139.600 C 212.000 138.720,211.820 138.000,211.600 138.000 C 211.380 138.000,211.200 137.724,211.200 137.387 C 211.200 136.723,209.086 134.509,207.680 133.700 C 206.608 133.084,196.173 132.996,195.800 133.600 M279.000 157.200 C 278.864 157.420,277.683 157.600,276.376 157.600 C 275.059 157.600,274.000 157.778,274.000 158.000 C 274.000 158.220,273.280 158.400,272.400 158.400 C 271.520 158.400,270.800 158.557,270.800 158.748 C 270.800 158.939,270.485 159.092,270.100 159.087 C 268.896 159.072,266.800 159.684,266.800 160.050 C 266.800 160.243,266.260 160.400,265.600 160.400 C 264.940 160.400,264.400 160.580,264.400 160.800 C 264.400 161.020,264.040 161.200,263.600 161.200 C 263.160 161.200,262.800 161.380,262.800 161.600 C 262.800 161.820,262.440 162.000,262.000 162.000 C 261.560 162.000,261.200 162.180,261.200 162.400 C 261.200 162.620,260.940 162.800,260.623 162.800 C 259.968 162.800,257.070 164.410,256.867 164.887 C 256.793 165.059,256.388 165.200,255.967 165.200 C 255.545 165.200,255.200 165.380,255.200 165.600 C 255.200 165.820,254.840 166.000,254.400 166.000 C 253.960 166.000,253.600 166.180,253.600 166.400 C 253.600 166.620,253.240 166.800,252.800 166.800 C 252.360 166.800,252.000 166.980,252.000 167.200 C 252.000 167.420,251.680 167.600,251.288 167.600 C 250.897 167.600,250.317 167.960,250.000 168.400 C 249.683 168.840,249.143 169.200,248.800 169.200 C 248.457 169.200,247.917 169.560,247.600 170.000 C 247.283 170.440,246.703 170.800,246.312 170.800 C 245.920 170.800,245.600 170.980,245.600 171.200 C 245.600 171.420,245.280 171.600,244.888 171.600 C 244.497 171.600,243.917 171.960,243.600 172.400 C 243.283 172.840,242.793 173.200,242.512 173.200 C 242.230 173.200,242.000 173.380,242.000 173.600 C 242.000 173.820,241.680 174.000,241.288 174.000 C 240.897 174.000,240.324 174.350,240.015 174.779 C 239.707 175.207,239.322 175.476,239.161 175.376 C 239.000 175.276,238.337 175.641,237.689 176.186 C 237.041 176.732,236.433 177.100,236.338 177.005 C 236.243 176.910,235.650 177.275,235.021 177.816 C 234.391 178.357,233.732 178.800,233.556 178.800 C 233.380 178.800,232.786 179.250,232.236 179.800 C 231.686 180.350,230.998 180.800,230.706 180.800 C 230.415 180.800,229.917 181.160,229.600 181.600 C 229.283 182.040,228.807 182.400,228.542 182.400 C 228.278 182.400,227.521 182.895,226.860 183.500 C 224.293 185.849,223.617 186.400,223.298 186.400 C 223.117 186.400,222.172 187.120,221.200 188.000 C 220.228 188.880,219.288 189.600,219.112 189.600 C 218.937 189.600,218.228 190.140,217.537 190.800 C 216.846 191.460,216.048 192.000,215.763 192.000 C 215.478 192.000,214.965 192.400,214.623 192.889 C 214.280 193.378,214.000 193.620,214.000 193.428 C 214.000 193.235,213.664 193.465,213.253 193.939 C 212.842 194.412,212.347 194.804,212.153 194.809 C 211.576 194.824,208.807 197.474,209.081 197.748 C 209.220 197.887,209.019 198.000,208.635 198.000 C 208.251 198.000,207.246 198.720,206.400 199.600 C 205.554 200.480,204.654 201.200,204.400 201.200 C 204.146 201.200,203.246 201.920,202.400 202.800 C 201.554 203.680,200.690 204.400,200.480 204.400 C 200.269 204.400,199.355 205.120,198.448 206.000 C 197.541 206.880,196.519 207.600,196.176 207.600 C 195.833 207.600,195.664 207.780,195.800 208.000 C 195.936 208.220,195.780 208.400,195.453 208.400 C 195.126 208.400,194.504 208.850,194.071 209.400 C 193.639 209.950,193.152 210.400,192.989 210.400 C 192.827 210.400,192.350 210.805,191.931 211.300 C 189.895 213.700,186.280 217.137,183.300 219.506 L 180.000 222.129 180.000 225.540 C 180.000 231.880,182.287 240.942,184.466 243.237 C 184.760 243.547,185.503 244.474,186.119 245.298 C 193.066 254.599,216.864 255.019,226.706 246.014 C 227.088 245.664,228.030 244.942,228.800 244.408 C 229.570 243.875,230.290 243.340,230.400 243.219 C 230.510 243.099,231.770 242.015,233.200 240.810 C 234.630 239.606,235.890 238.526,236.000 238.410 C 236.110 238.295,237.635 236.940,239.389 235.400 C 243.412 231.867,251.093 224.477,255.565 219.836 C 257.454 217.876,260.080 215.175,261.400 213.834 C 262.720 212.492,265.233 209.686,266.984 207.598 C 271.049 202.751,271.844 202.000,272.921 201.999 C 273.452 201.998,274.117 201.523,274.600 200.800 C 275.040 200.141,275.535 199.602,275.700 199.601 C 275.865 199.601,276.000 199.312,276.000 198.960 C 276.000 198.609,276.540 197.817,277.200 197.200 C 277.860 196.583,278.400 195.863,278.400 195.600 C 278.400 195.337,278.940 194.617,279.600 194.000 C 280.260 193.383,280.800 192.631,280.800 192.328 C 280.800 192.025,281.160 191.517,281.600 191.200 C 282.040 190.883,282.400 190.421,282.400 190.174 C 282.400 189.926,282.760 189.398,283.200 189.000 C 283.640 188.602,284.000 188.116,284.000 187.921 C 284.000 187.726,284.360 187.180,284.800 186.708 C 285.240 186.236,285.600 185.613,285.600 185.325 C 285.600 185.036,285.780 184.800,286.000 184.800 C 286.220 184.800,286.400 184.440,286.400 184.000 C 286.400 183.560,286.580 183.200,286.800 183.200 C 287.020 183.200,287.200 182.840,287.200 182.400 C 287.200 181.960,287.380 181.600,287.600 181.600 C 287.820 181.600,288.000 181.240,288.000 180.800 C 288.000 180.360,288.180 180.000,288.400 180.000 C 288.620 180.000,288.800 179.640,288.800 179.200 C 288.800 178.760,288.941 178.400,289.113 178.400 C 289.285 178.400,289.660 177.545,289.946 176.500 C 290.233 175.455,290.677 174.168,290.933 173.640 C 291.634 172.198,291.544 164.007,290.812 162.561 C 289.746 160.455,287.946 158.400,287.166 158.400 C 286.745 158.400,286.400 158.220,286.400 158.000 C 286.400 157.780,285.680 157.600,284.800 157.600 C 283.920 157.600,283.200 157.420,283.200 157.200 C 283.200 156.980,282.311 156.800,281.224 156.800 C 280.137 156.800,279.136 156.980,279.000 157.200 M311.476 225.246 C 311.077 225.477,310.479 225.563,310.147 225.435 C 309.814 225.307,309.240 225.364,308.871 225.561 C 308.502 225.757,307.750 225.982,307.200 226.059 C 306.650 226.137,306.102 226.330,305.983 226.490 C 305.863 226.649,305.413 226.835,304.983 226.901 C 304.552 226.968,304.020 227.127,303.800 227.254 C 303.580 227.380,302.545 227.729,301.500 228.029 C 300.455 228.329,299.600 228.715,299.600 228.887 C 299.600 229.059,299.240 229.200,298.800 229.200 C 298.360 229.200,298.000 229.380,298.000 229.600 C 298.000 229.820,297.640 230.000,297.200 230.000 C 296.760 230.000,296.399 230.135,296.397 230.300 C 296.393 230.659,294.456 231.600,293.720 231.600 C 293.434 231.600,293.200 231.780,293.200 232.000 C 293.200 232.220,292.930 232.400,292.600 232.400 C 292.270 232.400,292.000 232.580,292.000 232.800 C 292.000 233.020,291.640 233.200,291.200 233.200 C 290.760 233.200,290.400 233.380,290.400 233.600 C 290.400 233.820,290.040 234.000,289.600 234.000 C 289.160 234.000,288.800 234.180,288.800 234.400 C 288.800 234.620,288.480 234.800,288.088 234.800 C 287.697 234.800,287.117 235.160,286.800 235.600 C 286.483 236.040,285.903 236.400,285.512 236.400 C 285.120 236.400,284.800 236.580,284.800 236.800 C 284.800 237.020,284.530 237.200,284.200 237.200 C 283.870 237.200,283.600 237.380,283.600 237.600 C 283.600 237.820,283.330 238.000,283.000 238.000 C 282.670 238.000,282.400 238.180,282.400 238.400 C 282.400 238.620,282.080 238.800,281.688 238.800 C 281.297 238.800,280.717 239.160,280.400 239.600 C 280.083 240.040,279.503 240.400,279.112 240.400 C 278.720 240.400,278.400 240.580,278.400 240.800 C 278.400 241.020,278.152 241.200,277.849 241.200 C 277.546 241.200,277.074 241.470,276.800 241.800 C 276.526 242.130,276.004 242.400,275.639 242.400 C 275.275 242.400,274.717 242.760,274.400 243.200 C 274.083 243.640,273.569 244.000,273.259 244.000 C 272.948 244.000,272.391 244.349,272.022 244.775 C 271.652 245.201,271.115 245.606,270.829 245.675 C 270.542 245.744,269.463 246.610,268.430 247.600 C 266.454 249.494,265.059 250.664,260.800 254.000 C 259.370 255.121,257.930 256.256,257.600 256.524 C 257.270 256.792,256.370 257.453,255.600 257.993 C 254.830 258.532,254.004 259.160,253.763 259.387 C 253.523 259.614,252.730 260.250,252.000 260.800 C 251.270 261.350,250.477 261.989,250.237 262.220 C 249.996 262.451,248.000 264.061,245.800 265.799 C 243.600 267.536,241.710 269.057,241.600 269.179 C 241.490 269.301,240.590 270.028,239.600 270.794 C 238.610 271.561,237.530 272.406,237.200 272.671 C 236.870 272.936,233.090 275.954,228.800 279.378 C 224.510 282.802,220.056 286.368,218.903 287.302 L 216.805 289.000 216.805 291.600 C 216.805 295.110,217.784 301.378,218.816 304.470 C 224.359 321.079,248.511 324.198,265.600 310.513 C 270.030 306.966,270.975 306.184,271.780 305.400 C 272.231 304.960,273.951 303.432,275.600 302.004 C 279.363 298.749,285.325 293.018,292.419 285.841 C 296.426 281.787,298.093 280.350,298.574 280.535 C 299.224 280.784,302.800 277.678,302.800 276.863 C 302.800 276.666,303.745 275.536,304.900 274.352 C 306.055 273.169,307.360 271.687,307.800 271.061 C 308.240 270.434,309.365 269.101,310.300 268.097 C 311.235 267.094,312.000 266.104,312.000 265.897 C 312.000 265.690,312.540 265.017,313.200 264.400 C 313.860 263.783,314.400 263.063,314.400 262.800 C 314.400 262.537,314.940 261.817,315.600 261.200 C 316.260 260.583,316.800 259.831,316.800 259.528 C 316.800 259.225,317.160 258.717,317.600 258.400 C 318.040 258.083,318.400 257.593,318.400 257.312 C 318.400 257.030,318.550 256.800,318.732 256.800 C 318.915 256.800,319.320 256.305,319.632 255.700 C 319.944 255.095,320.289 254.510,320.399 254.400 C 320.795 254.006,322.054 251.787,322.271 251.100 C 322.393 250.715,322.652 250.400,322.847 250.400 C 323.041 250.400,323.200 250.040,323.200 249.600 C 323.200 249.160,323.380 248.800,323.600 248.800 C 323.820 248.800,324.000 248.440,324.000 248.000 C 324.000 247.560,324.164 247.200,324.365 247.200 C 324.566 247.200,324.851 246.480,325.000 245.600 C 325.149 244.720,325.434 244.000,325.635 244.000 C 325.836 244.000,326.000 243.471,326.000 242.824 C 326.000 242.177,326.180 241.536,326.400 241.400 C 326.620 241.264,326.800 240.454,326.800 239.600 C 326.800 238.746,326.980 237.936,327.200 237.800 C 327.420 237.664,327.600 236.573,327.600 235.376 C 327.600 234.179,327.420 233.200,327.200 233.200 C 326.980 233.200,326.800 232.581,326.800 231.824 C 326.800 231.067,326.620 230.336,326.400 230.200 C 326.180 230.064,326.000 229.680,326.000 229.346 C 326.000 228.756,323.923 226.400,323.402 226.400 C 323.260 226.400,322.881 226.138,322.560 225.817 C 322.239 225.496,321.712 225.336,321.388 225.460 C 321.065 225.584,320.800 225.486,320.800 225.243 C 320.800 224.662,312.475 224.664,311.476 225.246 " stroke="none" fill="#f46588" fill-rule="evenodd"></path><path id="path1" d="M192.645 178.191 C 189.336 182.598,170.078 202.371,164.563 207.025 C 163.275 208.111,161.645 209.566,160.941 210.257 C 160.236 210.948,158.971 212.026,158.130 212.653 C 157.288 213.279,156.330 214.065,156.000 214.399 C 150.300 220.173,140.263 224.173,131.600 224.123 C 127.570 224.100,123.671 223.639,123.369 223.150 C 123.250 222.957,122.708 222.800,122.165 222.800 C 120.782 222.800,116.563 220.619,114.299 218.734 L 112.398 217.151 108.309 220.475 C 106.060 222.304,103.945 224.011,103.610 224.268 C 103.274 224.526,101.920 225.618,100.600 226.696 C 99.280 227.774,88.570 236.375,76.800 245.809 C 65.030 255.244,52.520 265.279,49.000 268.109 C 41.604 274.057,41.943 273.786,39.619 275.606 C 38.640 276.372,37.380 277.387,36.819 277.861 C 36.259 278.334,34.540 279.737,33.000 280.979 C 31.460 282.222,29.930 283.457,29.600 283.724 C 29.270 283.992,28.194 284.839,27.210 285.606 C 26.225 286.372,25.175 287.228,24.875 287.506 C 24.576 287.784,23.675 288.504,22.873 289.106 C 13.372 296.238,6.674 303.931,2.048 313.027 L 0.000 317.054 0.000 341.327 C 0.000 354.677,0.135 365.594,0.300 365.587 C 0.627 365.573,1.063 365.257,3.431 363.312 C 4.294 362.604,11.660 356.692,19.800 350.176 C 27.940 343.659,35.395 337.669,36.367 336.864 C 37.338 336.059,38.958 334.770,39.966 334.000 C 40.973 333.230,42.039 332.372,42.334 332.094 C 42.628 331.816,43.529 331.096,44.335 330.494 C 45.141 329.892,46.041 329.172,46.335 328.894 C 46.629 328.616,47.529 327.897,48.335 327.296 C 49.141 326.696,49.890 326.114,50.000 326.002 C 50.110 325.891,52.900 323.640,56.200 321.000 C 59.500 318.360,62.560 315.900,63.000 315.534 C 64.315 314.438,68.039 311.457,69.157 310.606 C 70.086 309.898,74.112 306.677,78.573 303.072 C 79.438 302.372,84.028 298.693,88.773 294.895 C 93.518 291.097,97.670 287.763,98.000 287.488 C 98.330 287.212,100.130 285.764,102.000 284.270 C 103.870 282.776,105.717 281.294,106.104 280.977 C 108.229 279.238,122.680 267.677,123.576 267.000 C 124.158 266.560,125.977 265.123,127.617 263.807 C 129.258 262.490,130.870 261.198,131.200 260.934 C 131.530 260.671,132.417 259.948,133.172 259.328 C 134.505 258.232,158.412 239.085,161.183 236.894 C 161.944 236.292,163.657 234.900,164.990 233.800 C 166.323 232.700,167.897 231.440,168.486 231.000 C 172.573 227.951,179.191 222.486,179.467 221.933 C 179.650 221.566,181.870 219.612,184.400 217.591 C 190.178 212.975,191.444 211.773,192.501 209.900 C 192.966 209.075,193.494 208.400,193.674 208.400 C 193.853 208.400,194.000 207.984,194.000 207.475 C 194.000 206.967,194.325 206.202,194.722 205.775 C 195.554 204.883,195.600 204.757,195.600 203.376 C 195.600 202.813,195.743 202.441,195.917 202.549 C 196.091 202.656,196.277 202.175,196.331 201.479 C 196.384 200.783,196.601 200.039,196.813 199.827 C 197.318 199.322,197.318 187.163,196.813 185.834 C 196.600 185.275,196.384 184.183,196.331 183.408 C 196.279 182.634,196.114 182.000,195.965 182.000 C 195.735 182.000,195.565 181.632,195.044 180.000 C 194.187 177.321,193.620 176.893,192.645 178.191 M270.678 204.634 C 264.243 212.894,244.503 232.738,234.866 240.635 C 234.353 241.056,233.543 241.735,233.066 242.145 C 232.590 242.555,231.570 243.365,230.800 243.945 C 230.030 244.525,228.860 245.494,228.200 246.098 C 227.540 246.702,226.775 247.197,226.500 247.198 C 226.225 247.199,225.999 247.335,225.997 247.500 C 225.995 247.665,225.590 247.999,225.097 248.241 C 224.604 248.484,223.210 249.207,222.000 249.849 C 209.825 256.301,194.262 254.795,186.024 246.368 L 183.048 243.324 177.624 247.687 C 174.641 250.086,171.902 252.292,171.537 252.589 C 170.589 253.361,159.269 262.435,142.600 275.785 C 134.680 282.128,127.641 287.786,126.957 288.359 C 124.993 290.004,123.931 290.861,121.976 292.382 C 118.857 294.807,104.211 306.531,104.000 306.772 C 103.890 306.897,102.990 307.628,102.000 308.394 C 101.010 309.161,99.930 310.009,99.600 310.278 C 99.270 310.547,89.100 318.719,77.000 328.438 C 64.900 338.158,52.737 347.930,49.971 350.155 C 47.205 352.380,44.346 354.650,43.618 355.200 C 42.889 355.750,41.912 356.535,41.447 356.945 C 40.981 357.355,39.970 358.164,39.200 358.743 C 38.430 359.322,37.710 359.896,37.600 360.019 C 37.490 360.142,36.050 361.307,34.400 362.607 C 32.750 363.908,30.230 365.941,28.800 367.125 C 27.370 368.309,25.930 369.487,25.600 369.744 C 19.879 374.196,18.829 375.117,14.856 379.180 C 11.325 382.791,7.202 388.033,6.153 390.243 C 5.809 390.968,5.078 392.046,4.531 392.637 C 3.750 393.479,3.650 393.785,4.067 394.050 C 4.360 394.236,4.420 394.392,4.200 394.397 C 3.980 394.401,4.296 394.733,4.903 395.133 C 5.510 395.533,5.885 395.982,5.737 396.130 C 5.588 396.279,5.727 396.400,6.045 396.400 C 6.363 396.400,6.883 396.760,7.200 397.200 C 7.517 397.640,8.107 398.000,8.512 398.000 C 8.916 398.000,9.136 398.180,9.000 398.400 C 8.864 398.620,9.134 398.800,9.600 398.800 C 10.066 398.800,10.346 398.963,10.223 399.163 C 10.100 399.362,10.339 399.436,10.754 399.328 C 11.170 399.219,11.631 399.326,11.778 399.565 C 12.091 400.071,78.644 400.202,78.867 399.697 C 78.940 399.530,79.810 398.768,80.800 398.003 C 81.790 397.238,82.841 396.381,83.135 396.100 C 83.429 395.818,84.329 395.097,85.135 394.496 C 85.941 393.896,86.690 393.309,86.800 393.192 C 86.961 393.021,91.995 388.983,95.763 386.003 C 96.182 385.671,97.172 384.847,97.963 384.171 C 98.753 383.495,99.777 382.685,100.237 382.371 C 100.698 382.057,101.868 381.147,102.837 380.348 C 103.807 379.550,108.380 375.869,113.000 372.169 C 117.620 368.468,124.640 362.831,128.600 359.641 C 132.560 356.452,136.790 353.055,138.000 352.093 C 139.210 351.131,140.992 349.682,141.959 348.872 C 142.927 348.062,144.000 347.235,144.344 347.033 C 144.688 346.831,145.577 346.111,146.320 345.433 C 147.063 344.755,147.935 344.051,148.257 343.868 C 148.579 343.686,149.418 343.024,150.121 342.398 C 150.824 341.771,153.470 339.625,156.000 337.628 C 164.797 330.685,165.403 330.202,165.935 329.696 C 166.229 329.417,167.129 328.697,167.935 328.096 C 168.741 327.496,169.490 326.900,169.600 326.772 C 169.710 326.644,173.490 323.575,178.000 319.952 C 182.510 316.330,189.852 310.433,194.316 306.848 C 198.779 303.262,203.203 299.740,204.145 299.021 C 205.824 297.739,206.796 296.950,208.534 295.455 C 209.010 295.045,210.030 294.236,210.800 293.657 C 211.570 293.078,212.290 292.509,212.400 292.392 C 212.510 292.275,213.365 291.584,214.300 290.856 C 215.235 290.128,216.000 289.287,216.000 288.987 C 216.000 288.686,216.675 287.937,217.500 287.320 C 218.325 286.704,219.241 285.972,219.535 285.694 C 219.829 285.416,220.729 284.696,221.534 284.094 C 222.340 283.492,223.905 282.280,225.011 281.400 C 226.117 280.520,227.721 279.260,228.574 278.600 C 229.427 277.940,230.679 276.950,231.357 276.400 C 232.035 275.850,232.922 275.130,233.328 274.800 C 233.735 274.470,234.457 273.865,234.934 273.455 C 235.410 273.045,236.430 272.235,237.200 271.655 C 237.970 271.075,238.841 270.372,239.135 270.094 C 239.429 269.816,240.325 269.096,241.127 268.494 C 241.928 267.892,242.948 267.102,243.392 266.738 C 243.836 266.373,245.370 265.153,246.800 264.025 C 248.230 262.897,249.670 261.753,250.000 261.482 C 250.330 261.211,251.410 260.361,252.400 259.594 C 253.390 258.828,254.290 258.101,254.400 257.981 C 254.510 257.860,255.230 257.329,256.000 256.800 C 256.770 256.271,257.490 255.731,257.600 255.600 C 257.710 255.469,258.430 254.929,259.200 254.400 C 259.970 253.871,260.690 253.337,260.800 253.212 C 260.910 253.087,262.800 251.640,265.000 249.996 C 269.610 246.551,270.000 246.210,270.000 245.629 C 270.000 245.393,270.139 245.200,270.309 245.200 C 270.479 245.200,270.957 244.570,271.372 243.800 C 271.787 243.030,272.380 242.400,272.690 242.400 C 273.060 242.400,273.172 242.141,273.015 241.647 C 272.864 241.172,273.002 240.808,273.388 240.660 C 273.725 240.531,274.000 240.149,274.000 239.813 C 274.000 239.476,274.160 239.200,274.355 239.200 C 274.551 239.200,274.829 238.570,274.974 237.800 C 275.118 237.030,275.408 236.400,275.618 236.400 C 275.828 236.400,276.000 235.860,276.000 235.200 C 276.000 234.510,276.212 233.997,276.500 233.994 C 276.833 233.990,276.800 233.858,276.400 233.600 C 276.000 233.342,275.967 233.210,276.300 233.206 C 276.602 233.202,276.800 232.655,276.800 231.824 C 276.800 231.067,276.980 230.336,277.200 230.200 C 277.420 230.064,277.600 228.804,277.600 227.400 C 277.600 225.996,277.749 224.755,277.931 224.643 C 278.422 224.339,278.513 219.917,278.034 219.621 C 277.808 219.481,277.595 217.869,277.562 216.039 C 277.525 214.001,277.368 212.923,277.157 213.256 C 276.918 213.633,276.810 213.440,276.806 212.628 C 276.799 211.253,275.978 208.727,275.402 208.306 C 275.164 208.132,275.245 208.007,275.600 208.000 C 275.980 207.992,276.042 207.880,275.771 207.694 C 275.359 207.412,274.707 206.144,274.635 205.485 C 274.616 205.312,274.330 205.000,274.000 204.792 C 273.670 204.583,273.563 204.409,273.762 204.406 C 273.961 204.403,273.798 204.040,273.400 203.600 C 272.410 202.506,272.305 202.546,270.678 204.634 M81.800 213.200 C 81.936 213.420,81.756 213.600,81.400 213.600 C 81.044 213.600,80.869 213.789,81.012 214.019 C 81.189 214.306,81.450 214.291,81.836 213.970 C 82.502 213.418,82.576 212.800,81.976 212.800 C 81.743 212.800,81.664 212.980,81.800 213.200 M298.800 281.094 C 298.470 281.221,294.960 284.582,291.000 288.563 C 280.512 299.105,273.357 305.596,265.600 311.606 C 264.610 312.372,263.710 313.090,263.600 313.200 C 263.490 313.310,262.995 313.625,262.500 313.900 C 262.005 314.175,261.195 314.625,260.700 314.900 C 260.205 315.175,259.710 315.490,259.600 315.601 C 259.375 315.826,257.512 316.706,256.000 317.300 C 255.450 317.516,254.730 317.825,254.400 317.986 C 254.070 318.146,252.810 318.508,251.600 318.789 C 250.390 319.070,248.878 319.457,248.240 319.650 C 244.372 320.818,233.298 319.565,229.718 317.554 C 228.980 317.139,228.111 316.800,227.788 316.800 C 227.465 316.800,227.200 316.620,227.200 316.400 C 227.200 316.180,226.944 316.000,226.630 316.000 C 226.317 316.000,224.943 314.910,223.577 313.578 C 222.144 312.180,220.862 311.244,220.546 311.365 C 220.245 311.481,210.864 318.912,199.699 327.878 C 188.535 336.844,176.070 346.849,172.000 350.111 C 167.930 353.374,164.318 356.274,163.972 356.555 C 163.627 356.837,160.567 359.290,157.172 362.006 C 153.778 364.722,150.000 367.766,148.777 368.772 C 147.554 369.777,145.955 371.050,145.224 371.600 C 144.492 372.150,143.512 372.935,143.047 373.345 C 142.581 373.755,141.570 374.564,140.800 375.143 C 140.030 375.722,139.310 376.296,139.200 376.418 C 139.090 376.541,137.650 377.709,136.000 379.014 C 134.350 380.319,131.909 382.290,130.575 383.393 C 129.241 384.497,127.552 385.850,126.822 386.400 C 126.091 386.950,125.173 387.670,124.780 388.000 C 123.344 389.208,122.563 389.840,120.814 391.206 C 119.832 391.972,118.705 392.885,118.310 393.233 C 117.915 393.582,115.983 395.112,114.017 396.633 C 112.050 398.155,110.432 399.540,110.421 399.710 C 110.383 400.278,197.490 399.870,198.060 399.300 C 198.335 399.025,198.938 398.800,199.400 398.800 C 199.862 398.800,200.411 398.647,200.620 398.459 C 200.829 398.271,201.900 397.876,203.000 397.580 C 204.100 397.284,205.333 396.732,205.740 396.354 C 206.146 395.976,206.936 395.552,207.494 395.412 C 208.053 395.272,209.087 394.717,209.792 394.179 C 210.498 393.640,211.284 393.200,211.538 393.200 C 211.792 393.200,212.000 393.059,212.000 392.886 C 212.000 392.486,214.491 390.983,214.930 391.118 C 215.111 391.174,215.155 391.051,215.027 390.844 C 214.900 390.638,215.336 390.230,215.998 389.937 C 216.659 389.644,217.200 389.269,217.200 389.102 C 217.200 388.936,217.481 388.800,217.824 388.800 C 218.167 388.800,218.351 388.644,218.233 388.453 C 217.992 388.063,220.337 386.144,220.863 386.300 C 221.048 386.355,221.200 386.136,221.200 385.813 C 221.200 385.455,221.435 385.315,221.800 385.455 C 222.130 385.582,222.400 385.524,222.400 385.326 C 222.400 384.759,224.973 382.179,226.350 381.366 C 227.037 380.960,227.600 380.486,227.600 380.314 C 227.600 380.141,227.960 380.000,228.400 380.000 C 228.840 380.000,229.155 379.803,229.100 379.563 C 229.045 379.322,229.349 378.917,229.776 378.663 C 230.204 378.408,230.980 377.792,231.502 377.292 C 232.024 376.793,232.665 376.507,232.926 376.656 C 233.187 376.806,233.268 376.783,233.107 376.605 C 232.758 376.218,234.293 374.800,235.061 374.800 C 235.358 374.800,235.600 374.552,235.600 374.249 C 235.600 373.946,235.870 373.474,236.200 373.200 C 236.647 372.829,236.800 372.822,236.800 373.175 C 236.800 373.435,236.983 373.534,237.207 373.396 C 237.430 373.258,237.519 372.993,237.404 372.807 C 237.289 372.621,237.724 372.235,238.369 371.950 C 239.014 371.664,239.464 371.304,239.369 371.150 C 239.274 370.995,239.736 370.630,240.398 370.337 C 241.059 370.044,241.600 369.549,241.600 369.236 C 241.600 368.923,241.719 368.786,241.864 368.931 C 242.009 369.076,242.380 368.836,242.687 368.397 C 242.994 367.959,243.625 367.600,244.089 367.600 C 244.554 367.600,244.822 367.489,244.686 367.352 C 244.442 367.109,245.329 366.000,245.768 366.000 C 245.892 366.000,246.490 365.505,247.097 364.900 C 247.703 364.295,248.451 363.746,248.757 363.681 C 249.064 363.615,249.784 363.064,250.357 362.456 C 250.931 361.848,251.726 361.228,252.125 361.078 C 252.524 360.928,252.739 360.624,252.602 360.403 C 252.465 360.181,252.635 360.000,252.980 360.000 C 253.325 360.000,253.916 359.640,254.293 359.200 C 254.670 358.760,255.183 358.400,255.433 358.400 C 255.683 358.400,256.218 357.961,256.621 357.424 C 257.024 356.887,257.493 356.534,257.664 356.639 C 257.834 356.745,258.205 356.455,258.487 355.995 C 258.769 355.535,259.990 354.415,261.200 353.507 C 262.410 352.599,263.540 351.626,263.711 351.345 C 263.881 351.063,264.263 350.926,264.558 351.039 C 264.871 351.159,265.185 350.902,265.310 350.423 C 265.428 349.970,265.823 349.600,266.186 349.600 C 266.550 349.600,266.736 349.420,266.600 349.199 C 266.463 348.979,266.794 348.630,267.334 348.425 C 267.874 348.220,268.380 347.905,268.458 347.726 C 268.536 347.547,269.320 346.870,270.200 346.222 C 271.080 345.574,271.946 344.805,272.125 344.514 C 272.303 344.222,272.618 344.088,272.825 344.215 C 273.031 344.343,273.200 344.269,273.200 344.051 C 273.200 343.832,273.563 343.539,274.006 343.398 C 274.449 343.257,274.742 343.020,274.658 342.871 C 274.573 342.722,275.059 342.150,275.737 341.600 C 276.415 341.050,276.826 340.870,276.651 341.200 C 276.475 341.530,276.869 341.233,277.524 340.540 C 278.180 339.847,279.098 339.159,279.564 339.011 C 280.030 338.863,280.308 338.575,280.182 338.371 C 279.961 338.013,280.573 337.819,281.400 337.986 C 281.620 338.030,281.674 337.940,281.519 337.786 C 281.229 337.496,282.114 336.400,282.638 336.400 C 282.800 336.400,283.218 336.139,283.566 335.820 C 284.546 334.923,286.649 333.076,287.574 332.300 C 288.034 331.915,288.696 331.600,289.047 331.600 C 289.470 331.600,289.602 331.382,289.438 330.955 C 289.261 330.494,289.363 330.377,289.795 330.543 C 290.172 330.688,290.400 330.545,290.400 330.164 C 290.400 329.828,290.584 329.667,290.810 329.806 C 291.035 329.945,291.170 329.895,291.110 329.693 C 291.049 329.492,291.900 328.422,293.000 327.317 C 295.761 324.542,297.263 322.801,296.903 322.794 C 296.736 322.791,296.800 322.656,297.044 322.494 C 297.288 322.332,297.788 321.615,298.154 320.900 C 298.521 320.185,298.996 319.600,299.210 319.600 C 299.425 319.600,299.600 319.094,299.600 318.475 C 299.600 317.857,299.934 316.992,300.343 316.553 C 300.752 316.115,301.325 314.776,301.616 313.578 C 301.908 312.380,302.293 311.229,302.473 311.020 C 302.653 310.811,302.800 310.256,302.800 309.787 C 302.800 309.317,302.924 308.809,303.076 308.657 C 303.228 308.505,303.414 307.530,303.489 306.491 C 303.565 305.451,303.833 304.191,304.085 303.692 C 304.427 303.015,304.428 302.668,304.091 302.331 C 303.841 302.081,303.770 301.590,303.931 301.239 C 304.194 300.665,304.236 298.507,303.994 298.000 C 303.829 297.656,303.662 295.890,303.570 293.513 C 303.521 292.255,303.328 291.321,303.141 291.437 C 302.953 291.553,302.800 291.107,302.800 290.447 C 302.800 289.787,302.620 289.136,302.400 289.000 C 302.180 288.864,302.000 288.223,302.000 287.576 C 302.000 286.929,301.790 286.400,301.533 286.400 C 301.277 286.400,301.185 286.282,301.330 286.137 C 301.475 285.992,301.393 285.632,301.148 285.337 C 300.903 285.042,300.842 284.800,301.013 284.800 C 301.184 284.800,300.998 284.440,300.600 284.000 C 300.202 283.560,300.039 283.197,300.238 283.194 C 300.437 283.191,300.366 283.039,300.080 282.858 C 299.794 282.676,299.531 282.139,299.495 281.664 C 299.459 281.189,299.423 280.814,299.415 280.832 C 299.407 280.849,299.130 280.967,298.800 281.094 " stroke="none" fill="#f4d34c" fill-rule="evenodd"></path><path id="path2" d="M104.338 195.401 C 103.382 196.172,101.880 197.396,101.000 198.121 C 100.120 198.846,98.835 199.834,98.144 200.315 C 97.454 200.797,96.262 201.778,95.495 202.496 C 92.092 205.681,90.758 206.800,90.362 206.800 C 90.128 206.800,89.272 207.475,88.459 208.300 C 87.647 209.125,86.716 209.857,86.391 209.926 C 86.066 209.995,85.414 210.445,84.941 210.926 C 83.355 212.541,81.636 214.036,81.403 214.004 C 81.275 213.986,80.928 214.203,80.630 214.486 C 80.332 214.769,79.585 215.360,78.969 215.800 C 78.354 216.240,77.260 217.185,76.538 217.900 C 75.817 218.615,74.940 219.200,74.590 219.200 C 74.239 219.200,74.064 219.380,74.200 219.600 C 74.336 219.820,74.279 220.000,74.073 220.000 C 73.867 220.000,72.934 220.720,72.000 221.600 C 71.066 222.480,70.137 223.200,69.937 223.200 C 69.737 223.200,68.966 223.785,68.224 224.500 C 67.482 225.215,65.836 226.520,64.565 227.400 C 62.245 229.007,60.430 230.483,58.330 232.469 C 57.709 233.057,57.200 233.480,57.200 233.409 C 57.200 233.337,56.641 233.801,55.958 234.440 C 55.274 235.078,54.530 235.600,54.303 235.600 C 54.076 235.600,53.354 236.228,52.698 236.995 C 52.043 237.762,51.348 238.291,51.153 238.171 C 50.959 238.051,50.800 238.143,50.800 238.376 C 50.800 238.609,50.575 238.804,50.300 238.809 C 50.025 238.814,49.181 239.534,48.424 240.409 C 47.667 241.284,46.842 242.000,46.590 242.000 C 46.339 242.000,45.353 242.720,44.400 243.600 C 43.447 244.480,42.523 245.200,42.347 245.200 C 42.171 245.200,41.397 245.830,40.627 246.600 C 39.857 247.370,39.085 248.000,38.911 248.000 C 38.738 248.000,37.787 248.764,36.798 249.698 C 35.809 250.631,34.865 251.351,34.700 251.298 C 34.535 251.244,34.400 251.380,34.400 251.600 C 34.400 251.820,34.142 252.000,33.827 252.000 C 33.512 252.000,33.140 252.360,33.000 252.800 C 32.860 253.240,32.488 253.600,32.173 253.600 C 31.858 253.600,31.600 253.780,31.600 254.000 C 31.600 254.220,31.352 254.400,31.048 254.400 C 30.745 254.400,29.755 255.120,28.848 256.000 C 27.941 256.880,27.108 257.600,26.996 257.600 C 26.884 257.600,26.209 258.158,25.496 258.840 C 24.783 259.523,23.683 260.349,23.051 260.676 C 22.419 261.003,21.297 261.840,20.558 262.536 C 17.893 265.042,17.200 265.624,17.200 265.353 C 17.200 265.201,16.864 265.465,16.453 265.939 C 16.042 266.412,15.512 266.800,15.275 266.800 C 15.038 266.800,13.958 267.700,12.876 268.800 C 11.793 269.900,10.801 270.800,10.672 270.800 C 10.396 270.800,8.469 272.684,8.309 273.109 C 8.249 273.269,8.052 273.351,7.870 273.290 C 7.689 273.230,7.636 273.335,7.753 273.525 C 7.870 273.714,7.387 274.484,6.678 275.235 C 5.970 275.986,5.341 276.780,5.280 277.000 C 5.220 277.220,4.817 277.806,4.385 278.303 C 3.953 278.800,3.600 279.385,3.600 279.603 C 3.600 279.821,3.420 280.000,3.200 280.000 C 2.980 280.000,2.800 280.360,2.800 280.800 C 2.800 281.240,2.620 281.600,2.400 281.600 C 2.180 281.600,2.000 281.949,2.000 282.376 C 2.000 282.803,1.820 283.264,1.600 283.400 C 1.380 283.536,1.200 284.187,1.200 284.847 C 1.200 285.507,1.059 285.960,0.886 285.853 C 0.347 285.520,-0.254 306.281,0.077 313.800 L 0.200 316.600 2.104 312.862 C 6.612 304.011,13.479 296.157,22.873 289.106 C 23.675 288.504,24.576 287.784,24.875 287.506 C 25.175 287.228,26.225 286.372,27.210 285.606 C 28.194 284.839,29.270 283.992,29.600 283.724 C 29.930 283.457,31.460 282.222,33.000 280.979 C 34.540 279.737,36.259 278.334,36.819 277.861 C 37.380 277.387,38.640 276.372,39.619 275.606 C 41.943 273.786,41.604 274.057,49.000 268.109 C 52.520 265.279,65.030 255.244,76.800 245.809 C 88.570 236.375,99.204 227.833,100.432 226.828 C 101.659 225.823,103.357 224.460,104.203 223.800 C 105.050 223.140,107.241 221.372,109.071 219.872 L 112.400 217.144 111.288 215.472 C 110.676 214.552,109.935 213.260,109.641 212.600 C 109.347 211.940,108.948 211.087,108.753 210.705 C 108.559 210.323,108.400 209.659,108.400 209.229 C 108.400 208.799,108.220 208.336,108.000 208.200 C 107.780 208.064,107.600 207.254,107.600 206.400 C 107.600 205.546,107.420 204.736,107.200 204.600 C 106.967 204.456,106.800 202.196,106.800 199.176 C 106.800 193.437,106.791 193.423,104.338 195.401 M174.000 226.625 C 171.470 228.703,168.950 230.712,168.400 231.090 C 167.850 231.467,166.312 232.681,164.983 233.788 C 163.654 234.895,161.944 236.292,161.183 236.894 C 158.412 239.085,134.505 258.232,133.172 259.328 C 132.417 259.948,131.530 260.671,131.200 260.934 C 130.870 261.198,129.258 262.490,127.617 263.807 C 125.977 265.123,124.158 266.560,123.576 267.000 C 122.680 267.677,108.229 279.238,106.104 280.977 C 105.717 281.294,103.870 282.776,102.000 284.270 C 100.130 285.764,98.330 287.212,98.000 287.488 C 97.670 287.763,93.518 291.097,88.773 294.895 C 84.028 298.693,79.438 302.372,78.573 303.072 C 74.112 306.677,70.086 309.898,69.157 310.606 C 68.039 311.457,64.315 314.438,63.000 315.534 C 62.560 315.900,59.500 318.360,56.200 321.000 C 52.900 323.640,50.110 325.891,50.000 326.002 C 49.890 326.114,49.141 326.696,48.335 327.296 C 47.529 327.897,46.629 328.616,46.335 328.894 C 46.041 329.172,45.141 329.892,44.335 330.494 C 43.529 331.096,42.628 331.816,42.334 332.094 C 42.039 332.372,40.973 333.230,39.966 334.000 C 38.958 334.770,37.338 336.059,36.367 336.864 C 35.395 337.669,27.940 343.659,19.800 350.176 C 11.660 356.692,4.300 362.604,3.445 363.312 C 2.590 364.020,1.456 364.870,0.926 365.200 L -0.039 365.800 0.080 377.400 C 0.203 389.310,0.696 392.400,2.474 392.400 C 2.653 392.400,2.800 392.683,2.800 393.029 C 2.800 393.828,3.874 394.927,4.177 394.437 C 4.302 394.234,4.199 394.000,3.946 393.915 C 3.671 393.824,3.894 393.324,4.507 392.662 C 5.068 392.057,5.809 390.968,6.153 390.243 C 7.202 388.033,11.325 382.791,14.856 379.180 C 18.829 375.117,19.879 374.196,25.600 369.744 C 25.930 369.487,27.370 368.309,28.800 367.125 C 30.230 365.941,32.750 363.908,34.400 362.607 C 36.050 361.307,37.490 360.142,37.600 360.019 C 37.710 359.896,38.430 359.322,39.200 358.743 C 39.970 358.164,40.981 357.355,41.447 356.945 C 41.912 356.535,42.889 355.750,43.618 355.200 C 44.346 354.650,47.205 352.380,49.971 350.155 C 52.737 347.930,64.900 338.158,77.000 328.438 C 89.100 318.719,99.270 310.547,99.600 310.278 C 99.930 310.009,101.010 309.161,102.000 308.394 C 102.990 307.628,103.890 306.897,104.000 306.772 C 104.211 306.531,118.857 294.807,121.976 292.382 C 123.931 290.861,124.993 290.004,126.957 288.359 C 127.641 287.786,134.680 282.128,142.600 275.785 C 160.728 261.266,170.685 253.284,171.537 252.586 C 171.902 252.287,174.577 250.138,177.482 247.812 C 183.735 242.803,183.419 243.214,182.407 241.412 C 180.811 238.570,179.223 230.673,179.208 225.500 C 179.198 222.163,179.515 222.095,174.000 226.625 M214.800 290.463 C 214.250 290.902,213.436 291.562,212.992 291.930 C 212.548 292.299,211.558 293.075,210.792 293.655 C 210.026 294.235,209.010 295.045,208.534 295.455 C 206.796 296.950,205.824 297.739,204.145 299.021 C 203.203 299.740,198.779 303.262,194.316 306.848 C 189.852 310.433,182.510 316.330,178.000 319.952 C 173.490 323.575,169.710 326.644,169.600 326.772 C 169.490 326.900,168.741 327.496,167.935 328.096 C 167.129 328.697,166.229 329.417,165.935 329.696 C 165.403 330.202,164.797 330.685,156.000 337.628 C 153.470 339.625,150.824 341.771,150.121 342.398 C 149.418 343.024,148.579 343.686,148.257 343.868 C 147.935 344.051,147.063 344.755,146.320 345.433 C 145.577 346.111,144.688 346.831,144.344 347.033 C 144.000 347.235,142.927 348.062,141.959 348.872 C 140.992 349.682,139.210 351.131,138.000 352.093 C 136.790 353.055,132.560 356.452,128.600 359.641 C 124.640 362.831,117.620 368.468,113.000 372.169 C 108.380 375.869,103.807 379.550,102.837 380.348 C 101.868 381.147,100.698 382.057,100.237 382.371 C 99.777 382.685,98.753 383.495,97.963 384.171 C 97.172 384.847,96.182 385.671,95.763 386.003 C 91.995 388.983,86.961 393.021,86.800 393.192 C 86.690 393.309,85.970 393.878,85.200 394.458 C 84.430 395.037,83.260 395.985,82.600 396.564 C 81.940 397.143,80.816 398.018,80.103 398.509 C 79.389 398.999,78.804 399.535,78.803 399.700 C 78.799 400.094,110.293 400.091,110.467 399.698 C 110.540 399.531,112.400 397.964,114.600 396.215 C 116.800 394.465,118.690 392.936,118.800 392.817 C 118.910 392.698,119.810 391.972,120.800 391.206 C 122.549 389.851,123.301 389.245,124.780 388.000 C 125.173 387.670,126.091 386.950,126.822 386.400 C 127.552 385.850,129.241 384.497,130.575 383.393 C 131.909 382.290,134.350 380.319,136.000 379.014 C 137.650 377.709,139.090 376.541,139.200 376.418 C 139.310 376.296,140.030 375.722,140.800 375.143 C 141.570 374.564,142.581 373.755,143.047 373.345 C 143.512 372.935,144.492 372.150,145.224 371.600 C 145.955 371.050,147.554 369.777,148.777 368.772 C 150.000 367.766,153.778 364.722,157.172 362.006 C 160.567 359.290,163.627 356.837,163.972 356.555 C 164.318 356.274,167.930 353.374,172.000 350.111 C 176.070 346.849,188.535 336.844,199.699 327.878 C 210.864 318.912,220.261 311.475,220.581 311.352 C 221.063 311.167,221.007 310.873,220.258 309.664 C 219.759 308.859,219.119 307.570,218.835 306.800 C 218.551 306.030,218.178 305.040,218.005 304.600 C 217.006 302.055,216.452 298.844,216.060 293.333 L 215.800 289.665 214.800 290.463 M269.029 347.029 C 268.605 347.338,268.336 347.669,268.430 347.763 C 268.524 347.857,268.948 347.681,269.371 347.371 C 269.795 347.062,270.064 346.731,269.970 346.637 C 269.876 346.543,269.452 346.719,269.029 347.029 M225.029 382.229 C 224.605 382.538,224.336 382.869,224.430 382.963 C 224.524 383.057,224.948 382.881,225.371 382.571 C 225.795 382.262,226.064 381.931,225.970 381.837 C 225.876 381.743,225.452 381.919,225.029 382.229 M4.400 395.025 C 4.400 395.491,5.555 396.397,5.749 396.083 C 5.858 395.905,5.600 395.543,5.174 395.277 C 4.748 395.011,4.400 394.898,4.400 395.025 " stroke="none" fill="#eccc44" fill-rule="evenodd"></path><path id="path3" d="M183.785 187.300 L 181.800 189.400 183.900 187.415 C 185.055 186.323,186.000 185.378,186.000 185.315 C 186.000 185.017,185.629 185.349,183.785 187.300 M106.950 199.000 C 106.951 201.420,107.016 202.358,107.096 201.085 C 107.176 199.812,107.175 197.832,107.094 196.685 C 107.014 195.538,106.949 196.580,106.950 199.000 M167.200 203.800 C 166.228 204.790,165.523 205.600,165.633 205.600 C 165.743 205.600,166.628 204.790,167.600 203.800 C 168.572 202.810,169.277 202.000,169.167 202.000 C 169.057 202.000,168.172 202.810,167.200 203.800 M263.781 211.700 L 262.200 213.400 263.900 211.819 C 265.481 210.348,265.784 210.000,265.481 210.000 C 265.416 210.000,264.651 210.765,263.781 211.700 M111.600 215.725 C 111.600 215.794,112.185 216.379,112.900 217.025 L 114.200 218.200 113.025 216.900 C 111.930 215.688,111.600 215.416,111.600 215.725 M258.185 217.700 L 256.200 219.800 258.300 217.815 C 259.455 216.723,260.400 215.778,260.400 215.715 C 260.400 215.417,260.029 215.749,258.185 217.700 M247.186 228.700 L 245.000 231.000 247.300 228.814 C 249.437 226.782,249.783 226.400,249.486 226.400 C 249.424 226.400,248.389 227.435,247.186 228.700 M179.606 230.633 C 179.609 231.055,179.795 231.670,180.018 232.000 C 180.315 232.438,180.352 232.276,180.156 231.400 C 179.827 229.929,179.598 229.610,179.606 230.633 M295.586 283.100 L 293.400 285.400 295.700 283.214 C 297.837 281.182,298.183 280.800,297.886 280.800 C 297.824 280.800,296.789 281.835,295.586 283.100 M283.787 294.900 L 281.400 297.400 283.900 295.013 C 285.275 293.699,286.400 292.574,286.400 292.513 C 286.400 292.217,286.005 292.578,283.787 294.900 " stroke="none" fill="#f3a465" fill-rule="evenodd"></path><path id="path4" d="M191.234 178.553 L 190.269 179.800 191.413 178.712 C 192.043 178.114,192.477 177.553,192.379 177.465 C 192.280 177.377,191.765 177.867,191.234 178.553 M189.004 181.196 C 188.374 181.854,187.935 182.456,188.029 182.534 C 188.123 182.612,188.713 182.074,189.339 181.338 C 190.754 179.677,190.545 179.588,189.004 181.196 M184.589 186.100 L 181.800 189.000 184.700 186.211 C 187.394 183.620,187.783 183.200,187.489 183.200 C 187.428 183.200,186.123 184.505,184.589 186.100 M179.381 191.700 L 177.800 193.400 179.500 191.819 C 181.081 190.348,181.384 190.000,181.081 190.000 C 181.016 190.000,180.251 190.765,179.381 191.700 M172.000 199.000 C 170.361 200.650,169.110 202.000,169.220 202.000 C 169.330 202.000,170.761 200.650,172.400 199.000 C 174.039 197.350,175.290 196.000,175.180 196.000 C 175.070 196.000,173.639 197.350,172.000 199.000 M166.386 204.300 L 164.200 206.600 166.500 204.414 C 168.637 202.382,168.983 202.000,168.686 202.000 C 168.624 202.000,167.589 203.035,166.386 204.300 M271.576 202.500 C 271.258 202.775,270.549 203.548,269.999 204.219 C 269.101 205.314,269.134 205.301,270.326 204.096 C 271.055 203.358,272.045 202.597,272.526 202.403 C 273.086 202.177,273.176 202.042,272.776 202.025 C 272.434 202.011,271.893 202.225,271.576 202.500 M266.549 208.284 C 265.477 209.540,264.809 210.439,265.064 210.283 C 265.623 209.939,268.954 206.000,268.686 206.000 C 268.582 206.000,267.620 207.028,266.549 208.284 M158.575 211.300 L 157.400 212.600 158.700 211.425 C 159.912 210.330,160.184 210.000,159.875 210.000 C 159.806 210.000,159.221 210.585,158.575 211.300 M259.189 216.300 C 252.488 223.242,251.034 224.800,251.254 224.800 C 251.381 224.800,253.957 222.190,256.980 219.000 C 260.002 215.810,262.409 213.200,262.328 213.200 C 262.247 213.200,260.835 214.595,259.189 216.300 M119.600 221.400 C 120.150 221.714,120.870 221.971,121.200 221.970 C 121.530 221.969,121.194 221.706,120.454 221.384 C 118.751 220.645,118.294 220.653,119.600 221.400 M142.200 221.629 C 141.320 222.052,141.038 222.286,141.574 222.149 C 143.039 221.773,145.086 220.829,144.400 220.845 C 144.070 220.853,143.080 221.206,142.200 221.629 M129.100 223.496 C 130.475 223.574,132.725 223.574,134.100 223.496 C 135.475 223.418,134.350 223.354,131.600 223.354 C 128.850 223.354,127.725 223.418,129.100 223.496 M245.200 230.200 C 243.561 231.850,242.310 233.200,242.420 233.200 C 242.530 233.200,243.961 231.850,245.600 230.200 C 247.239 228.550,248.490 227.200,248.380 227.200 C 248.270 227.200,246.839 228.550,245.200 230.200 M237.896 236.817 C 235.969 238.568,234.529 239.994,234.696 239.986 C 235.030 239.970,241.923 233.626,241.600 233.631 C 241.490 233.633,239.823 235.066,237.896 236.817 M185.099 244.600 C 185.554 245.260,186.523 246.340,187.252 247.000 C 188.230 247.887,188.119 247.678,186.826 246.200 C 184.466 243.502,184.120 243.182,185.099 244.600 M205.800 252.800 L 201.000 253.039 205.600 253.091 C 208.130 253.120,210.560 252.989,211.000 252.800 C 211.440 252.611,211.530 252.480,211.200 252.509 C 210.870 252.537,208.440 252.669,205.800 252.800 M289.150 289.406 C 287.473 291.053,286.218 292.400,286.360 292.400 C 286.503 292.400,287.961 291.050,289.600 289.400 C 291.239 287.750,292.494 286.403,292.390 286.406 C 292.285 286.410,290.828 287.760,289.150 289.406 M280.185 298.100 L 278.200 300.200 280.300 298.215 C 281.455 297.123,282.400 296.178,282.400 296.115 C 282.400 295.817,282.029 296.149,280.185 298.100 M276.370 301.500 L 275.400 302.600 276.600 301.600 C 277.260 301.050,277.875 300.555,277.967 300.500 C 278.058 300.445,277.955 300.400,277.736 300.400 C 277.518 300.400,276.903 300.895,276.370 301.500 M272.515 304.810 C 271.589 305.685,270.967 306.400,271.134 306.400 C 271.301 306.400,272.141 305.680,273.000 304.800 C 275.010 302.741,274.700 302.748,272.515 304.810 M249.600 318.400 C 248.796 318.657,248.757 318.723,249.400 318.732 C 249.840 318.738,250.560 318.589,251.000 318.400 C 252.019 317.962,250.968 317.962,249.600 318.400 M240.500 319.491 C 241.325 319.578,242.675 319.578,243.500 319.491 C 244.325 319.405,243.650 319.334,242.000 319.334 C 240.350 319.334,239.675 319.405,240.500 319.491 " stroke="none" fill="#f49474" fill-rule="evenodd"></path><path id="path5" d="M180.378 190.300 L 179.000 191.800 180.500 190.422 C 181.325 189.663,182.000 188.988,182.000 188.922 C 182.000 188.616,181.662 188.904,180.378 190.300 M170.585 200.100 L 168.600 202.200 170.700 200.215 C 171.855 199.123,172.800 198.178,172.800 198.115 C 172.800 197.817,172.429 198.149,170.585 200.100 M107.280 202.400 C 107.280 202.950,107.424 203.850,107.600 204.400 L 107.920 205.400 107.920 204.400 C 107.920 203.850,107.776 202.950,107.600 202.400 L 107.280 201.400 107.280 202.400 M108.240 207.866 C 108.608 209.399,108.800 209.544,108.800 208.290 C 108.800 207.717,108.613 207.132,108.384 206.990 C 108.111 206.821,108.062 207.123,108.240 207.866 M111.043 214.327 C 111.459 215.057,112.148 215.957,112.574 216.327 C 113.024 216.718,112.866 216.331,112.196 215.400 C 110.593 213.174,110.150 212.761,111.043 214.327 M179.669 225.469 C 179.631 227.488,179.792 230.098,180.026 231.269 C 180.260 232.441,180.649 234.390,180.890 235.600 C 181.132 236.810,181.480 237.971,181.664 238.180 C 182.100 238.673,182.088 238.484,181.577 236.797 C 180.846 234.384,180.313 230.756,180.021 226.200 L 179.738 221.800 179.669 225.469 M182.002 239.025 C 181.999 239.548,183.549 242.800,183.801 242.800 C 183.985 242.800,183.431 241.428,182.509 239.600 C 182.232 239.050,182.004 238.791,182.002 239.025 M216.447 292.233 C 216.473 293.975,216.630 295.940,216.795 296.600 C 216.959 297.260,217.003 295.910,216.892 293.600 C 216.650 288.598,216.381 287.768,216.447 292.233 M217.228 299.433 C 217.244 300.075,217.416 300.960,217.610 301.400 C 217.847 301.934,217.886 301.602,217.727 300.400 C 217.446 298.280,217.188 297.780,217.228 299.433 M218.006 303.033 C 218.009 303.455,218.195 304.070,218.418 304.400 C 218.715 304.838,218.752 304.676,218.556 303.800 C 218.227 302.329,217.998 302.010,218.006 303.033 " stroke="none" fill="#ec886c" fill-rule="evenodd"></path><path id="path6" d="M179.775 191.700 L 178.600 193.000 179.900 191.825 C 181.112 190.730,181.384 190.400,181.075 190.400 C 181.006 190.400,180.421 190.985,179.775 191.700 M172.575 198.900 L 171.400 200.200 172.700 199.025 C 173.415 198.379,174.000 197.794,174.000 197.725 C 174.000 197.416,173.670 197.688,172.575 198.900 M261.375 214.500 L 260.200 215.800 261.500 214.625 C 262.215 213.979,262.800 213.394,262.800 213.325 C 262.800 213.016,262.470 213.288,261.375 214.500 M243.775 232.100 L 242.600 233.400 243.900 232.225 C 244.615 231.579,245.200 230.994,245.200 230.925 C 245.200 230.616,244.870 230.888,243.775 232.100 M289.791 289.300 L 286.600 292.600 289.900 289.409 C 292.965 286.446,293.382 286.000,293.091 286.000 C 293.030 286.000,291.545 287.485,289.791 289.300 " stroke="none" fill="#f4b464" fill-rule="evenodd"></path><path id="path7" d="M179.342 225.800 C 179.341 227.780,179.408 228.640,179.492 227.712 C 179.576 226.784,179.577 225.164,179.495 224.112 C 179.412 223.060,179.343 223.820,179.342 225.800 M179.858 232.800 C 180.175 234.525,180.402 234.851,180.394 233.567 C 180.391 233.035,180.211 232.330,179.994 232.000 C 179.718 231.578,179.677 231.815,179.858 232.800 M181.200 238.593 C 181.200 239.109,183.264 243.192,183.643 243.426 C 183.830 243.542,183.415 242.504,182.719 241.119 C 181.309 238.309,181.200 238.128,181.200 238.593 M216.144 292.800 C 216.144 294.890,216.212 295.745,216.294 294.700 C 216.376 293.655,216.376 291.945,216.294 290.900 C 216.212 289.855,216.144 290.710,216.144 292.800 M216.806 300.033 C 216.809 300.785,216.977 301.661,217.179 301.979 C 217.416 302.354,217.465 301.930,217.318 300.779 C 217.035 298.570,216.798 298.225,216.806 300.033 " stroke="none" fill="#f2ba58" fill-rule="evenodd"></path><path id="path8" d="M186.820 184.579 L 185.040 186.600 187.001 184.714 C 188.079 183.677,188.880 182.767,188.781 182.693 C 188.681 182.619,187.799 183.467,186.820 184.579 M262.185 214.100 L 260.200 216.200 262.300 214.215 C 263.455 213.123,264.400 212.178,264.400 212.115 C 264.400 211.817,264.029 212.149,262.185 214.100 M127.800 224.000 C 128.240 224.189,128.960 224.338,129.400 224.332 C 130.043 224.323,130.004 224.257,129.200 224.000 C 127.832 223.562,126.781 223.562,127.800 224.000 M133.000 224.000 L 131.000 224.274 132.800 224.309 C 133.790 224.328,134.960 224.189,135.400 224.000 C 136.313 223.608,135.862 223.608,133.000 224.000 M244.786 231.500 L 242.600 233.800 244.900 231.614 C 247.037 229.582,247.383 229.200,247.086 229.200 C 247.024 229.200,245.989 230.235,244.786 231.500 M239.775 236.100 L 238.600 237.400 239.900 236.225 C 240.615 235.579,241.200 234.994,241.200 234.925 C 241.200 234.616,240.870 234.888,239.775 236.100 M200.105 253.487 C 200.714 253.579,201.614 253.577,202.105 253.482 C 202.597 253.387,202.100 253.311,201.000 253.314 C 199.900 253.317,199.497 253.395,200.105 253.487 M208.307 253.490 C 209.026 253.579,210.106 253.577,210.707 253.486 C 211.308 253.395,210.720 253.322,209.400 253.324 C 208.080 253.326,207.588 253.401,208.307 253.490 M289.600 289.800 C 288.628 290.790,287.923 291.600,288.033 291.600 C 288.143 291.600,289.028 290.790,290.000 289.800 C 290.972 288.810,291.677 288.000,291.567 288.000 C 291.457 288.000,290.572 288.810,289.600 289.800 M280.981 298.100 L 279.400 299.800 281.100 298.219 C 282.681 296.748,282.984 296.400,282.681 296.400 C 282.616 296.400,281.851 297.165,280.981 298.100 M272.975 305.300 L 271.800 306.600 273.100 305.425 C 273.815 304.779,274.400 304.194,274.400 304.125 C 274.400 303.816,274.070 304.088,272.975 305.300 M239.700 319.897 C 241.185 319.974,243.615 319.974,245.100 319.897 C 246.585 319.820,245.370 319.757,242.400 319.757 C 239.430 319.757,238.215 319.820,239.700 319.897 " stroke="none" fill="#f4c45c" fill-rule="evenodd"></path></g></svg>