<svg width="500" height="158" xmlns="http://www.w3.org/2000/svg" xml:space="preserve" version="1.1" clip-rule="evenodd">
 <g>
  <title>Layer 1</title>
  <g stroke="null" id="Capa_x0020_1">
   <metadata stroke="null" id="CorelCorpID_0Corel-Layer"/>
   <g stroke="null" id="_1931761022544">
    <path stroke="null" class="fil0" d="m408.9044,94.08787c4.13629,4.61685 24.25506,16.90895 30.46753,20.74463l7.9477,-26.38452c8.86018,6.53091 17.60255,14.23296 26.623,20.446l24.90457,-8.57846c-4.42421,-5.59751 -44.06983,-31.06615 -44.84075,-34.5937c-0.56889,-2.60243 12.83499,-41.23276 12.54562,-47.12524l-25.22321,8.96819c-2.98938,8.21333 -2.49943,16.86851 -5.6371,25.10084c-5.97733,-2.54762 -13.74627,-11.89214 -19.53716,-16.35285l-26.26166,9.10605c18.29885,-2.55347 33.88448,17.36469 28.88298,35.02216c-2.46608,8.70561 -5.76738,7.39782 -9.87152,13.6469z" fill="#FEFEFE" id="svg_1"/>
    <path stroke="null" class="fil0" d="m398.273,135.5116l19.3181,-6.88118c-1.48138,-2.92517 -10.81183,-9.68456 -14.14792,-12.29332c-4.17899,-3.26789 -11.49829,-9.66361 -15.01338,-11.23228l9.8432,30.40678z" fill="#FEFEFE" id="svg_2"/>
    <path stroke="null" class="fil0" d="m382.67273,89.30904c8.42925,-3.07327 16.36951,-6.47586 13.15938,-15.98431c-3.22068,-9.53963 -11.28115,-7.63921 -20.11469,-4.64145l6.95531,20.62576z" fill="#FEFEFE" id="svg_3"/>
    <path stroke="null" class="fil1" d="m127.09617,90.10482l0.19339,55.76947l-19.14991,0.88371l-0.19339,-56.16212l-20.11709,0.49082l-1.35397,-19.63706l60.73806,-1.47269l1.54736,19.63706l-21.66445,0.49082zm57.35278,56.65318c-6.64123,0 -12.89545,-1.78375 -18.76289,-5.35124c-5.86768,-3.56725 -10.55822,-8.28031 -14.07234,-14.13869c-3.51413,-5.85838 -5.27095,-12.0931 -5.27095,-18.70439c0,-6.61105 1.75682,-12.81312 5.27095,-18.60598c3.51413,-5.7931 8.20467,-10.40775 14.07234,-13.8442c5.86744,-3.43645 12.12165,-5.15467 18.76289,-5.15467c6.57693,0 12.7666,1.71822 18.56974,5.15467c5.80289,3.43645 10.42913,8.03478 13.87871,13.795c3.44958,5.76022 5.1745,11.97861 5.1745,18.65518c0,6.7421 -1.72491,13.04233 -5.1745,18.90071c-3.44958,5.85838 -8.07582,10.53856 -13.87871,14.04053c-5.80313,3.50197 -11.9928,5.25308 -18.56974,5.25308zm-0.58017,-19.63706c3.41719,0 6.56062,-0.81843 9.42979,-2.45482c2.86917,-1.63638 5.15818,-3.86199 6.86678,-6.67657c1.70884,-2.81459 2.56301,-5.95654 2.56301,-9.42588c0,-3.40357 -0.85418,-6.48024 -2.56301,-9.22931c-1.7086,-2.74931 -4.01368,-4.89282 -6.915,-6.43128c-2.90157,-1.53822 -6.12561,-2.3072 -9.67189,-2.3072c-3.35265,0 -6.39938,0.76899 -9.13947,2.3072c-2.74033,1.53846 -4.88441,3.66566 -6.43177,6.38208c-1.5476,2.71642 -2.32116,5.77654 -2.32116,9.18035c0,3.53461 0.78987,6.72578 2.36938,9.573c1.57975,2.84747 3.73967,5.07307 6.48,6.67682c2.74033,1.6035 5.8516,2.40561 9.33334,2.40561zm102.13283,19.146l-2.03107,-44.0851l-9.28487,44.0851l-19.34329,0l-10.73553,-41.23788l-0.48371,40.15784l-19.34329,0.09816l0,-74.42441l13.92718,0.88347l14.79768,0.49106l10.83223,39.47045l7.35049,-40.05967l18.76313,0l11.50909,0l3.38504,73.93384l-19.34305,0.68714zm70.02269,-16.59327l-24.56602,-0.09816l-6.18991,15.61139l-19.34329,-8.0511l31.72312,-65.68616l19.34329,0.19633l22.72834,69.71184l-19.34329,4.71282l-4.35223,-16.39694zm-5.22272,-19.63706l-4.64231,-17.67355l-6.96347,17.57539l11.60579,0.09816z" fill="#AACD46" fill-rule="nonzero" id="svg_4"/>
    <path stroke="null" class="fil2" d="m43.53907,153.50546c-7.21253,0 -14.38138,-1.58499 -21.50609,-4.75496c-7.12471,-3.16997 -12.97391,-7.38929 -17.54784,-12.65772l17.81177,-19.8234c2.81471,3.21455 6.13521,5.73708 9.96149,7.56759c3.82605,1.83076 7.67441,2.7459 11.5446,2.7459c3.51845,0 6.37706,-0.66961 8.57609,-2.00906c2.19903,-1.33946 3.29842,-2.90203 3.29842,-4.68797c0,-1.78594 -1.05549,-3.08082 -3.16646,-3.8844c-2.11097,-0.80382 -4.83786,-1.20549 -8.18043,-1.20549c-6.50879,0 -12.51203,-1.38403 -18.00948,-4.15234c-5.49745,-2.76806 -9.89551,-6.58547 -13.19393,-11.45199c-3.29866,-4.86676 -4.94775,-10.3359 -4.94775,-16.40814c0,-6.25055 1.71531,-11.87631 5.14546,-16.87679c3.43063,-5.00049 8.04847,-8.92946 13.85376,-11.78691c5.80529,-2.85746 12.13845,-4.28631 18.99922,-4.28631c6.94883,0 13.7218,1.36186 20.31864,4.08535c6.59709,2.72349 12.40238,6.63029 17.41612,11.71993l-14.90925,20.49325c-8.26825,-6.16115 -16.09646,-9.24197 -23.48534,-9.24197c-3.25427,0 -6.06898,0.58045 -8.44389,1.74136c-2.37514,1.16091 -3.56259,2.54494 -3.56259,4.15209c0,1.69655 1.40747,2.96902 4.22218,3.81741c2.81471,0.84839 6.15728,1.27247 10.02748,1.27247c7.03665,0 13.3259,1.11633 18.86726,3.34852c5.54136,2.23243 9.89551,5.53637 13.06197,9.91182c3.16646,4.37546 4.74981,9.6887 4.74981,15.93925c0,6.69703 -1.86911,12.83626 -5.60734,18.4172c-3.73823,5.58094 -8.72989,9.97856 -14.97523,13.19335c-6.2451,3.21455 -13.01806,4.82194 -20.31864,4.82194z" fill="#FEFEFE" fill-rule="nonzero" id="svg_5"/>
    <path stroke="null" class="fil2" d="m20.46571,12.89506c0,1.88971 -0.2301,3.54289 -0.6903,4.95445c-0.46044,1.41716 -1.13419,2.58659 -2.01644,3.51415c-0.88225,0.92756 -1.96677,1.62469 -3.24924,2.08555c-1.28751,0.46086 -2.81639,0.69128 -4.59145,0.69128l-4.39974,0c-0.24666,0 -0.48227,-0.08647 -0.70134,-0.25917c-0.2193,-0.17855 -0.32871,-0.484 -0.32871,-0.92171l0,-19.48385c0,-0.43772 0.10941,-0.74317 0.32871,-0.92171c0.21906,-0.1727 0.45468,-0.25917 0.70134,-0.25917l4.7011,0c1.80265,0 3.3205,0.24188 4.56433,0.73148c1.23808,0.48984 2.27917,1.19842 3.12303,2.11429c0.83834,0.91611 1.47394,2.02806 1.90654,3.33561c0.43309,1.30219 0.65215,2.77683 0.65215,4.41881zm-2.89293,0.12666c0,-1.18088 -0.137,-2.28139 -0.41629,-3.30102c-0.27977,-1.01963 -0.71813,-1.90115 -1.30982,-2.64432c-0.5972,-0.74317 -1.34773,-1.31924 -2.26285,-1.73966c-0.9096,-0.41482 -2.08194,-0.62235 -3.51749,-0.62235l-2.81639,0l0,17.00662l2.8435,0c1.33165,0 2.44928,-0.17294 3.36441,-0.52443c0.9096,-0.34564 1.67117,-0.88128 2.27941,-1.60155c0.61352,-0.72003 1.07396,-1.62445 1.37508,-2.71326c0.30688,-1.08321 0.46044,-2.3737 0.46044,-3.86004z" fill="#FEFEFE" fill-rule="nonzero" id="svg_6"/>
    <path stroke="null" id="1" class="fil2" d="m27.07887,23.71983c0,0.09232 -0.02183,0.1671 -0.0655,0.23067c-0.04415,0.05749 -0.10965,0.11521 -0.20827,0.16125c-0.09885,0.04019 -0.2301,0.07478 -0.40549,0.09792c-0.16988,0.0229 -0.38894,0.03459 -0.65743,0.03459c-0.26321,0 -0.47676,-0.01169 -0.64663,-0.03459c-0.17539,-0.02314 -0.31216,-0.05773 -0.41101,-0.09792c-0.10389,-0.04604 -0.17539,-0.10377 -0.21354,-0.16125c-0.03839,-0.06357 -0.05495,-0.13835 -0.05495,-0.23067l0,-15.1973c0,-0.08063 0.01656,-0.15565 0.05495,-0.21898c0.03815,-0.06918 0.10965,-0.12666 0.21354,-0.17294c0.09885,-0.04019 0.23562,-0.07478 0.41101,-0.09792c0.16988,-0.0229 0.38342,-0.03459 0.64663,-0.03459c0.26849,0 0.48755,0.01169 0.65743,0.03459c0.17539,0.02314 0.30664,0.05773 0.40549,0.09792c0.09861,0.04628 0.16412,0.10377 0.20827,0.17294c0.04367,0.06333 0.0655,0.13835 0.0655,0.21898l0,15.1973zm0.29608,-20.31885c0,0.6567 -0.12069,1.10026 -0.35631,1.33653c-0.23562,0.23627 -0.66847,0.35709 -1.30406,0.35709c-0.62456,0 -1.05189,-0.11521 -1.28199,-0.34564c-0.2301,-0.23043 -0.34527,-0.66814 -0.34527,-1.31339c0,-0.65694 0.12045,-1.1005 0.35607,-1.33653c0.23562,-0.23627 0.66871,-0.35733 1.30406,-0.35733c0.62456,0 1.05213,0.11521 1.28223,0.34564c0.2301,0.23043 0.34527,0.66839 0.34527,1.31364z" fill="#FEFEFE" fill-rule="nonzero"/>
    <path stroke="null" id="2" class="fil2" d="m42.84253,23.73712c0,0.13251 -0.04367,0.23627 -0.12597,0.30545c-0.08758,0.06918 -0.20275,0.11521 -0.35607,0.1498c-0.14804,0.03459 -0.3671,0.05188 -0.65743,0.05188c-0.27401,0 -0.49859,-0.01729 -0.66295,-0.05188c-0.1646,-0.03459 -0.28505,-0.08063 -0.36183,-0.1498c-0.07654,-0.06918 -0.11493,-0.1671 -0.11493,-0.30545l0,-1.52068c-0.63032,0.70858 -1.33141,1.26151 -2.10953,1.65319c-0.77812,0.38608 -1.5999,0.58192 -2.4656,0.58192c-0.76156,0 -1.4521,-0.10377 -2.06562,-0.31105c-0.61376,-0.20729 -1.1397,-0.51274 -1.57255,-0.90442c-0.43285,-0.39192 -0.7726,-0.88152 -1.01374,-1.45175c-0.24114,-0.57607 -0.36159,-1.22716 -0.36159,-1.95888c0,-0.85838 0.16436,-1.60155 0.49859,-2.2295c0.32871,-0.63356 0.80547,-1.15799 1.43003,-1.57256c0.61928,-0.41482 1.38084,-0.73172 2.27941,-0.93925c0.89857,-0.20729 1.9123,-0.31105 3.03545,-0.31105l1.9946,0l0,-1.18673c0,-0.58192 -0.06022,-1.10026 -0.17539,-1.55551c-0.12045,-0.44941 -0.30712,-0.82379 -0.56985,-1.1234c-0.26297,-0.29961 -0.60296,-0.52419 -1.01926,-0.67399c-0.41629,-0.15541 -0.93144,-0.23043 -1.53968,-0.23043c-0.65191,0 -1.23808,0.08063 -1.75322,0.24772c-0.52042,0.1671 -0.97535,0.34564 -1.36429,0.54733c-0.38918,0.20169 -0.71789,0.38023 -0.98087,0.54733c-0.25745,0.1671 -0.45468,0.24772 -0.58065,0.24772c-0.08758,0 -0.1646,-0.02314 -0.22482,-0.06918c-0.06574,-0.04043 -0.12045,-0.10937 -0.16988,-0.20169c-0.04919,-0.08647 -0.08206,-0.20169 -0.10389,-0.3398c-0.02207,-0.1442 -0.03287,-0.29376 -0.03287,-0.4667c0,-0.27647 0.01632,-0.50129 0.05471,-0.66254c0.03839,-0.16125 0.13149,-0.3169 0.27401,-0.46086c0.14252,-0.14396 0.39446,-0.3169 0.74501,-0.51859c0.35079,-0.19584 0.7618,-0.38023 1.222,-0.54708c0.45468,-0.16149 0.95879,-0.29961 1.50681,-0.40922c0.54226,-0.10937 1.0958,-0.16125 1.64909,-0.16125c1.03557,0 1.91782,0.12106 2.64651,0.36878c0.72869,0.24772 1.31486,0.61626 1.76426,1.09441c0.44916,0.47839 0.7726,1.07176 0.97535,1.78034c0.20275,0.70858 0.30664,1.53822 0.30664,2.48283l0,10.25454zm-2.62972,-6.95913l-2.26309,0c-0.72317,0 -1.35325,0.06333 -1.89023,0.19584c-0.53146,0.12666 -0.97535,0.3225 -1.33141,0.57607c-0.35079,0.25357 -0.60824,0.55317 -0.77812,0.91026c-0.16436,0.35709 -0.24666,0.76631 -0.24666,1.22716c0,0.7892 0.23562,1.41716 0.71237,1.88386c0.47652,0.46646 1.1397,0.70273 1.99988,0.70273c0.6903,0 1.33693,-0.18439 1.92886,-0.55878c0.59169,-0.36878 1.21624,-0.93901 1.86839,-1.70531l0,-3.23184z" fill="#FEFEFE" fill-rule="nonzero"/>
    <path stroke="null" id="3" class="fil2" d="m59.77325,9.2311c0,0.39753 -0.04943,0.67984 -0.15332,0.85838c-0.09861,0.1727 -0.23034,0.25917 -0.39446,0.25917l-2.07666,0c0.3779,0.40337 0.64087,0.84693 0.78892,1.33093c0.1478,0.48375 0.22458,0.99089 0.22458,1.51508c0,0.87568 -0.13149,1.65343 -0.39998,2.32742c-0.26849,0.67399 -0.65215,1.24446 -1.15074,1.71092c-0.49835,0.47255 -1.09004,0.82964 -1.77506,1.07736c-0.68478,0.24772 -1.44658,0.36878 -2.27941,0.36878c-0.58617,0 -1.1505,-0.08063 -1.67668,-0.24212c-0.53146,-0.1671 -0.94224,-0.36854 -1.23256,-0.61626c-0.18091,0.20144 -0.32895,0.43211 -0.4494,0.69128c-0.11517,0.26502 -0.17539,0.56462 -0.17539,0.89857c0,0.39753 0.17539,0.72587 0.52042,0.98529c0.34527,0.26502 0.81123,0.40313 1.38636,0.42627l3.76414,0.1671c0.71237,0.0229 1.3698,0.12666 1.96701,0.31105c0.5972,0.18999 1.11787,0.44941 1.55624,0.79505c0.43813,0.3398 0.77788,0.76606 1.02453,1.26151c0.24642,0.50129 0.3671,1.08321 0.3671,1.74575c0,0.69713 -0.137,1.35943 -0.41653,1.98738c-0.27929,0.62795 -0.7011,1.18113 -1.27671,1.65928c-0.56985,0.47815 -1.30406,0.85838 -2.19135,1.12924c-0.88777,0.27647 -1.93438,0.41458 -3.1451,0.41458c-1.1673,0 -2.15896,-0.10352 -2.97547,-0.31105c-0.81627,-0.20729 -1.49025,-0.49544 -2.0162,-0.85254c-0.52042,-0.36294 -0.90409,-0.7892 -1.1397,-1.2905c-0.23562,-0.50129 -0.35055,-1.04838 -0.35055,-1.63029c0,-0.37463 0.04391,-0.73172 0.12597,-1.08321c0.08758,-0.34564 0.2193,-0.67959 0.39446,-0.99649c0.17539,-0.31105 0.39446,-0.61651 0.65767,-0.89882c0.26297,-0.28791 0.56433,-0.57022 0.90936,-0.85254c-0.52042,-0.28231 -0.90409,-0.63965 -1.15626,-1.06591c-0.24642,-0.42627 -0.37238,-0.88712 -0.37238,-1.38257c0,-0.68544 0.13149,-1.30194 0.39446,-1.84343c0.26297,-0.53588 0.58641,-1.01988 0.97535,-1.45175c-0.32871,-0.41482 -0.59193,-0.88152 -0.7834,-1.40571c-0.19195,-0.52443 -0.29056,-1.15799 -0.29056,-1.90115c0,-0.86423 0.137,-1.64198 0.41653,-2.32742c0.27929,-0.68568 0.66271,-1.2676 1.15602,-1.7399c0.49307,-0.4723 1.08476,-0.83524 1.7753,-1.08881c0.6903,-0.25357 1.44634,-0.38023 2.25733,-0.38023c0.44388,0 0.84914,0.02874 1.2328,0.08063c0.37814,0.05773 0.73421,0.13251 1.06844,0.23043l4.36711,0c0.18619,0 0.31768,0.09232 0.41077,0.27647c0.09334,0.19024 0.137,0.47255 0.137,0.85278zm-4.14228,3.98646c0,-1.03108 -0.26849,-1.83758 -0.81099,-2.41365c-0.54226,-0.58192 -1.30934,-0.87007 -2.30124,-0.87007c-0.51491,0 -0.96431,0.09232 -1.34245,0.27086c-0.3779,0.17855 -0.69558,0.42627 -0.94775,0.73732c-0.25193,0.3169 -0.43837,0.67984 -0.55905,1.08881c-0.12597,0.40897 -0.18619,0.84109 -0.18619,1.2905c0,0.99674 0.26849,1.78009 0.81099,2.35616c0.5425,0.57047 1.29854,0.85838 2.27389,0.85838c0.52042,0 0.97535,-0.08623 1.36429,-0.25917c0.38342,-0.17855 0.70134,-0.41482 0.95327,-0.72587c0.25217,-0.31105 0.43837,-0.66814 0.55881,-1.07152c0.12597,-0.40337 0.18643,-0.82379 0.18643,-1.26175zm1.3151,12.02319c0,-0.65085 -0.25217,-1.15214 -0.7618,-1.50923c-0.50411,-0.35149 -1.19441,-0.54148 -2.05986,-0.56462l-3.73151,-0.13251c-0.33975,0.28231 -0.62456,0.54733 -0.84386,0.80065c-0.21906,0.25357 -0.38894,0.48984 -0.52042,0.72027c-0.12597,0.23043 -0.21354,0.46086 -0.26297,0.68544c-0.04943,0.22483 -0.07126,0.45525 -0.07126,0.68568c0,0.73172 0.35055,1.28465 1.05741,1.65903c0.70686,0.37463 1.68748,0.56462 2.94787,0.56462c0.79995,0 1.4737,-0.08063 2.01068,-0.24188c0.54274,-0.1671 0.97535,-0.38023 1.30406,-0.65109c0.33447,-0.27062 0.57009,-0.57607 0.71789,-0.92171c0.14228,-0.35149 0.21378,-0.71442 0.21378,-1.09466z" fill="#FEFEFE" fill-rule="nonzero"/>
    <path stroke="null" id="4" class="fil2" d="m75.60818,23.71983c0,0.09232 -0.02207,0.1671 -0.06574,0.23067c-0.04391,0.05749 -0.10965,0.11521 -0.20827,0.16125c-0.09861,0.04019 -0.2301,0.07478 -0.40549,0.09792c-0.16988,0.0229 -0.38342,0.03459 -0.64111,0.03459c-0.27401,0 -0.49307,-0.01169 -0.66295,-0.03459c-0.17539,-0.02314 -0.30664,-0.05773 -0.40549,-0.09792c-0.09861,-0.04604 -0.16436,-0.10377 -0.20827,-0.16125c-0.04367,-0.06357 -0.06574,-0.13835 -0.06574,-0.23067l0,-8.90072c0,-0.86398 -0.0655,-1.56696 -0.19147,-2.09115c-0.12621,-0.53003 -0.31264,-0.98504 -0.55905,-1.37112c-0.24666,-0.38023 -0.55881,-0.67399 -0.94775,-0.87568c-0.38918,-0.20169 -0.83858,-0.30521 -1.34821,-0.30521c-0.66271,0 -1.32038,0.24772 -1.97781,0.74317c-0.66319,0.49544 -1.35349,1.22132 -2.07666,2.17762l0,10.62308c0,0.09232 -0.02183,0.1671 -0.06574,0.23067c-0.04391,0.05749 -0.10941,0.11521 -0.20827,0.16125c-0.09861,0.04019 -0.22986,0.07478 -0.40525,0.09792c-0.16988,0.0229 -0.38894,0.03459 -0.65743,0.03459c-0.26321,0 -0.47676,-0.01169 -0.64663,-0.03459c-0.17539,-0.02314 -0.3124,-0.05773 -0.41101,-0.09792c-0.10413,-0.04604 -0.17539,-0.10377 -0.21354,-0.16125c-0.03863,-0.06357 -0.05495,-0.13835 -0.05495,-0.23067l0,-15.1973c0,-0.09232 0.01632,-0.1671 0.04943,-0.23043c0.03287,-0.05773 0.0931,-0.11521 0.19171,-0.1671c0.09837,-0.05188 0.21906,-0.08647 0.37262,-0.10377c0.14804,-0.01729 0.35055,-0.02314 0.5972,-0.02314c0.23562,0 0.43261,0.00585 0.58617,0.02314c0.15884,0.01729 0.27953,0.05188 0.3671,0.10377c0.0823,0.05188 0.14804,0.10937 0.18619,0.1671c0.03287,0.06333 0.05495,0.13811 0.05495,0.23043l0,2.01052c0.81075,-0.96215 1.61622,-1.66488 2.42721,-2.10844c0.80547,-0.44381 1.61622,-0.66839 2.43825,-0.66839c0.95879,0 1.76978,0.17294 2.42745,0.51274c0.65743,0.34564 1.18889,0.8065 1.59439,1.37697c0.40525,0.57607 0.69582,1.25006 0.87121,2.02197c0.17515,0.77191 0.26297,1.69947 0.26297,2.77683l0,9.2751z" fill="#FEFEFE" fill-rule="nonzero"/>
    <path stroke="null" id="5" class="fil2" d="m93.86456,15.94251c0,1.23861 -0.15332,2.37931 -0.46572,3.42208c-0.30688,1.03693 -0.7726,1.93574 -1.38612,2.69036c-0.61376,0.75486 -1.38636,1.34238 -2.30676,1.76304c-0.92592,0.42042 -1.99988,0.63356 -3.21612,0.63356c-1.18937,0 -2.2247,-0.18439 -3.10695,-0.55878c-0.88201,-0.36878 -1.61646,-0.91026 -2.20239,-1.61884c-0.58641,-0.70858 -1.02477,-1.57281 -1.31534,-2.58099c-0.29032,-1.01379 -0.43261,-2.16033 -0.43261,-3.44497c0,-1.23861 0.15332,-2.37931 0.45468,-3.41623c0.30664,-1.04277 0.76708,-1.94159 1.38084,-2.6962c0.61352,-0.75462 1.3806,-1.33653 2.30124,-1.7572c0.9204,-0.41458 1.99436,-0.62211 3.22164,-0.62211c1.18913,0 2.2247,0.18439 3.10671,0.55878c0.88201,0.36878 1.61646,0.91026 2.20263,1.61884c0.58617,0.70858 1.03005,1.56696 1.3259,2.58099c0.29032,1.01403 0.43837,2.15448 0.43837,3.42768zm-2.76144,0.17879c0,-0.82404 -0.07126,-1.60155 -0.21906,-2.33327c-0.14252,-0.73172 -0.38366,-1.37112 -0.71789,-1.92429c-0.32895,-0.55293 -0.78364,-0.99089 -1.35325,-1.30755c-0.56433,-0.32275 -1.27671,-0.484 -2.12609,-0.484c-0.7834,0 -1.45738,0.14396 -2.02171,0.43772c-0.56433,0.294 -1.02453,0.70858 -1.39188,1.24446c-0.36686,0.53588 -0.63535,1.16944 -0.81075,1.90115c-0.18067,0.73172 -0.26849,1.53237 -0.26849,2.3966c0,0.83524 0.07126,1.61884 0.21906,2.35032c0.14252,0.73172 0.38366,1.37112 0.72341,1.91845c0.33951,0.54148 0.79443,0.97944 1.35877,1.29634c0.56985,0.3225 1.28223,0.48375 2.13137,0.48375c0.7726,0 1.44107,-0.14396 2.01092,-0.43772c0.56985,-0.29376 1.03557,-0.70273 1.40268,-1.23277c0.3671,-0.53003 0.63559,-1.16383 0.80523,-1.89555c0.16988,-0.73148 0.25769,-1.53797 0.25769,-2.41365z" fill="#FEFEFE" fill-rule="nonzero"/>
    <path stroke="null" id="6" class="fil2" d="m106.86102,19.57212c0,0.77776 -0.13676,1.46904 -0.41077,2.0797c-0.27401,0.60481 -0.65767,1.11755 -1.16178,1.53237c-0.50387,0.41482 -1.10107,0.73172 -1.79689,0.94485c-0.69606,0.21313 -1.46314,0.3225 -2.29596,0.3225c-0.51491,0 -1.0027,-0.04019 -1.46818,-0.12666c-0.46596,-0.08063 -0.88225,-0.18439 -1.25511,-0.3169c-0.36686,-0.12666 -0.67902,-0.25917 -0.93672,-0.39753c-0.25769,-0.13835 -0.44388,-0.26502 -0.55881,-0.37438c-0.12069,-0.10961 -0.20827,-0.27086 -0.25769,-0.47255c-0.05447,-0.20144 -0.08206,-0.47815 -0.08206,-0.8294c0,-0.21313 0.01104,-0.39192 0.03287,-0.53588c0.02183,-0.1498 0.04919,-0.26502 0.07654,-0.35709c0.03287,-0.09232 0.0823,-0.15565 0.13724,-0.19584c0.06022,-0.04043 0.12597,-0.05773 0.20275,-0.05773c0.11493,0 0.29032,0.07478 0.52042,0.23043c0.2301,0.1498 0.51515,0.3169 0.84914,0.49544c0.33423,0.17855 0.73445,0.34564 1.19441,0.49544c0.46044,0.15565 0.98638,0.23043 1.58383,0.23043c0.44916,0 0.85442,-0.05188 1.21624,-0.15541c0.3671,-0.09816 0.67926,-0.24772 0.94799,-0.44941c0.26849,-0.19584 0.471,-0.44941 0.6188,-0.75486c0.14252,-0.30521 0.21402,-0.66814 0.21402,-1.08881c0,-0.42627 -0.10437,-0.7892 -0.3124,-1.07712c-0.20827,-0.294 -0.48227,-0.55317 -0.82203,-0.77776c-0.34503,-0.22483 -0.72869,-0.42627 -1.15602,-0.59921c-0.42733,-0.17294 -0.8657,-0.35709 -1.32038,-0.54733c-0.4494,-0.19584 -0.89305,-0.40897 -1.32614,-0.65085c-0.43261,-0.24212 -0.81627,-0.53588 -1.16154,-0.88737c-0.33951,-0.35124 -0.61376,-0.76606 -0.82203,-1.25006c-0.20803,-0.484 -0.31216,-1.06007 -0.31216,-1.7399c0,-0.59336 0.10965,-1.16359 0.32871,-1.71092c0.21906,-0.54733 0.54778,-1.02548 0.98638,-1.43445c0.44364,-0.40897 0.99166,-0.74317 1.64933,-0.99089c0.65743,-0.24772 1.42451,-0.36878 2.30652,-0.36878c0.38342,0 0.76708,0.03459 1.15602,0.10377c0.38366,0.06918 0.72893,0.16125 1.04133,0.26502c0.31216,0.10352 0.57513,0.21898 0.79419,0.3398c0.2193,0.12691 0.38894,0.23043 0.49859,0.32835c0.11517,0.09232 0.18643,0.17294 0.22482,0.23627c0.03839,0.06918 0.06574,0.14396 0.08206,0.23043c0.01656,0.08063 0.03311,0.18439 0.04943,0.30545c0.01656,0.12666 0.02183,0.27647 0.02183,0.45501c0,0.18999 -0.00528,0.35709 -0.02183,0.49544c-0.01632,0.13835 -0.04367,0.25357 -0.0823,0.3398c-0.03839,0.09232 -0.08206,0.15565 -0.13676,0.19608c-0.05495,0.04019 -0.11517,0.05749 -0.17539,0.05749c-0.09885,0 -0.23562,-0.06333 -0.42181,-0.18999c-0.18091,-0.12106 -0.41653,-0.25357 -0.70686,-0.39753c-0.29056,-0.1442 -0.63008,-0.27671 -1.01926,-0.39753c-0.38918,-0.12691 -0.83834,-0.19024 -1.34245,-0.19024c-0.44916,0 -0.84914,0.05188 -1.18889,0.16125c-0.34527,0.10377 -0.62456,0.25357 -0.84362,0.44941c-0.21954,0.19584 -0.38918,0.42627 -0.49883,0.69713c-0.11493,0.26502 -0.16988,0.55878 -0.16988,0.86983c0,0.43796 0.10965,0.80674 0.32344,1.1061c0.21354,0.29961 0.48731,0.55902 0.83258,0.7836c0.33999,0.22458 0.73445,0.42627 1.17282,0.61066c0.43813,0.17855 0.88201,0.36294 1.33693,0.55293c0.45468,0.19608 0.90385,0.40922 1.34773,0.64525c0.44388,0.23627 0.83834,0.52443 1.17809,0.85838c0.34503,0.34004 0.61904,0.74317 0.82731,1.21572c0.20827,0.4723 0.31216,1.03693 0.31216,1.68802z" fill="#FEFEFE" fill-rule="nonzero"/>
    <path stroke="null" id="7" class="fil2" d="m122.85479,8.10186c0.31792,0 0.53698,0.07502 0.65743,0.23043c0.11517,0.1498 0.17539,0.36878 0.17539,0.66254l0,14.72499c0,0.09232 -0.02183,0.1671 -0.06574,0.23067c-0.04367,0.05749 -0.11493,0.11521 -0.21354,0.16125c-0.10437,0.04019 -0.24114,0.07478 -0.41101,0.09792c-0.16988,0.0229 -0.37814,0.03459 -0.62456,0.03459c-0.26849,0 -0.48755,-0.01169 -0.65743,-0.03459c-0.17012,-0.02314 -0.30688,-0.05773 -0.41101,-0.09792c-0.09861,-0.04604 -0.16988,-0.10377 -0.21378,-0.16125c-0.04391,-0.06357 -0.0655,-0.13835 -0.0655,-0.23067l0,-13.30199l-7.46278,0l0,8.45131c0,1.04277 0.1478,1.83198 0.44364,2.36201c0.29056,0.53588 0.82203,0.8009 1.57807,0.8009c0.24666,0 0.46572,-0.02314 0.66319,-0.07502c0.19171,-0.05188 0.36159,-0.10377 0.50939,-0.16125c0.15356,-0.05773 0.27953,-0.10937 0.38918,-0.16125c0.10389,-0.05188 0.20275,-0.07502 0.29032,-0.07502c0.04919,0 0.10389,0.01169 0.14804,0.04043c0.04919,0.02874 0.08758,0.08063 0.11493,0.16125c0.02735,0.08063 0.04919,0.18439 0.07126,0.32275c0.02183,0.13251 0.03287,0.30521 0.03287,0.50689c0,0.32835 -0.02207,0.58192 -0.06574,0.76606c-0.04391,0.19024 -0.10413,0.32859 -0.19195,0.42651c-0.08758,0.09792 -0.21354,0.18415 -0.38342,0.25917c-0.17515,0.08063 -0.37262,0.14396 -0.59193,0.19584c-0.21906,0.05188 -0.44916,0.09207 -0.69558,0.12666c-0.24666,0.03459 -0.49883,0.05188 -0.74525,0.05188c-0.75053,0 -1.39164,-0.10352 -1.92862,-0.31105c-0.53698,-0.20729 -0.97535,-0.52419 -1.32062,-0.94485c-0.33975,-0.42042 -0.59193,-0.9563 -0.74525,-1.60155c-0.15884,-0.64525 -0.23562,-1.40571 -0.23562,-2.28139l0,-8.86028l-2.03251,0c-0.15908,0 -0.29056,-0.09207 -0.38918,-0.27086c-0.0931,-0.17855 -0.14228,-0.4723 -0.14228,-0.88128c0,-0.21313 0.0108,-0.39192 0.03815,-0.53588c0.02735,-0.1498 0.06574,-0.27062 0.10413,-0.36878c0.04391,-0.09207 0.10413,-0.16125 0.16988,-0.20144c0.07126,-0.04043 0.1478,-0.05773 0.23562,-0.05773l2.0162,0l0,-3.60623c0,-0.08087 0.01656,-0.15565 0.05495,-0.21898c0.03815,-0.06918 0.10965,-0.12691 0.21354,-0.17855c0.09885,-0.05188 0.23562,-0.08647 0.41101,-0.10961c0.16988,-0.0229 0.38366,-0.03459 0.64663,-0.03459c0.26849,0 0.48755,0.01169 0.65743,0.03459c0.17539,0.02314 0.30688,0.05773 0.40549,0.10961c0.09861,0.05164 0.16436,0.10937 0.20827,0.17855c0.04367,0.06333 0.06574,0.13811 0.06574,0.21898l0,3.60623l9.29255,0zm1.12867,-4.70088c0,0.6567 -0.12045,1.10026 -0.35607,1.33653c-0.23562,0.23627 -0.66847,0.35709 -1.30406,0.35709c-0.62456,0 -1.05189,-0.11521 -1.28199,-0.34564c-0.23034,-0.23043 -0.34503,-0.66814 -0.34503,-1.31339c0,-0.65694 0.12045,-1.1005 0.35607,-1.33653c0.23538,-0.23627 0.66823,-0.35733 1.30406,-0.35733c0.62456,0 1.05189,0.11521 1.28199,0.34564c0.2301,0.23043 0.34503,0.66839 0.34503,1.31364z" fill="#FEFEFE" fill-rule="nonzero"/>
    <path stroke="null" id="8" class="fil2" d="m138.98028,21.38095c0,0.19024 -0.00552,0.35709 -0.01656,0.49544c-0.01104,0.14396 -0.02759,0.25917 -0.05495,0.35709c-0.02711,0.09816 -0.06022,0.17879 -0.09861,0.25357c-0.03815,0.07502 -0.12045,0.18439 -0.25745,0.32275c-0.13149,0.14396 -0.36159,0.31666 -0.67926,0.52979c-0.3232,0.20753 -0.68502,0.39753 -1.085,0.55902c-0.40549,0.1671 -0.8381,0.29961 -1.30934,0.39753c-0.47124,0.10352 -0.95903,0.15541 -1.4629,0.15541c-1.04133,0 -1.96173,-0.17855 -2.76192,-0.54148c-0.80523,-0.35709 -1.47898,-0.88152 -2.0162,-1.57281c-0.5425,-0.69128 -0.95327,-1.54382 -1.23808,-2.5464c-0.28505,-1.00818 -0.42757,-2.16593 -0.42757,-3.48541c0,-1.49194 0.17539,-2.77659 0.52066,-3.85395c0.35055,-1.07152 0.82731,-1.95304 1.43003,-2.63848c0.60824,-0.68568 1.32062,-1.19258 2.13688,-1.52677c0.82179,-0.32835 1.70956,-0.49544 2.66283,-0.49544c0.4602,0 0.90409,0.04604 1.33693,0.13835c0.43837,0.08623 0.83282,0.20729 1.19993,0.35124c0.36183,0.1498 0.69054,0.3169 0.96983,0.51274c0.28505,0.19024 0.49307,0.35733 0.61904,0.48984c0.13149,0.13811 0.2193,0.24772 0.26849,0.3225c0.04391,0.08063 0.08782,0.17294 0.12069,0.28231c0.02735,0.10377 0.04943,0.22458 0.06022,0.36294c0.0108,0.13251 0.01656,0.30545 0.01656,0.50689c0,0.43796 -0.04943,0.74317 -0.14252,0.92196c-0.09861,0.1727 -0.21378,0.25917 -0.35607,0.25917c-0.15908,0 -0.34527,-0.09232 -0.55354,-0.28231c-0.20827,-0.18439 -0.47124,-0.39168 -0.79467,-0.61651c-0.3232,-0.22458 -0.71213,-0.43211 -1.16682,-0.61626c-0.45468,-0.19024 -0.99166,-0.28231 -1.61094,-0.28231c-1.27647,0 -2.25733,0.51274 -2.93684,1.54382c-0.6795,1.02548 -1.01926,2.51766 -1.01926,4.47045c0,0.97384 0.08782,1.83222 0.26297,2.56954c0.18091,0.73172 0.43837,1.34798 0.78364,1.84343c0.33975,0.48984 0.76156,0.85838 1.26015,1.1005c0.49859,0.24188 1.06844,0.36294 1.70956,0.36294c0.61352,0 1.15074,-0.10377 1.61094,-0.30545c0.46044,-0.20169 0.85466,-0.42627 1.19441,-0.67399c0.33975,-0.24188 0.62456,-0.46086 0.85466,-0.6567c0.23034,-0.20169 0.40573,-0.29961 0.53698,-0.29961c0.0715,0 0.137,0.0229 0.19195,0.06918c0.05471,0.04604 0.09861,0.12082 0.13676,0.22458c0.03863,0.10937 0.06598,0.24188 0.0823,0.40897c0.01656,0.16149 0.02207,0.35733 0.02207,0.58192z" fill="#FEFEFE" fill-rule="nonzero"/>
    <path stroke="null" id="9" class="fil2" d="m155.63123,15.94251c0,1.23861 -0.15332,2.37931 -0.46572,3.42208c-0.30688,1.03693 -0.7726,1.93574 -1.38612,2.69036c-0.61376,0.75486 -1.38636,1.34238 -2.30676,1.76304c-0.92592,0.42042 -1.99988,0.63356 -3.21612,0.63356c-1.18937,0 -2.2247,-0.18439 -3.10695,-0.55878c-0.88201,-0.36878 -1.61646,-0.91026 -2.20239,-1.61884c-0.58641,-0.70858 -1.02477,-1.57281 -1.31534,-2.58099c-0.29032,-1.01379 -0.43261,-2.16033 -0.43261,-3.44497c0,-1.23861 0.15332,-2.37931 0.45468,-3.41623c0.30664,-1.04277 0.76708,-1.94159 1.38084,-2.6962c0.61352,-0.75462 1.3806,-1.33653 2.30124,-1.7572c0.9204,-0.41458 1.99436,-0.62211 3.22164,-0.62211c1.18913,0 2.2247,0.18439 3.10671,0.55878c0.88201,0.36878 1.61646,0.91026 2.20263,1.61884c0.58617,0.70858 1.03005,1.56696 1.3259,2.58099c0.29032,1.01403 0.43837,2.15448 0.43837,3.42768zm-2.76144,0.17879c0,-0.82404 -0.07126,-1.60155 -0.21906,-2.33327c-0.14252,-0.73172 -0.38366,-1.37112 -0.71789,-1.92429c-0.32895,-0.55293 -0.78364,-0.99089 -1.35325,-1.30755c-0.56433,-0.32275 -1.27671,-0.484 -2.12609,-0.484c-0.7834,0 -1.45738,0.14396 -2.02171,0.43772c-0.56433,0.294 -1.02477,0.70858 -1.39188,1.24446c-0.36686,0.53588 -0.63535,1.16944 -0.81075,1.90115c-0.18067,0.73172 -0.26849,1.53237 -0.26849,2.3966c0,0.83524 0.07126,1.61884 0.21906,2.35032c0.14252,0.73172 0.38366,1.37112 0.72341,1.91845c0.33951,0.54148 0.79443,0.97944 1.35877,1.29634c0.56985,0.3225 1.28223,0.48375 2.13137,0.48375c0.7726,0 1.44107,-0.14396 2.01092,-0.43772c0.56985,-0.29376 1.03557,-0.70273 1.40268,-1.23277c0.3671,-0.53003 0.63559,-1.16383 0.80523,-1.89555c0.16988,-0.73148 0.25769,-1.53797 0.25769,-2.41365z" fill="#FEFEFE" fill-rule="nonzero"/>
    <path stroke="null" id="10" class="fil2" d="m180.03553,8.69522c0,1.09466 -0.16988,2.0797 -0.51515,2.96122c-0.33951,0.87568 -0.82731,1.62469 -1.46842,2.2468c-0.63559,0.61651 -1.41371,1.09466 -2.33963,1.43445c-0.92592,0.3398 -2.02723,0.50689 -3.31498,0.50689l-2.35595,0l0,7.85819c0,0.09207 -0.02183,0.1727 -0.07126,0.23603c-0.04919,0.06918 -0.12597,0.12106 -0.22458,0.16125c-0.10413,0.04043 -0.2409,0.07502 -0.41629,0.10377c-0.18091,0.02874 -0.40022,0.04043 -0.66871,0.04043c-0.26849,0 -0.48755,-0.01169 -0.66823,-0.04043c-0.17539,-0.02874 -0.31792,-0.06333 -0.42181,-0.10377c-0.10965,-0.04019 -0.18115,-0.09207 -0.22482,-0.16125c-0.04391,-0.06333 -0.06574,-0.14396 -0.06574,-0.23603l0,-20.15784c0,-0.44941 0.11517,-0.77191 0.33975,-0.96215c0.22458,-0.18999 0.47124,-0.28791 0.75076,-0.28791l4.44341,0c0.44916,0 0.88225,0.01729 1.29326,0.05749c0.41077,0.04043 0.89833,0.12691 1.45738,0.25357c0.56433,0.13251 1.13419,0.37438 1.72035,0.72587c0.58089,0.35709 1.07396,0.79505 1.48497,1.31339c0.40549,0.51859 0.71765,1.1178 0.93696,1.79763c0.21906,0.67959 0.32871,1.43445 0.32871,2.2524zm-2.89317,0.23043c0,-0.89297 -0.15884,-1.63614 -0.47124,-2.2351c-0.31744,-0.59336 -0.70686,-1.04277 -1.17785,-1.33653c-0.46572,-0.28816 -0.94775,-0.47815 -1.44107,-0.55317c-0.49859,-0.08063 -0.98614,-0.12106 -1.45738,-0.12106l-2.55342,0l0,8.7799l2.49319,0c0.83282,0 1.5284,-0.11521 2.07642,-0.34004c0.55354,-0.22458 1.01374,-0.53564 1.39188,-0.93901c0.37238,-0.39753 0.65743,-0.87568 0.84914,-1.43445c0.19195,-0.55878 0.29032,-1.16359 0.29032,-1.82053z" fill="#FEFEFE" fill-rule="nonzero"/>
    <path stroke="null" id="11" class="fil2" d="m196.7196,15.94251c0,1.23861 -0.15332,2.37931 -0.46572,3.42208c-0.30688,1.03693 -0.7726,1.93574 -1.38612,2.69036c-0.61376,0.75486 -1.38636,1.34238 -2.30676,1.76304c-0.92592,0.42042 -2.00012,0.63356 -3.21636,0.63356c-1.18913,0 -2.22446,-0.18439 -3.10671,-0.55878c-0.88201,-0.36878 -1.61646,-0.91026 -2.20239,-1.61884c-0.58641,-0.70858 -1.02477,-1.57281 -1.31534,-2.58099c-0.29032,-1.01379 -0.43261,-2.16033 -0.43261,-3.44497c0,-1.23861 0.15332,-2.37931 0.45468,-3.41623c0.30664,-1.04277 0.76708,-1.94159 1.3806,-2.6962c0.61376,-0.75462 1.38084,-1.33653 2.30148,-1.7572c0.9204,-0.41458 1.99436,-0.62211 3.22164,-0.62211c1.18913,0 2.2247,0.18439 3.10671,0.55878c0.88201,0.36878 1.61646,0.91026 2.20263,1.61884c0.58617,0.70858 1.03005,1.56696 1.3259,2.58099c0.29032,1.01403 0.43837,2.15448 0.43837,3.42768zm-2.76144,0.17879c0,-0.82404 -0.07126,-1.60155 -0.21906,-2.33327c-0.14252,-0.73172 -0.38366,-1.37112 -0.71789,-1.92429c-0.32895,-0.55293 -0.78364,-0.99089 -1.35325,-1.30755c-0.56433,-0.32275 -1.27671,-0.484 -2.12609,-0.484c-0.7834,0 -1.45738,0.14396 -2.02171,0.43772c-0.56433,0.294 -1.02477,0.70858 -1.39188,1.24446c-0.36686,0.53588 -0.63535,1.16944 -0.81075,1.90115c-0.18067,0.73172 -0.26849,1.53237 -0.26849,2.3966c0,0.83524 0.07126,1.61884 0.21906,2.35032c0.14252,0.73172 0.38366,1.37112 0.72317,1.91845c0.33975,0.54148 0.79467,0.97944 1.35901,1.29634c0.56961,0.3225 1.28199,0.48375 2.13137,0.48375c0.7726,0 1.44107,-0.14396 2.01092,-0.43772c0.56985,-0.29376 1.03557,-0.70273 1.40268,-1.23277c0.3671,-0.53003 0.63559,-1.16383 0.80523,-1.89555c0.16988,-0.73148 0.25769,-1.53797 0.25769,-2.41365z" fill="#FEFEFE" fill-rule="nonzero"/>
    <path stroke="null" id="12" class="fil2" d="m209.0915,9.50757c0,0.24772 -0.00552,0.45501 -0.01632,0.62211c-0.01104,0.1671 -0.03311,0.29961 -0.06598,0.39753c-0.02735,0.09792 -0.07102,0.1671 -0.12045,0.21898c-0.04367,0.05188 -0.10941,0.07502 -0.19699,0.07502c-0.08782,0 -0.19195,-0.02314 -0.31264,-0.07502c-0.12597,-0.05188 -0.26297,-0.10377 -0.41629,-0.1498c-0.15332,-0.05188 -0.32871,-0.09792 -0.52042,-0.14396c-0.19195,-0.04604 -0.39998,-0.06918 -0.6248,-0.06918c-0.26849,0 -0.53122,0.05773 -0.78892,0.1671c-0.25217,0.11521 -0.52594,0.29961 -0.80547,0.56462c-0.28481,0.25917 -0.58089,0.60481 -0.89305,1.03108c-0.30688,0.43211 -0.65191,0.9563 -1.02477,1.57865l0,9.99513c0,0.09232 -0.02183,0.1671 -0.0655,0.23067c-0.04415,0.05749 -0.10965,0.11521 -0.20827,0.16125c-0.09861,0.04019 -0.2301,0.07478 -0.40549,0.09792c-0.16988,0.0229 -0.38894,0.03459 -0.65743,0.03459c-0.26321,0 -0.47676,-0.01169 -0.64663,-0.03459c-0.17539,-0.02314 -0.31216,-0.05773 -0.41101,-0.09792c-0.10389,-0.04604 -0.17539,-0.10377 -0.21354,-0.16125c-0.03839,-0.06357 -0.05495,-0.13835 -0.05495,-0.23067l0,-15.1973c0,-0.09232 0.01656,-0.1671 0.04943,-0.23043c0.03287,-0.05773 0.0931,-0.11521 0.19171,-0.1671c0.09861,-0.05188 0.2193,-0.08647 0.37262,-0.10377c0.14804,-0.01729 0.35079,-0.02314 0.5972,-0.02314c0.23562,0 0.43285,0.00585 0.58641,0.02314c0.1586,0.01729 0.27929,0.05188 0.36686,0.10377c0.0823,0.05188 0.14804,0.10937 0.18643,0.1671c0.03287,0.06333 0.05471,0.13811 0.05471,0.23043l0,2.21221c0.3947,-0.61066 0.76708,-1.1061 1.11235,-1.49218c0.35079,-0.38023 0.6795,-0.68544 0.98614,-0.90442c0.3124,-0.21898 0.61928,-0.36878 0.92064,-0.45525c0.30664,-0.08623 0.61376,-0.12666 0.92592,-0.12666c0.137,0 0.29584,0.00585 0.47124,0.02314c0.17539,0.01729 0.36159,0.05188 0.5533,0.09207c0.19171,0.04604 0.3671,0.09792 0.52042,0.15565c0.1538,0.05749 0.26321,0.10937 0.32895,0.1671c0.06574,0.05749 0.10941,0.10937 0.12597,0.16125c0.02207,0.05188 0.04391,0.11521 0.06046,0.18999c0.01632,0.08063 0.02735,0.19584 0.03263,0.34564c0.00552,0.15565 0.00552,0.35733 0.00552,0.61651z" fill="#FEFEFE" fill-rule="nonzero"/>
    <path stroke="null" id="13" class="fil2" d="m222.59208,23.70277c0,0.09207 -0.02183,0.1727 -0.0655,0.23603c-0.04415,0.06918 -0.11517,0.12106 -0.22482,0.16125c-0.10413,0.04043 -0.24642,0.07502 -0.42181,0.10377c-0.18091,0.02874 -0.39998,0.04043 -0.66847,0.04043c-0.25745,0 -0.47652,-0.01169 -0.65767,-0.04043c-0.18067,-0.02874 -0.32871,-0.06333 -0.43261,-0.10377c-0.10965,-0.04019 -0.18091,-0.09207 -0.22482,-0.16125c-0.04367,-0.06333 -0.06574,-0.14396 -0.06574,-0.23603l0,-20.97018c0,-0.09207 0.02207,-0.1727 0.07126,-0.23603c0.04943,-0.06918 0.13149,-0.12106 0.24114,-0.16149c0.11493,-0.04019 0.25745,-0.07478 0.43285,-0.10352c0.17539,-0.02899 0.38894,-0.04043 0.63559,-0.04043c0.26849,0 0.48755,0.01145 0.66847,0.04043c0.17539,0.02874 0.31768,0.06333 0.42181,0.10352c0.10965,0.04043 0.18067,0.09232 0.22482,0.16149c0.04367,0.06333 0.0655,0.14396 0.0655,0.23603l0,20.97018z" fill="#FEFEFE" fill-rule="nonzero"/>
    <path stroke="null" id="14" class="fil2" d="m249.25395,23.71983c0,0.09232 -0.02183,0.1671 -0.0655,0.23067c-0.04415,0.05749 -0.10965,0.11521 -0.20827,0.16125c-0.09334,0.04019 -0.23034,0.07478 -0.40022,0.09792c-0.16988,0.0229 -0.38342,0.03459 -0.64087,0.03459c-0.26873,0 -0.48779,-0.01169 -0.65767,-0.03459c-0.16964,-0.02314 -0.30688,-0.05773 -0.41101,-0.09792c-0.09861,-0.04604 -0.16964,-0.10377 -0.21354,-0.16125c-0.04367,-0.06357 -0.06574,-0.13835 -0.06574,-0.23067l0,-9.23467c0,-0.64525 -0.05495,-1.23301 -0.15884,-1.7572c-0.10965,-0.53003 -0.27953,-0.98504 -0.51515,-1.37112c-0.23562,-0.38023 -0.53146,-0.67399 -0.89305,-0.87568c-0.36159,-0.20169 -0.78892,-0.30521 -1.28223,-0.30521c-0.608,0 -1.22176,0.24772 -1.83,0.74317c-0.61352,0.49544 -1.29302,1.22132 -2.02723,2.17762l0,10.62308c0,0.09232 -0.02207,0.1671 -0.06574,0.23067c-0.04391,0.05749 -0.11517,0.11521 -0.2193,0.16125c-0.09861,0.04019 -0.23562,0.07478 -0.41077,0.09792c-0.16988,0.0229 -0.38342,0.03459 -0.64111,0.03459c-0.25217,0 -0.46044,-0.01169 -0.64111,-0.03459c-0.17539,-0.02314 -0.31768,-0.05773 -0.41653,-0.09792c-0.10389,-0.04604 -0.17539,-0.10377 -0.21354,-0.16125c-0.03839,-0.06357 -0.05495,-0.13835 -0.05495,-0.23067l0,-9.23467c0,-0.64525 -0.06022,-1.23301 -0.17515,-1.7572c-0.12069,-0.53003 -0.29608,-0.98504 -0.5317,-1.37112c-0.23538,-0.38023 -0.53122,-0.67399 -0.88729,-0.87568c-0.36183,-0.20169 -0.78364,-0.30521 -1.27695,-0.30521c-0.608,0 -1.22728,0.24772 -1.84632,0.74317c-0.61928,0.49544 -1.29302,1.22132 -2.02195,2.17762l0,10.62308c0,0.09232 -0.02183,0.1671 -0.0655,0.23067c-0.04415,0.05749 -0.10965,0.11521 -0.20827,0.16125c-0.09861,0.04019 -0.2301,0.07478 -0.40549,0.09792c-0.16988,0.0229 -0.38894,0.03459 -0.65743,0.03459c-0.26321,0 -0.47676,-0.01169 -0.64663,-0.03459c-0.17539,-0.02314 -0.31216,-0.05773 -0.41101,-0.09792c-0.10389,-0.04604 -0.17539,-0.10377 -0.21354,-0.16125c-0.03839,-0.06357 -0.05495,-0.13835 -0.05495,-0.23067l0,-15.1973c0,-0.09232 0.01656,-0.1671 0.04943,-0.23043c0.03287,-0.05773 0.0931,-0.11521 0.19171,-0.1671c0.09861,-0.05188 0.2193,-0.08647 0.37262,-0.10377c0.14804,-0.01729 0.35079,-0.02314 0.5972,-0.02314c0.23562,0 0.43285,0.00585 0.58641,0.02314c0.1586,0.01729 0.27929,0.05188 0.36686,0.10377c0.0823,0.05188 0.14804,0.10937 0.18643,0.1671c0.03287,0.06333 0.05471,0.13811 0.05471,0.23043l0,2.01052c0.81099,-0.96215 1.60566,-1.66488 2.3725,-2.10844c0.76156,-0.44381 1.53968,-0.66839 2.3178,-0.66839c0.60272,0 1.1397,0.07502 1.61622,0.21898c0.47676,0.1498 0.89857,0.35149 1.26015,0.61651c0.36734,0.26477 0.6795,0.58167 0.93168,0.95046c0.25745,0.36294 0.47124,0.77191 0.64663,1.22716c0.48203,-0.55317 0.93672,-1.01988 1.36956,-1.40571c0.43285,-0.38608 0.84914,-0.69128 1.24936,-0.9334c0.39974,-0.23603 0.78915,-0.40897 1.16706,-0.51274c0.38342,-0.10937 0.76156,-0.16125 1.14522,-0.16125c0.9312,0 1.70932,0.17294 2.33963,0.51274c0.63008,0.34564 1.13946,0.8065 1.53392,1.37697c0.38918,0.57607 0.66319,1.25006 0.83306,2.02197c0.16436,0.77191 0.24642,1.58425 0.24642,2.44264l0,9.60929z" fill="#FEFEFE" fill-rule="nonzero"/>
    <path stroke="null" id="15" class="fil2" d="m264.96267,23.73712c0,0.13251 -0.04367,0.23627 -0.12597,0.30545c-0.08758,0.06918 -0.20275,0.11521 -0.35607,0.1498c-0.14804,0.03459 -0.3671,0.05188 -0.65743,0.05188c-0.27401,0 -0.49859,-0.01729 -0.66295,-0.05188c-0.1646,-0.03459 -0.28505,-0.08063 -0.36183,-0.1498c-0.07654,-0.06918 -0.11517,-0.1671 -0.11517,-0.30545l0,-1.52068c-0.63008,0.70858 -1.33117,1.26151 -2.10929,1.65319c-0.77812,0.38608 -1.5999,0.58192 -2.4656,0.58192c-0.76156,0 -1.4521,-0.10377 -2.06562,-0.31105c-0.61376,-0.20729 -1.1397,-0.51274 -1.57255,-0.90442c-0.43285,-0.39192 -0.7726,-0.88152 -1.01374,-1.45175c-0.24114,-0.57607 -0.36159,-1.22716 -0.36159,-1.95888c0,-0.85838 0.16436,-1.60155 0.49859,-2.2295c0.32871,-0.63356 0.80547,-1.15799 1.43003,-1.57256c0.61928,-0.41482 1.38084,-0.73172 2.27941,-0.93925c0.89857,-0.20729 1.9123,-0.31105 3.03545,-0.31105l1.9946,0l0,-1.18673c0,-0.58192 -0.06022,-1.10026 -0.17539,-1.55551c-0.12045,-0.44941 -0.30712,-0.82379 -0.56985,-1.1234c-0.26297,-0.29961 -0.60296,-0.52419 -1.01926,-0.67399c-0.41629,-0.15541 -0.93144,-0.23043 -1.53968,-0.23043c-0.65191,0 -1.23808,0.08063 -1.75322,0.24772c-0.52042,0.1671 -0.97535,0.34564 -1.36429,0.54733c-0.38918,0.20169 -0.71789,0.38023 -0.98087,0.54733c-0.25769,0.1671 -0.45468,0.24772 -0.58065,0.24772c-0.08758,0 -0.1646,-0.02314 -0.22482,-0.06918c-0.06574,-0.04043 -0.12045,-0.10937 -0.16988,-0.20169c-0.04919,-0.08647 -0.08206,-0.20169 -0.10389,-0.3398c-0.02207,-0.1442 -0.03287,-0.29376 -0.03287,-0.4667c0,-0.27647 0.01632,-0.50129 0.05471,-0.66254c0.03839,-0.16125 0.13149,-0.3169 0.27401,-0.46086c0.14252,-0.14396 0.39446,-0.3169 0.74501,-0.51859c0.35079,-0.19584 0.7618,-0.38023 1.222,-0.54708c0.45468,-0.16149 0.95879,-0.29961 1.50681,-0.40922c0.54226,-0.10937 1.0958,-0.16125 1.64909,-0.16125c1.03557,0 1.91782,0.12106 2.64651,0.36878c0.72869,0.24772 1.31486,0.61626 1.76426,1.09441c0.44916,0.47839 0.7726,1.07176 0.97535,1.78034c0.20275,0.70858 0.30664,1.53822 0.30664,2.48283l0,10.25454zm-2.62972,-6.95913l-2.26309,0c-0.72317,0 -1.35325,0.06333 -1.89023,0.19584c-0.53146,0.12666 -0.97535,0.3225 -1.33141,0.57607c-0.35079,0.25357 -0.60824,0.55317 -0.77812,0.91026c-0.16436,0.35709 -0.24666,0.76631 -0.24666,1.22716c0,0.7892 0.23562,1.41716 0.71237,1.88386c0.47652,0.46646 1.1397,0.70273 1.99988,0.70273c0.6903,0 1.33693,-0.18439 1.92886,-0.55878c0.59169,-0.36878 1.21624,-0.93901 1.86839,-1.70531l0,-3.23184z" fill="#FEFEFE" fill-rule="nonzero"/>
    <path stroke="null" id="16" class="fil2" d="m281.89339,9.2311c0,0.39753 -0.04943,0.67984 -0.15332,0.85838c-0.09861,0.1727 -0.23034,0.25917 -0.39446,0.25917l-2.07666,0c0.3779,0.40337 0.64087,0.84693 0.78892,1.33093c0.1478,0.48375 0.22458,0.99089 0.22458,1.51508c0,0.87568 -0.13149,1.65343 -0.39998,2.32742c-0.26849,0.67399 -0.65215,1.24446 -1.15074,1.71092c-0.49835,0.47255 -1.09004,0.82964 -1.77506,1.07736c-0.68478,0.24772 -1.44658,0.36878 -2.27941,0.36878c-0.58617,0 -1.1505,-0.08063 -1.67668,-0.24212c-0.53146,-0.1671 -0.94248,-0.36854 -1.23256,-0.61626c-0.18091,0.20144 -0.32895,0.43211 -0.4494,0.69128c-0.11517,0.26502 -0.17539,0.56462 -0.17539,0.89857c0,0.39753 0.17539,0.72587 0.52042,0.98529c0.34527,0.26502 0.81123,0.40313 1.38636,0.42627l3.76414,0.1671c0.71237,0.0229 1.3698,0.12666 1.96701,0.31105c0.5972,0.18999 1.11787,0.44941 1.55624,0.79505c0.43813,0.3398 0.77788,0.76606 1.02453,1.26151c0.24642,0.50129 0.36686,1.08321 0.36686,1.74575c0,0.69713 -0.13676,1.35943 -0.41629,1.98738c-0.27929,0.62795 -0.7011,1.18113 -1.27671,1.65928c-0.56985,0.47815 -1.30406,0.85838 -2.19135,1.12924c-0.88777,0.27647 -1.93438,0.41458 -3.1451,0.41458c-1.1673,0 -2.15896,-0.10352 -2.97547,-0.31105c-0.81627,-0.20729 -1.49025,-0.49544 -2.0162,-0.85254c-0.52042,-0.36294 -0.90409,-0.7892 -1.1397,-1.2905c-0.23562,-0.50129 -0.35055,-1.04838 -0.35055,-1.63029c0,-0.37463 0.04391,-0.73172 0.12597,-1.08321c0.08758,-0.34564 0.2193,-0.67959 0.39446,-0.99649c0.17515,-0.31105 0.39446,-0.61651 0.65767,-0.89882c0.26297,-0.28791 0.56433,-0.57022 0.90936,-0.85254c-0.52042,-0.28231 -0.90409,-0.63965 -1.15626,-1.06591c-0.24642,-0.42627 -0.37238,-0.88712 -0.37238,-1.38257c0,-0.68544 0.13149,-1.30194 0.39446,-1.84343c0.26297,-0.53588 0.58641,-1.01988 0.97535,-1.45175c-0.32871,-0.41482 -0.59193,-0.88152 -0.7834,-1.40571c-0.19195,-0.52443 -0.29056,-1.15799 -0.29056,-1.90115c0,-0.86423 0.13676,-1.64198 0.41653,-2.32742c0.27929,-0.68568 0.66271,-1.2676 1.15602,-1.7399c0.49307,-0.4723 1.08476,-0.83524 1.7753,-1.08881c0.6903,-0.25357 1.44634,-0.38023 2.25733,-0.38023c0.44388,0 0.84914,0.02874 1.2328,0.08063c0.37814,0.05773 0.73421,0.13251 1.06844,0.23043l4.36711,0c0.18619,0 0.31768,0.09232 0.41077,0.27647c0.09334,0.19024 0.137,0.47255 0.137,0.85278zm-4.14228,3.98646c0,-1.03108 -0.26849,-1.83758 -0.81099,-2.41365c-0.54226,-0.58192 -1.30934,-0.87007 -2.30124,-0.87007c-0.51491,0 -0.96431,0.09232 -1.34245,0.27086c-0.3779,0.17855 -0.69558,0.42627 -0.94775,0.73732c-0.25193,0.3169 -0.43837,0.67984 -0.55905,1.08881c-0.12597,0.40897 -0.18619,0.84109 -0.18619,1.2905c0,0.99674 0.26849,1.78009 0.81099,2.35616c0.5425,0.57047 1.29854,0.85838 2.27389,0.85838c0.52042,0 0.97535,-0.08623 1.36429,-0.25917c0.38342,-0.17855 0.70134,-0.41482 0.95327,-0.72587c0.25217,-0.31105 0.43837,-0.66814 0.55881,-1.07152c0.12597,-0.40337 0.18643,-0.82379 0.18643,-1.26175zm1.3151,12.02319c0,-0.65085 -0.25217,-1.15214 -0.7618,-1.50923c-0.50411,-0.35149 -1.19441,-0.54148 -2.05986,-0.56462l-3.73151,-0.13251c-0.33975,0.28231 -0.62456,0.54733 -0.84386,0.80065c-0.21906,0.25357 -0.38894,0.48984 -0.52042,0.72027c-0.12597,0.23043 -0.21354,0.46086 -0.26297,0.68544c-0.04943,0.22483 -0.07126,0.45525 -0.07126,0.68568c0,0.73172 0.35055,1.28465 1.05741,1.65903c0.70686,0.37463 1.68748,0.56462 2.94787,0.56462c0.79995,0 1.4737,-0.08063 2.01068,-0.24188c0.54274,-0.1671 0.97535,-0.38023 1.30406,-0.65109c0.33447,-0.27062 0.57009,-0.57607 0.71789,-0.92171c0.14228,-0.35149 0.21378,-0.71442 0.21378,-1.09466z" fill="#FEFEFE" fill-rule="nonzero"/>
    <path stroke="null" id="17" class="fil2" d="m297.32258,15.45876c0,0.43772 -0.10389,0.74877 -0.31216,0.93901c-0.20827,0.18439 -0.4494,0.27647 -0.71789,0.27647l-9.49001,0c0,0.84693 0.0823,1.60739 0.24138,2.28139c0.15884,0.67984 0.42709,1.26175 0.80523,1.74551c0.37262,0.484 0.86042,0.85278 1.45762,1.11195c0.60248,0.25917 1.33669,0.39168 2.20239,0.39168c0.68502,0 1.29878,-0.05749 1.83024,-0.17855c0.53698,-0.11521 1.0027,-0.24772 1.39164,-0.39168c0.38894,-0.1442 0.71237,-0.27671 0.96431,-0.39192c0.25217,-0.12082 0.43837,-0.17855 0.56985,-0.17855c0.07678,0 0.14228,0.01729 0.20275,0.05773c0.05471,0.04019 0.10413,0.09792 0.13149,0.17855c0.03287,0.07478 0.06022,0.18439 0.07654,0.3225c0.01656,0.1442 0.02207,0.3113 0.02207,0.51274c0,0.1442 -0.00552,0.27086 -0.01656,0.38023c-0.0108,0.10377 -0.02183,0.20169 -0.03839,0.28231c-0.01608,0.08647 -0.04367,0.16149 -0.08206,0.23043c-0.03839,0.06333 -0.08206,0.12691 -0.14228,0.19024c-0.06022,0.06333 -0.23562,0.16125 -0.52066,0.29961c-0.29056,0.14396 -0.66295,0.27647 -1.12339,0.41482c-0.45996,0.13251 -0.99142,0.25332 -1.59439,0.35709c-0.60272,0.10937 -1.2436,0.16125 -1.92862,0.16125c-1.18913,0 -2.2247,-0.1727 -3.11775,-0.52419c-0.89305,-0.34564 -1.64357,-0.86423 -2.25182,-1.54967c-0.60824,-0.69128 -1.06844,-1.54967 -1.37532,-2.58684c-0.31216,-1.03108 -0.46572,-2.2351 -0.46572,-3.61207c0,-1.30194 0.15908,-2.47722 0.48227,-3.52c0.31768,-1.03693 0.7834,-1.92405 1.38612,-2.64992c0.60272,-0.72587 1.33693,-1.27905 2.19159,-1.67073c0.8549,-0.38608 1.81369,-0.58192 2.87133,-0.58192c1.13395,0 2.09849,0.19024 2.89293,0.57607c0.79995,0.38023 1.45186,0.89882 1.96701,1.54406c0.50963,0.64525 0.88777,1.40571 1.12867,2.28139c0.24114,0.86983 0.36159,1.80299 0.36159,2.79388l0,0.50714zm-2.66283,-0.82379c0.03287,-1.46344 -0.27401,-2.61558 -0.92592,-3.45082c-0.65215,-0.83548 -1.61094,-1.2503 -2.88741,-1.2503c-0.65767,0 -1.23304,0.12691 -1.72611,0.38608c-0.49307,0.25917 -0.90409,0.60481 -1.23832,1.03693c-0.33399,0.42627 -0.59169,0.92756 -0.7726,1.49218c-0.18067,0.57022 -0.28481,1.16359 -0.30688,1.78594l7.85724,0z" fill="#FEFEFE" fill-rule="nonzero"/>
    <path stroke="null" id="18" class="fil2" d="m313.80966,23.71983c0,0.09232 -0.02207,0.1671 -0.06574,0.23067c-0.04391,0.05749 -0.10965,0.11521 -0.20827,0.16125c-0.09861,0.04019 -0.2301,0.07478 -0.40549,0.09792c-0.16988,0.0229 -0.38342,0.03459 -0.64111,0.03459c-0.27401,0 -0.49307,-0.01169 -0.66295,-0.03459c-0.17539,-0.02314 -0.30664,-0.05773 -0.40549,-0.09792c-0.09861,-0.04604 -0.16436,-0.10377 -0.20827,-0.16125c-0.04367,-0.06357 -0.06574,-0.13835 -0.06574,-0.23067l0,-8.90072c0,-0.86398 -0.0655,-1.56696 -0.19147,-2.09115c-0.12621,-0.53003 -0.31264,-0.98504 -0.55905,-1.37112c-0.24666,-0.38023 -0.55881,-0.67399 -0.94775,-0.87568c-0.38918,-0.20169 -0.83834,-0.30521 -1.34821,-0.30521c-0.66271,0 -1.32038,0.24772 -1.97781,0.74317c-0.66319,0.49544 -1.35349,1.22132 -2.07666,2.17762l0,10.62308c0,0.09232 -0.02183,0.1671 -0.06574,0.23067c-0.04391,0.05749 -0.10941,0.11521 -0.20827,0.16125c-0.09861,0.04019 -0.22986,0.07478 -0.40525,0.09792c-0.16988,0.0229 -0.38894,0.03459 -0.65743,0.03459c-0.26321,0 -0.47676,-0.01169 -0.64663,-0.03459c-0.17539,-0.02314 -0.3124,-0.05773 -0.41101,-0.09792c-0.10413,-0.04604 -0.17539,-0.10377 -0.21354,-0.16125c-0.03863,-0.06357 -0.05495,-0.13835 -0.05495,-0.23067l0,-15.1973c0,-0.09232 0.01632,-0.1671 0.04943,-0.23043c0.03287,-0.05773 0.0931,-0.11521 0.19171,-0.1671c0.09837,-0.05188 0.21906,-0.08647 0.37262,-0.10377c0.14804,-0.01729 0.35055,-0.02314 0.5972,-0.02314c0.23562,0 0.43261,0.00585 0.58617,0.02314c0.15884,0.01729 0.27953,0.05188 0.3671,0.10377c0.0823,0.05188 0.14804,0.10937 0.18619,0.1671c0.03287,0.06333 0.05495,0.13811 0.05495,0.23043l0,2.01052c0.81075,-0.96215 1.61622,-1.66488 2.42721,-2.10844c0.80547,-0.44381 1.61622,-0.66839 2.43825,-0.66839c0.95879,0 1.76978,0.17294 2.42745,0.51274c0.65743,0.34564 1.18889,0.8065 1.59439,1.37697c0.40525,0.57607 0.69582,1.25006 0.87121,2.02197c0.17515,0.77191 0.26297,1.69947 0.26297,2.77683l0,9.2751z" fill="#FEFEFE" fill-rule="nonzero"/>
    <path stroke="null" id="19" class="fil2" d="m330.94841,15.45876c0,0.43772 -0.10413,0.74877 -0.3124,0.93901c-0.20827,0.18439 -0.44916,0.27647 -0.71765,0.27647l-9.49001,0c0,0.84693 0.0823,1.60739 0.24114,2.28139c0.15884,0.67984 0.42709,1.26175 0.80523,1.74551c0.37286,0.484 0.86042,0.85278 1.45762,1.11195c0.60272,0.25917 1.33669,0.39168 2.20263,0.39168c0.68502,0 1.29854,-0.05749 1.83,-0.17855c0.53698,-0.11521 1.0027,-0.24772 1.39164,-0.39168c0.38894,-0.1442 0.71237,-0.27671 0.96455,-0.39192c0.25193,-0.12082 0.43813,-0.17855 0.56985,-0.17855c0.07654,0 0.14228,0.01729 0.20275,0.05773c0.05471,0.04019 0.10389,0.09792 0.13125,0.17855c0.03287,0.07478 0.06022,0.18439 0.07678,0.3225c0.01632,0.1442 0.02183,0.3113 0.02183,0.51274c0,0.1442 -0.00552,0.27086 -0.01632,0.38023c-0.0108,0.10377 -0.02207,0.20169 -0.03839,0.28231c-0.01632,0.08647 -0.04391,0.16149 -0.08206,0.23043c-0.03839,0.06333 -0.0823,0.12691 -0.14252,0.19024c-0.06022,0.06333 -0.23562,0.16125 -0.52066,0.29961c-0.29032,0.14396 -0.66295,0.27647 -1.12315,0.41482c-0.4602,0.13251 -0.99166,0.25332 -1.59439,0.35709c-0.60272,0.10937 -1.24384,0.16125 -1.92862,0.16125c-1.18913,0 -2.2247,-0.1727 -3.11775,-0.52419c-0.89305,-0.34564 -1.64381,-0.86423 -2.25182,-1.54967c-0.60848,-0.69128 -1.06844,-1.54967 -1.37532,-2.58684c-0.3124,-1.03108 -0.46572,-2.2351 -0.46572,-3.61207c0,-1.30194 0.15884,-2.47722 0.48203,-3.52c0.31792,-1.03693 0.7834,-1.92405 1.38636,-2.64992c0.60248,-0.72587 1.33693,-1.27905 2.19159,-1.67073c0.85466,-0.38608 1.81369,-0.58192 2.87109,-0.58192c1.13419,0 2.09849,0.19024 2.89293,0.57607c0.79995,0.38023 1.4521,0.89882 1.96701,1.54406c0.50963,0.64525 0.88777,1.40571 1.12867,2.28139c0.24114,0.86983 0.36183,1.80299 0.36183,2.79388l0,0.50714zm-2.66283,-0.82379c0.03287,-1.46344 -0.27401,-2.61558 -0.92592,-3.45082c-0.65215,-0.83548 -1.61118,-1.2503 -2.88765,-1.2503c-0.65767,0 -1.2328,0.12691 -1.72611,0.38608c-0.49307,0.25917 -0.90385,0.60481 -1.23832,1.03693c-0.33399,0.42627 -0.59169,0.92756 -0.7726,1.49218c-0.18067,0.57022 -0.28457,1.16359 -0.30664,1.78594l7.85724,0z" fill="#FEFEFE" fill-rule="nonzero"/>
    <path stroke="null" id="20" class="fil2" d="m344.08188,19.57212c0,0.77776 -0.13676,1.46904 -0.41077,2.0797c-0.27401,0.60481 -0.65767,1.11755 -1.16178,1.53237c-0.50387,0.41482 -1.10107,0.73172 -1.79689,0.94485c-0.69606,0.21313 -1.46314,0.3225 -2.29596,0.3225c-0.51491,0 -1.0027,-0.04019 -1.46818,-0.12666c-0.46596,-0.08063 -0.88225,-0.18439 -1.25511,-0.3169c-0.36686,-0.12666 -0.67902,-0.25917 -0.93672,-0.39753c-0.25769,-0.13835 -0.44388,-0.26502 -0.55881,-0.37438c-0.12069,-0.10961 -0.20827,-0.27086 -0.25769,-0.47255c-0.05471,-0.20144 -0.08206,-0.47815 -0.08206,-0.8294c0,-0.21313 0.01104,-0.39192 0.03287,-0.53588c0.02183,-0.1498 0.04919,-0.26502 0.07654,-0.35709c0.03287,-0.09232 0.0823,-0.15565 0.13724,-0.19584c0.06022,-0.04043 0.12597,-0.05773 0.20275,-0.05773c0.11493,0 0.29032,0.07478 0.52042,0.23043c0.2301,0.1498 0.51515,0.3169 0.84914,0.49544c0.33423,0.17855 0.73445,0.34564 1.19441,0.49544c0.46044,0.15565 0.98638,0.23043 1.58359,0.23043c0.4494,0 0.85466,-0.05188 1.21648,-0.15541c0.3671,-0.09816 0.67926,-0.24772 0.94775,-0.44941c0.26873,-0.19584 0.47124,-0.44941 0.61904,-0.75486c0.14252,-0.30521 0.21402,-0.66814 0.21402,-1.08881c0,-0.42627 -0.10437,-0.7892 -0.3124,-1.07712c-0.20827,-0.294 -0.48227,-0.55317 -0.82203,-0.77776c-0.34503,-0.22483 -0.72869,-0.42627 -1.15602,-0.59921c-0.42733,-0.17294 -0.8657,-0.35709 -1.32038,-0.54733c-0.4494,-0.19584 -0.89305,-0.40897 -1.32614,-0.65085c-0.43261,-0.24212 -0.81627,-0.53588 -1.16154,-0.88737c-0.33951,-0.35124 -0.61376,-0.76606 -0.82203,-1.25006c-0.20803,-0.484 -0.31216,-1.06007 -0.31216,-1.7399c0,-0.59336 0.10941,-1.16359 0.32871,-1.71092c0.21906,-0.54733 0.54778,-1.02548 0.98638,-1.43445c0.44364,-0.40897 0.99166,-0.74317 1.64933,-0.99089c0.65743,-0.24772 1.42451,-0.36878 2.30652,-0.36878c0.38342,0 0.76708,0.03459 1.15602,0.10377c0.38366,0.06918 0.72893,0.16125 1.04109,0.26502c0.3124,0.10352 0.57537,0.21898 0.79443,0.3398c0.2193,0.12691 0.38894,0.23043 0.49859,0.32835c0.11517,0.09232 0.18643,0.17294 0.22482,0.23627c0.03839,0.06918 0.06574,0.14396 0.08206,0.23043c0.01656,0.08063 0.03311,0.18439 0.04943,0.30545c0.01656,0.12666 0.02183,0.27647 0.02183,0.45501c0,0.18999 -0.00528,0.35709 -0.02183,0.49544c-0.01632,0.13835 -0.04367,0.25357 -0.0823,0.3398c-0.03839,0.09232 -0.08206,0.15565 -0.13676,0.19608c-0.05495,0.04019 -0.11517,0.05749 -0.17539,0.05749c-0.09885,0 -0.23562,-0.06333 -0.42181,-0.18999c-0.18115,-0.12106 -0.41653,-0.25357 -0.70686,-0.39753c-0.29056,-0.1442 -0.63032,-0.27671 -1.01926,-0.39753c-0.38918,-0.12691 -0.83834,-0.19024 -1.34245,-0.19024c-0.44916,0 -0.84914,0.05188 -1.18889,0.16125c-0.34527,0.10377 -0.62456,0.25357 -0.84362,0.44941c-0.21954,0.19584 -0.38918,0.42627 -0.49883,0.69713c-0.11493,0.26502 -0.16988,0.55878 -0.16988,0.86983c0,0.43796 0.10965,0.80674 0.32344,1.1061c0.21354,0.29961 0.48731,0.55902 0.83258,0.7836c0.33975,0.22458 0.73445,0.42627 1.17282,0.61066c0.43813,0.17855 0.88201,0.36294 1.33693,0.55293c0.45468,0.19608 0.90385,0.40922 1.34773,0.64525c0.44388,0.23627 0.83834,0.52443 1.17809,0.85838c0.34503,0.34004 0.61904,0.74317 0.82731,1.21572c0.20827,0.4723 0.31216,1.03693 0.31216,1.68802z" fill="#FEFEFE" fill-rule="nonzero"/>
   </g>
  </g>
 </g>

</svg>