<svg width="300" height="90" xmlns="http://www.w3.org/2000/svg" xml:space="preserve" version="1.1" clip-rule="evenodd">
 <g>
  <title>Layer 1</title>
  <g stroke="null" id="Capa_x0020_1">
   <metadata stroke="null" id="CorelCorpID_0Corel-Layer"/>
   <g stroke="null" id="_2000269636032">
    <g stroke="null" id="svg_1">
     <path stroke="null" class="fil0" d="m241.31402,53.29934c2.39221,2.38197 14.02783,8.72395 17.62092,10.7029l4.59648,-13.61269c5.12418,3.36948 10.18033,7.34328 15.39731,10.5488l14.4036,-4.42594c-2.55881,-2.88785 -25.48773,-16.02818 -25.93363,-17.8482c-0.32898,-1.34262 7.42314,-21.27344 7.25576,-24.31358l-14.58776,4.62705c-1.72892,4.23762 -1.44562,8.70301 -3.26022,12.95039c-3.45705,-1.31444 -7.95017,-6.13564 -11.29931,-8.43698l-15.18826,4.69811c10.583,-1.31745 19.5969,8.95907 16.70434,18.06913c-1.42617,4.49167 -3.33558,3.81688 -5.70922,7.04102z" fill="#552D91" id="svg_2"/>
     <path stroke="null" class="fil0" d="m235.16545,74.67131l11.1726,-3.55025c-0.8569,-1.5092 -6.25304,-4.99665 -8.18257,-6.34248c-2.41688,-1.68615 -6.65004,-4.98577 -8.68281,-5.79523l5.69278,15.68797z" fill="#552D91" id="svg_3"/>
     <path stroke="null" class="fil0" d="m226.14299,50.83373c4.87511,-1.5855 9.46736,-3.3411 7.61074,-8.24685c-1.86262,-4.92186 -6.52445,-3.94129 -11.63329,-2.39475l4.02254,10.6416z" fill="#552D91" id="svg_4"/>
     <path stroke="null" class="fil1" d="m78.33087,51.24439l0.11192,28.77344l-11.07536,0.45596l-0.11181,-28.97615l-11.63462,0.25335l-0.7831,-10.13149l35.12759,-0.75993l0.89502,10.13149l-12.52964,0.25335zm33.16994,29.2294c-3.84094,0 -7.45815,-0.92038 -10.85152,-2.76093c-3.39348,-1.84055 -6.10633,-4.27204 -8.13867,-7.29467c-2.03233,-3.02253 -3.0485,-6.23931 -3.0485,-9.65016c0,-3.41095 1.01617,-6.61083 3.0485,-9.59963c2.03233,-2.98881 4.74518,-5.36967 8.13867,-7.14268c3.39337,-1.77301 7.01058,-2.65957 10.85152,-2.65957c3.8037,0 7.38357,0.88656 10.73971,2.65957c3.35614,1.77301 6.03176,4.14542 8.02675,7.11732c1.9951,2.9719 2.99259,6.18023 2.99259,9.625c0,3.47839 -0.99749,6.72889 -2.99259,9.75152c-1.99499,3.02253 -4.67061,5.43721 -8.02675,7.24404c-3.35614,1.80673 -6.936,2.7102 -10.73971,2.7102zm-0.33565,-10.13149c1.97643,0 3.79437,-0.42224 5.45371,-1.26652c1.65945,-0.84428 2.98326,-1.99254 3.97153,-3.44467c0.98816,-1.45223 1.48229,-3.07326 1.48229,-4.86308c0,-1.7562 -0.49413,-3.34341 -1.48229,-4.76182c-0.98827,-1.41841 -2.3213,-2.52449 -3.99942,-3.31815c-1.67812,-0.79355 -3.54263,-1.19043 -5.59364,-1.19043c-1.93908,0 -3.70101,0.39688 -5.28589,1.19043c-1.58488,0.79365 -2.82477,1.89128 -3.71968,3.29278c-0.89502,1.4015 -1.34248,2.98035 -1.34248,4.73646c0,1.82364 0.45679,3.47003 1.37037,4.93907c0.91358,1.46914 2.16281,2.6174 3.74769,3.44477c1.58488,0.82737 3.38415,1.24116 5.39781,1.24116zm59.06834,9.87814l-1.17477,-22.74519l-5.3698,22.74519l-11.18716,0l-6.20892,-21.27615l-0.27963,20.71894l-11.18716,0.05063l0,-38.39834l8.05475,0.45596l8.55822,0.25324l6.26482,20.36423l4.25105,-20.66821l10.85163,0l6.65637,0l1.95765,38.14509l-11.18705,0.3546zm40.4975,-8.56109l-14.20766,-0.05063l-3.57998,8.0545l-11.18716,-4.15397l18.34701,-33.88976l11.18716,0.10126l13.14492,35.96685l-11.18716,2.43149l-2.51713,-8.45973zm-3.02049,-10.13149l-2.68495,-9.11841l-4.02732,9.06778l6.71228,0.05063z" fill="#AACD46" fill-rule="nonzero" id="svg_5"/>
     <path stroke="null" class="fil2" d="m30.00591,83.955c-4.17147,0 -8.31738,-0.81771 -12.43795,-2.45323c-4.12057,-1.63552 -7.50349,-3.81236 -10.14888,-6.53051l10.30148,-10.22771c1.62789,1.65857 3.5483,2.96002 5.76113,3.90445c2.21294,0.94453 4.43854,1.4167 6.67682,1.4167c2.03489,0 3.68823,-0.34554 4.95991,-1.03653c1.2719,-0.69109 1.90774,-1.49732 1.90774,-2.41881c0,-0.92138 -0.6105,-1.58942 -1.83139,-2.00401c-1.22089,-0.41469 -2.79787,-0.62194 -4.73107,-0.62194c-3.76436,0 -7.23631,-0.71414 -10.41584,-2.14231c-3.17942,-1.42817 -5.7229,-3.39766 -7.63064,-5.90857c-1.90763,-2.5109 -2.86156,-5.33273 -2.86156,-8.46547c0,-3.22504 0.99205,-6.12739 2.97603,-8.70744c1.98399,-2.57995 4.65471,-4.60702 8.01219,-6.08129c3.35747,-1.47427 7.02025,-2.21136 10.98822,-2.21136c4.01876,0 7.93583,0.70256 11.75121,2.10769c3.81537,1.40512 7.17285,3.42081 10.07253,6.04676l-8.62269,10.57326c-4.78186,-3.17884 -9.30943,-4.76836 -13.5826,-4.76836c-1.88229,0 -3.51018,0.29944 -4.88367,0.89843c-1.37349,0.59889 -2.06034,1.31303 -2.06034,2.14231c0,0.87528 0.814,1.53185 2.44189,1.96949c1.62789,0.43764 3.56097,0.65656 5.79925,0.65656c4.06978,0 7.7071,0.57584 10.91187,1.72762c3.20499,1.15178 5.72312,2.85635 7.5544,5.11381c1.83139,2.25746 2.74708,4.99866 2.74708,8.2237c0,3.45524 -1.08107,6.6226 -3.243,9.502c-2.16203,2.8795 -5.04904,5.14843 -8.66092,6.807c-3.61187,1.65857 -7.52894,2.48775 -11.75121,2.48775z" fill="#552D91" fill-rule="nonzero" id="svg_6"/>
    </g>
    <path stroke="null" class="fil3" d="m16.66127,11.40903c0,0.97493 -0.13326,1.82797 -0.39933,2.5562c-0.26629,0.73125 -0.65596,1.33457 -1.1661,1.81317c-0.51036,0.47851 -1.13764,0.83814 -1.87929,1.07589c-0.74465,0.23784 -1.62878,0.35672 -2.6555,0.35672l-2.54447,0c-0.14259,0 -0.27897,-0.04459 -0.40567,-0.13377c-0.1267,-0.0921 -0.19016,-0.24962 -0.19016,-0.47559l0,-10.05227c0,-0.22587 0.06346,-0.38339 0.19016,-0.47559c0.1267,-0.08918 0.26307,-0.13377 0.40567,-0.13377l2.71874,0c1.04262,0 1.92041,0.12491 2.63972,0.37755c0.7162,0.25264 1.31825,0.61821 1.80627,1.09078c0.4848,0.47257 0.85245,1.04629 1.10286,1.72097c0.25018,0.67176 0.3771,1.4326 0.3771,2.2797zm-1.67323,0.06542c0,-0.60936 -0.07913,-1.17704 -0.24084,-1.70316c-0.16171,-0.52602 -0.41511,-0.98077 -0.75732,-1.36426c-0.34543,-0.38339 -0.77966,-0.68062 -1.3088,-0.89763c-0.52603,-0.21399 -1.20411,-0.32098 -2.03433,-0.32098l-1.62889,0l0,8.77417l1.64467,0c0.76999,0 1.4165,-0.08908 1.94575,-0.27046c0.52603,-0.17836 0.96637,-0.45475 1.31814,-0.82627c0.35499,-0.37151 0.62117,-0.83824 0.79544,-1.39999c0.17749,-0.55873 0.26618,-1.22455 0.26618,-1.99143z" fill="#552D91" fill-rule="nonzero" id="svg_7"/>
    <path stroke="null" id="1" class="fil3" d="m20.48598,16.99399c0,0.04761 -0.01267,0.08626 -0.03801,0.11897c-0.02545,0.02969 -0.06335,0.05939 -0.12037,0.08314c-0.05713,0.02084 -0.13315,0.03865 -0.23462,0.05053c-0.09814,0.01188 -0.22495,0.01792 -0.38021,0.01792c-0.15215,0 -0.27563,-0.00604 -0.37388,-0.01792c-0.10147,-0.01188 -0.1806,-0.02969 -0.23773,-0.05053c-0.06024,-0.02375 -0.10136,-0.05345 -0.12348,-0.08314c-0.02223,-0.03271 -0.03179,-0.07136 -0.03179,-0.11897l0,-7.84091c0,-0.04157 0.00956,-0.08022 0.03179,-0.11293c0.02212,-0.03563 0.06324,-0.06542 0.12348,-0.08918c0.05713,-0.02084 0.13626,-0.03865 0.23773,-0.05053c0.09825,-0.01188 0.22173,-0.01782 0.37388,-0.01782c0.15526,0 0.28208,0.00594 0.38021,0.01782c0.10147,0.01188 0.17749,0.02969 0.23462,0.05053c0.05702,0.02375 0.09491,0.05355 0.12037,0.08918c0.02534,0.03271 0.03801,0.07136 0.03801,0.11293l0,7.84091zm0.17116,-10.48327c0,0.3388 -0.0698,0.56769 -0.20606,0.68958c-0.13626,0.12189 -0.38655,0.1843 -0.75421,0.1843c-0.3611,0 -0.60839,-0.05949 -0.74142,-0.17836c-0.13315,-0.11887 -0.19961,-0.34474 -0.19961,-0.6777c0,-0.3388 0.06957,-0.56769 0.20595,-0.68958c0.13626,-0.12189 0.38655,-0.1843 0.75409,-0.1843c0.36132,0 0.6085,0.05949 0.74154,0.17836c0.13315,0.11887 0.19972,0.34484 0.19972,0.6777z" fill="#552D91" fill-rule="nonzero"/>
    <path stroke="null" id="2" class="fil3" d="m29.6028,17.00295c0,0.06834 -0.02534,0.12189 -0.0728,0.15752c-0.05079,0.03563 -0.11737,0.05949 -0.20606,0.0773c-0.08558,0.01782 -0.21228,0.02677 -0.38021,0.02677c-0.15849,0 -0.2883,-0.00896 -0.38344,-0.02677c-0.09503,-0.01782 -0.16482,-0.04167 -0.20917,-0.0773c-0.04435,-0.03563 -0.06646,-0.08616 -0.06646,-0.15752l0,-0.7847c-0.36443,0.36557 -0.7701,0.65093 -1.22,0.85304c-0.45012,0.19919 -0.92536,0.30025 -1.42606,0.30025c-0.44056,0 -0.83967,-0.05355 -1.19466,-0.16054c-0.35487,-0.10699 -0.65918,-0.26452 -0.90947,-0.46663c-0.2504,-0.20211 -0.4469,-0.45475 -0.58627,-0.74906c-0.13937,-0.29723 -0.20917,-0.63311 -0.20917,-1.01056c0,-0.44288 0.09514,-0.82627 0.28841,-1.15027c0.19016,-0.32692 0.46579,-0.59748 0.82711,-0.81147c0.3581,-0.21399 0.79844,-0.37745 1.31814,-0.48445c0.5197,-0.10699 1.10597,-0.16054 1.75559,-0.16054l1.15354,0l0,-0.61228c0,-0.30015 -0.0349,-0.56769 -0.10147,-0.80251c-0.06969,-0.23181 -0.17749,-0.42506 -0.32953,-0.57956c-0.15215,-0.1546 -0.34865,-0.27056 -0.58938,-0.34776c-0.24084,-0.08032 -0.5387,-0.11897 -0.89047,-0.11897c-0.3771,0 -0.7162,0.04167 -1.01405,0.12783c-0.30108,0.08626 -0.56404,0.17836 -0.78899,0.28243c-0.22506,0.10398 -0.41522,0.19617 -0.56727,0.28233c-0.14893,0.08616 -0.26296,0.12783 -0.33598,0.12783c-0.05068,0 -0.09491,-0.01188 -0.12981,-0.03573c-0.03812,-0.02073 -0.0698,-0.05647 -0.09836,-0.10398c-0.02834,-0.04459 -0.04746,-0.10408 -0.06013,-0.17544c-0.01267,-0.07428 -0.01901,-0.15158 -0.01901,-0.24066c0,-0.14273 0.00956,-0.25868 0.03168,-0.34182c0.02223,-0.08324 0.07602,-0.16356 0.15849,-0.23784c0.08236,-0.07428 0.22806,-0.16346 0.4309,-0.26744c0.20283,-0.10116 0.44056,-0.19617 0.70664,-0.28243c0.26307,-0.08324 0.5546,-0.1545 0.87146,-0.21097c0.31375,-0.05657 0.63384,-0.08324 0.95382,-0.08324c0.59905,0 1.10919,0.06241 1.53053,0.19024c0.42156,0.12773 0.76065,0.31796 1.02039,0.56467c0.25996,0.2467 0.4469,0.55289 0.56404,0.91846c0.11737,0.36557 0.17749,0.79365 0.17749,1.28112l0,5.29065zm-1.52097,-3.59051l-1.3088,0c-0.41823,0 -0.78266,0.03261 -1.09319,0.10106c-0.30742,0.06532 -0.56404,0.16638 -0.7701,0.29723c-0.20283,0.13075 -0.35176,0.28535 -0.45001,0.46955c-0.09503,0.1843 -0.14259,0.39537 -0.14259,0.63311c0,0.40724 0.13626,0.73125 0.412,0.97201c0.27563,0.24076 0.65907,0.36255 1.15654,0.36255c0.39933,0 0.77332,-0.09512 1.11553,-0.28827c0.3422,-0.19024 0.70353,-0.48455 1.08063,-0.87981l0,-1.66743z" fill="#552D91" fill-rule="nonzero"/>
    <path stroke="null" id="3" class="fil3" d="m39.39469,9.51865c0,0.20513 -0.02856,0.35078 -0.0888,0.44288c-0.05702,0.08918 -0.13315,0.13377 -0.22806,0.13377l-1.20111,0c0.21862,0.20805 0.37077,0.43694 0.45635,0.68666c0.08547,0.24962 0.12992,0.51122 0.12992,0.78168c0,0.45183 -0.07613,0.85304 -0.2314,1.2008c-0.15526,0.34776 -0.3771,0.64207 -0.6654,0.88283c-0.2883,0.24368 -0.63062,0.42798 -1.02672,0.55581c-0.39611,0.12773 -0.83656,0.19024 -1.31825,0.19024c-0.33909,0 -0.66551,-0.04167 -0.96971,-0.12491c-0.30731,-0.08616 -0.54504,-0.19024 -0.71297,-0.31796c-0.10447,0.10398 -0.19016,0.22285 -0.25985,0.35662c-0.06646,0.13679 -0.10136,0.29129 -0.10136,0.46371c0,0.20503 0.10136,0.37453 0.30097,0.5083c0.19961,0.13669 0.46902,0.20805 0.80177,0.21993l2.17693,0.08616c0.412,0.01188 0.79233,0.06542 1.13775,0.16054c0.34532,0.09804 0.6464,0.23181 0.89991,0.41016c0.2534,0.17534 0.4499,0.39527 0.5925,0.65093c0.14271,0.25858 0.21239,0.55883 0.21239,0.90065c0,0.35964 -0.07924,0.70145 -0.24084,1.02536c-0.1616,0.324 -0.40556,0.60936 -0.73831,0.85606c-0.32953,0.2467 -0.75421,0.44288 -1.26757,0.58258c-0.51336,0.14263 -1.11864,0.21399 -1.81894,0.21399c-0.67496,0 -1.24856,-0.05355 -1.72069,-0.16054c-0.47213,-0.10699 -0.8619,-0.25556 -1.1661,-0.43986c-0.30119,-0.18722 -0.52292,-0.40724 -0.65918,-0.66582c-0.13626,-0.25858 -0.20272,-0.54091 -0.20272,-0.84116c0,-0.19315 0.02523,-0.37745 0.0728,-0.55873c0.05068,-0.17836 0.1267,-0.35078 0.22817,-0.51424c0.10136,-0.16054 0.22817,-0.31807 0.38033,-0.46371c0.15204,-0.14856 0.32631,-0.29421 0.52603,-0.43986c-0.30119,-0.14565 -0.52292,-0.32994 -0.66863,-0.54987c-0.14271,-0.21993 -0.2155,-0.45777 -0.2155,-0.71333c0,-0.3537 0.07591,-0.67176 0.22806,-0.95118c0.15215,-0.27639 0.3392,-0.52612 0.56404,-0.74906c-0.19016,-0.21399 -0.3422,-0.45475 -0.45312,-0.72521c-0.11092,-0.27046 -0.16793,-0.59738 -0.16793,-0.98087c0,-0.44579 0.07924,-0.8471 0.24084,-1.2008c0.16171,-0.3537 0.38344,-0.65395 0.66863,-0.89763c0.28519,-0.24368 0.62739,-0.431 1.02672,-0.56175c0.39933,-0.13075 0.83656,-0.19617 1.30558,-0.19617c0.25663,0 0.49125,0.0149 0.71297,0.04157c0.21862,0.02979 0.42467,0.06834 0.61795,0.11887l2.52569,0c0.1077,0 0.18372,0.04761 0.23751,0.14273c0.0539,0.09804 0.07935,0.24368 0.07935,0.43986zm-2.39576,2.05686c0,-0.53205 -0.15526,-0.94816 -0.46902,-1.24539c-0.31364,-0.30015 -0.75732,-0.44881 -1.33081,-0.44881c-0.29797,0 -0.55771,0.04761 -0.77643,0.13971c-0.21873,0.0921 -0.40244,0.21993 -0.54826,0.38047c-0.14571,0.16346 -0.25351,0.35068 -0.3232,0.56175c-0.07291,0.21107 -0.1077,0.43392 -0.1077,0.66582c0,0.51414 0.15526,0.91836 0.46902,1.21559c0.31364,0.29431 0.75098,0.44288 1.31503,0.44288c0.30108,0 0.56404,-0.04459 0.7891,-0.13367c0.22184,-0.0922 0.40556,-0.21409 0.55137,-0.37453c0.14571,-0.16054 0.2534,-0.34484 0.3232,-0.55289c0.07291,-0.20805 0.1077,-0.42506 0.1077,-0.65093zm0.76054,6.20318c0,-0.33588 -0.14571,-0.59446 -0.44045,-0.77876c-0.29152,-0.18128 -0.69086,-0.27931 -1.19155,-0.29129l-2.15792,-0.06834c-0.1965,0.14565 -0.36121,0.28243 -0.48802,0.41318c-0.12681,0.13075 -0.22495,0.25264 -0.30108,0.37151c-0.07291,0.11887 -0.12348,0.23784 -0.15204,0.3537c-0.02856,0.11595 -0.04123,0.23482 -0.04123,0.3537c0,0.37755 0.20283,0.6628 0.61161,0.85606c0.40878,0.19315 0.97593,0.29129 1.7048,0.29129c0.46268,0 0.85245,-0.04167 1.16298,-0.12481c0.31375,-0.08626 0.56404,-0.19617 0.75421,-0.33588c0.19327,-0.13971 0.32953,-0.29723 0.41511,-0.47559c0.08236,-0.18128 0.12359,-0.36859 0.12359,-0.56477z" fill="#552D91" fill-rule="nonzero"/>
    <path stroke="null" id="4" class="fil3" d="m48.55275,16.99399c0,0.04761 -0.01278,0.08626 -0.03812,0.11897c-0.02534,0.02969 -0.06335,0.05939 -0.12037,0.08314c-0.05713,0.02084 -0.13315,0.03865 -0.23451,0.05053c-0.09825,0.01188 -0.22184,0.01792 -0.37077,0.01792c-0.15849,0 -0.28519,-0.00604 -0.38344,-0.01792c-0.10136,-0.01188 -0.17749,-0.02969 -0.23451,-0.05053c-0.05702,-0.02375 -0.09503,-0.05345 -0.12048,-0.08314c-0.02534,-0.03271 -0.0379,-0.07136 -0.0379,-0.11897l0,-4.59222c0,-0.44579 -0.03801,-0.80845 -0.11103,-1.07891c-0.0728,-0.27348 -0.1806,-0.5083 -0.3232,-0.70739c-0.14259,-0.19617 -0.3232,-0.34776 -0.54815,-0.45183c-0.22506,-0.10398 -0.4848,-0.15752 -0.77955,-0.15752c-0.38344,0 -0.76365,0.12783 -1.14398,0.38349c-0.38344,0.25556 -0.78277,0.63009 -1.20099,1.1235l0,5.48089c0,0.04761 -0.01267,0.08626 -0.03801,0.11897c-0.02545,0.02969 -0.06346,0.05939 -0.12037,0.08314c-0.05713,0.02084 -0.13326,0.03865 -0.23462,0.05053c-0.09814,0.01188 -0.22495,0.01792 -0.38021,0.01792c-0.15215,0 -0.27563,-0.00604 -0.37399,-0.01792c-0.10136,-0.01188 -0.1806,-0.02969 -0.23762,-0.05053c-0.06024,-0.02375 -0.10136,-0.05345 -0.12359,-0.08314c-0.02212,-0.03271 -0.03168,-0.07136 -0.03168,-0.11897l0,-7.84091c0,-0.04751 0.00956,-0.08616 0.02845,-0.11887c0.01901,-0.02969 0.0539,-0.05949 0.11103,-0.08616c0.0569,-0.02677 0.1267,-0.04459 0.2155,-0.05355c0.08547,-0.00896 0.20272,-0.01188 0.34543,-0.01188c0.13615,0 0.25018,0.00292 0.33898,0.01188c0.09191,0.00896 0.1616,0.02677 0.21228,0.05355c0.04757,0.02667 0.08558,0.05647 0.10781,0.08616c0.01901,0.03271 0.03168,0.07136 0.03168,0.11887l0,1.03734c0.46902,-0.49632 0.93481,-0.85898 1.40383,-1.08786c0.46579,-0.22889 0.9347,-0.34474 1.41016,-0.34474c0.5546,0 1.0235,0.08918 1.40383,0.26452c0.38021,0.17836 0.68763,0.4161 0.92214,0.71041c0.2344,0.29723 0.40233,0.64499 0.5038,1.04327c0.10136,0.39829 0.15215,0.87679 0.15215,1.4326l0,4.78537z" fill="#552D91" fill-rule="nonzero"/>
    <path stroke="null" id="5" class="fil3" d="m59.11141,12.98144c0,0.63905 -0.0888,1.22757 -0.26941,1.76556c-0.17749,0.53497 -0.44679,0.99868 -0.80166,1.38801c-0.35499,0.38943 -0.80177,0.6926 -1.33403,0.90951c-0.53559,0.21701 -1.15676,0.32702 -1.86017,0.32702c-0.68763,0 -1.28668,-0.09512 -1.79682,-0.28837c-0.51014,-0.19024 -0.9347,-0.46965 -1.2739,-0.83522c-0.33909,-0.36557 -0.5925,-0.81137 -0.76043,-1.33155c-0.16793,-0.5231 -0.2504,-1.11464 -0.2504,-1.77744c0,-0.63905 0.0888,-1.22757 0.26307,-1.76254c0.17749,-0.53799 0.44357,-1.0017 0.79844,-1.39103c0.35499,-0.38943 0.79866,-0.68958 1.33103,-0.90659c0.53237,-0.21399 1.15343,-0.32098 1.86329,-0.32098c0.68763,0 1.28657,0.09512 1.79671,0.28827c0.51025,0.19024 0.93492,0.46965 1.2739,0.83522c0.33909,0.36557 0.59572,0.80845 0.76688,1.33155c0.16793,0.5232 0.25351,1.11172 0.25351,1.76858zm-1.5971,0.0921c0,-0.42506 -0.04123,-0.82627 -0.1267,-1.20372c-0.08247,-0.37755 -0.22184,-0.70749 -0.41522,-0.99275c-0.19016,-0.28535 -0.45312,-0.51132 -0.78277,-0.67478c-0.32631,-0.16638 -0.7382,-0.24962 -1.22945,-0.24962c-0.45312,0 -0.8429,0.07428 -1.16932,0.22587c-0.32642,0.15158 -0.59261,0.36557 -0.80489,0.64207c-0.21228,0.27639 -0.36754,0.60332 -0.46902,0.98077c-0.10447,0.37755 -0.15526,0.79063 -0.15526,1.23653c0,0.431 0.04123,0.83522 0.1267,1.21267c0.08247,0.37745 0.22184,0.70739 0.41834,0.98983c0.1965,0.27931 0.45946,0.50528 0.78599,0.66874c0.32953,0.16648 0.74142,0.24962 1.23267,0.24962c0.44679,0 0.83334,-0.07428 1.16287,-0.22587c0.32953,-0.15158 0.59894,-0.36265 0.81122,-0.63603c0.21239,-0.27348 0.36754,-0.6004 0.4659,-0.97795c0.09814,-0.37745 0.14893,-0.79355 0.14893,-1.24539z" fill="#552D91" fill-rule="nonzero"/>
    <path stroke="null" id="6" class="fil3" d="m66.6279,14.854c0,0.40121 -0.07913,0.75792 -0.23762,1.07297c-0.15849,0.31213 -0.38021,0.57664 -0.67185,0.79063c-0.29152,0.21399 -0.63684,0.37745 -1.03939,0.48747c-0.40233,0.11001 -0.84601,0.16648 -1.3277,0.16648c-0.29786,0 -0.57994,-0.02084 -0.84923,-0.06542c-0.26941,-0.04157 -0.51014,-0.09512 -0.72564,-0.16346c-0.21239,-0.06542 -0.393,-0.13377 -0.54193,-0.20513c-0.14893,-0.07126 -0.25674,-0.13669 -0.3232,-0.19315c-0.0698,-0.05647 -0.12048,-0.13971 -0.14893,-0.24378c-0.03168,-0.10398 -0.04757,-0.2467 -0.04757,-0.42798c0,-0.11001 0.00634,-0.20211 0.01901,-0.27639c0.01267,-0.0773 0.02856,-0.13679 0.04435,-0.1843c0.01901,-0.04761 0.04757,-0.08022 0.07924,-0.10106c0.0349,-0.02084 0.07291,-0.02969 0.11725,-0.02969c0.06657,0 0.16793,0.03855 0.30108,0.11887c0.13304,0.0773 0.29786,0.16346 0.49113,0.25556c0.19327,0.0922 0.42456,0.17836 0.69086,0.25566c0.26607,0.08022 0.57038,0.11887 0.91581,0.11887c0.25974,0 0.49436,-0.02677 0.70353,-0.08022c0.21228,-0.05053 0.39277,-0.12783 0.54815,-0.23191c0.15526,-0.10106 0.27252,-0.23181 0.3581,-0.38933c0.08236,-0.15752 0.12359,-0.34474 0.12359,-0.56175c0,-0.21993 -0.06024,-0.40724 -0.1806,-0.55581c-0.12048,-0.15158 -0.27897,-0.28535 -0.47535,-0.40131c-0.19961,-0.11585 -0.42145,-0.21993 -0.66874,-0.30911c-0.24707,-0.08918 -0.50069,-0.1843 -0.76354,-0.28233c-0.25996,-0.10106 -0.51659,-0.21107 -0.76699,-0.33588c-0.2504,-0.12481 -0.47213,-0.27639 -0.67174,-0.45777c-0.1965,-0.18128 -0.35487,-0.39527 -0.47535,-0.64499c-0.12048,-0.24962 -0.1806,-0.54685 -0.1806,-0.89763c0,-0.30609 0.06335,-0.6004 0.19016,-0.88273c0.1267,-0.28243 0.31686,-0.52914 0.57027,-0.74011c0.25674,-0.21107 0.5736,-0.38349 0.95393,-0.51122c0.38033,-0.12783 0.82389,-0.19024 1.33403,-0.19024c0.22184,0 0.44368,0.01782 0.66874,0.05345c0.22173,0.03573 0.42134,0.08324 0.60205,0.13679c0.1806,0.05345 0.33265,0.11293 0.45946,0.17534c0.12681,0.06542 0.22495,0.11887 0.28841,0.1694c0.06646,0.04761 0.1077,0.08918 0.12981,0.12189c0.02223,0.03563 0.03812,0.07428 0.04757,0.11887c0.00956,0.04157 0.01912,0.09512 0.02856,0.15752c0.00956,0.06542 0.01267,0.14273 0.01267,0.23482c0,0.09804 -0.00311,0.1843 -0.01267,0.25566c-0.00945,0.07126 -0.02534,0.13075 -0.04757,0.17534c-0.02223,0.04751 -0.04757,0.08022 -0.07924,0.10106c-0.03156,0.02084 -0.06646,0.02969 -0.10136,0.02969c-0.05713,0 -0.13626,-0.03271 -0.24407,-0.09804c-0.10447,-0.06241 -0.24073,-0.13085 -0.40867,-0.20513c-0.16793,-0.07428 -0.36443,-0.14263 -0.58949,-0.20503c-0.22495,-0.06542 -0.4848,-0.09814 -0.77643,-0.09814c-0.25974,0 -0.49113,0.02677 -0.68763,0.08324c-0.19961,0.05345 -0.36121,0.13075 -0.48791,0.23181c-0.12681,0.10106 -0.22506,0.21993 -0.28841,0.35964c-0.06657,0.13679 -0.09825,0.28837 -0.09825,0.44881c0,0.22597 0.06346,0.4162 0.18694,0.57071c0.1237,0.1546 0.28208,0.28837 0.48169,0.40422c0.1965,0.11595 0.42467,0.21993 0.67819,0.31505c0.25351,0.0922 0.51025,0.18732 0.77321,0.28535c0.26307,0.10106 0.52281,0.21107 0.77955,0.33296c0.25663,0.12179 0.4848,0.27046 0.6813,0.44288c0.19961,0.17534 0.3581,0.38339 0.47846,0.62707c0.12048,0.24378 0.1806,0.53507 0.1806,0.87096z" fill="#552D91" fill-rule="nonzero"/>
    <path stroke="null" id="7" class="fil3" d="m75.87787,8.93607c0.18383,0 0.31053,0.03865 0.38033,0.11897c0.06646,0.0772 0.10136,0.19024 0.10136,0.34182l0,7.59713c0,0.04761 -0.01267,0.08626 -0.03801,0.11897c-0.02545,0.02969 -0.06657,0.05939 -0.12359,0.08314c-0.06024,0.02084 -0.13937,0.03865 -0.23773,0.05053c-0.09814,0.01188 -0.2185,0.01792 -0.36121,0.01792c-0.15526,0 -0.28197,-0.00604 -0.38021,-0.01792c-0.09825,-0.01188 -0.17749,-0.02969 -0.23773,-0.05053c-0.05702,-0.02375 -0.09825,-0.05345 -0.12348,-0.08314c-0.02545,-0.03271 -0.03812,-0.07136 -0.03812,-0.11897l0,-6.86296l-4.31607,0l0,4.36031c0,0.53799 0.08569,0.94524 0.25674,1.21861c0.16805,0.2765 0.47535,0.41318 0.91269,0.41318c0.14259,0 0.2693,-0.01188 0.38333,-0.03865c0.11103,-0.02677 0.20917,-0.05345 0.29475,-0.08324c0.08869,-0.02969 0.16171,-0.05647 0.22495,-0.08324c0.06024,-0.02667 0.11737,-0.03855 0.16805,-0.03855c0.02845,0 0.06013,0.00594 0.08558,0.02073c0.02845,0.0149 0.05068,0.04167 0.06657,0.08324c0.01578,0.04167 0.02845,0.09512 0.04112,0.16648c0.01267,0.06834 0.01901,0.15752 0.01901,0.2615c0,0.1695 -0.01267,0.30025 -0.03801,0.39537c-0.02534,0.09804 -0.06024,0.1694 -0.11092,0.21993c-0.05079,0.05053 -0.12359,0.09512 -0.22184,0.13377c-0.10136,0.04157 -0.21539,0.07428 -0.34232,0.10106c-0.1267,0.02677 -0.25974,0.04751 -0.40233,0.06542c-0.14271,0.01782 -0.28841,0.02667 -0.43101,0.02667c-0.43412,0 -0.80489,-0.05345 -1.11542,-0.16044c-0.31053,-0.10699 -0.56404,-0.27046 -0.76365,-0.48747c-0.1965,-0.21701 -0.3422,-0.4934 -0.43101,-0.82627c-0.09191,-0.33296 -0.13626,-0.72531 -0.13626,-1.17704l0,-4.57138l-1.17565,0c-0.09191,0 -0.16793,-0.04761 -0.22495,-0.13971c-0.0539,-0.0922 -0.08247,-0.24378 -0.08247,-0.45475c0,-0.11001 0.00634,-0.20211 0.02223,-0.2765c0.01578,-0.0773 0.03801,-0.13971 0.06024,-0.19024c0.02534,-0.04751 0.06024,-0.08324 0.09814,-0.10398c0.04123,-0.02084 0.08558,-0.02979 0.13637,-0.02979l1.1661,0l0,-1.86058c0,-0.04167 0.00956,-0.08032 0.03168,-0.11293c0.02223,-0.03573 0.06335,-0.06542 0.12359,-0.0922c0.05702,-0.02677 0.13626,-0.04459 0.23773,-0.05647c0.09814,-0.01188 0.22173,-0.01782 0.37388,-0.01782c0.15526,0 0.28197,0.00594 0.38021,0.01782c0.10147,0.01188 0.17738,0.02969 0.23451,0.05647c0.05713,0.02677 0.09514,0.05647 0.12037,0.0922c0.02534,0.03261 0.03801,0.07126 0.03801,0.11293l0,1.86058l5.37447,0zm0.65284,-2.42535c0,0.3388 -0.0698,0.56769 -0.20606,0.68958c-0.13626,0.12189 -0.38666,0.1843 -0.75409,0.1843c-0.36121,0 -0.6085,-0.05949 -0.74154,-0.17836c-0.13315,-0.11887 -0.19961,-0.34474 -0.19961,-0.6777c0,-0.3388 0.06957,-0.56769 0.20595,-0.68958c0.13626,-0.12189 0.38655,-0.1843 0.75409,-0.1843c0.36132,0 0.6085,0.05949 0.74154,0.17836c0.13304,0.11887 0.19972,0.34484 0.19972,0.6777z" fill="#552D91" fill-rule="nonzero"/>
    <path stroke="null" id="8" class="fil3" d="m85.20386,15.78726c0,0.09814 -0.00311,0.1843 -0.00945,0.25566c-0.00634,0.07428 -0.01589,0.13377 -0.03179,0.1843c-0.01578,0.05053 -0.03479,0.0921 -0.05702,0.13075c-0.02212,0.03865 -0.06969,0.09512 -0.14893,0.16648c-0.07602,0.07428 -0.20917,0.16346 -0.393,0.27338c-0.18683,0.10699 -0.396,0.20513 -0.62739,0.28837c-0.23451,0.08616 -0.4848,0.1545 -0.75732,0.20503c-0.27252,0.05355 -0.5546,0.08032 -0.84612,0.08032c-0.60205,0 -1.13442,-0.0922 -1.5971,-0.27941c-0.46579,-0.1843 -0.85557,-0.45475 -1.1661,-0.81147c-0.31364,-0.35662 -0.55137,-0.79657 -0.7162,-1.31373c-0.16471,-0.52018 -0.24718,-1.11756 -0.24718,-1.79828c0,-0.7698 0.10147,-1.4326 0.30108,-1.98841c0.20272,-0.55289 0.47846,-1.00764 0.82711,-1.36134c0.35165,-0.3537 0.76365,-0.6153 1.23578,-0.78771c0.47535,-0.1694 0.98871,-0.25556 1.54009,-0.25556c0.26618,0 0.52281,0.02375 0.77321,0.07136c0.25351,0.04459 0.48169,0.10699 0.69397,0.18128c0.20917,0.0773 0.39933,0.16346 0.56093,0.26452c0.16482,0.09814 0.28519,0.1843 0.3581,0.25264c0.07602,0.07136 0.1267,0.12783 0.15526,0.16648c0.02534,0.04157 0.05057,0.08918 0.06969,0.14565c0.01578,0.05345 0.02845,0.11585 0.03479,0.18722c0.00634,0.06834 0.00956,0.15752 0.00956,0.2616c0,0.22587 -0.02856,0.38339 -0.08236,0.47559c-0.05702,0.08918 -0.12359,0.13367 -0.20595,0.13367c-0.09203,0 -0.19972,-0.04751 -0.32009,-0.14565c-0.12048,-0.09502 -0.27252,-0.20211 -0.45957,-0.31796c-0.18694,-0.11595 -0.41189,-0.22295 -0.67485,-0.31807c-0.26307,-0.09804 -0.5736,-0.14565 -0.9317,-0.14565c-0.73842,0 -1.30558,0.26452 -1.69846,0.79657c-0.393,0.52904 -0.58949,1.29893 -0.58949,2.30648c0,0.50236 0.05079,0.94524 0.15204,1.32571c0.1047,0.37745 0.25362,0.69552 0.45323,0.95108c0.1965,0.25264 0.44045,0.44288 0.72887,0.56779c0.2883,0.12481 0.61795,0.18722 0.98871,0.18722c0.35487,0 0.6654,-0.05355 0.93159,-0.15752c0.26618,-0.10408 0.49436,-0.21993 0.69086,-0.34776c0.1965,-0.12481 0.36121,-0.23774 0.49436,-0.3388c0.13304,-0.10408 0.23451,-0.1546 0.31053,-0.1546c0.04112,0 0.07924,0.01188 0.11092,0.03563c0.03156,0.02385 0.05702,0.06241 0.07913,0.11595c0.02223,0.05647 0.03812,0.12481 0.04757,0.21107c0.00956,0.08314 0.01267,0.1842 0.01267,0.30015z" fill="#552D91" fill-rule="nonzero"/>
    <path stroke="null" id="9" class="fil3" d="m94.83404,12.98144c0,0.63905 -0.08869,1.22757 -0.2693,1.76556c-0.17749,0.53497 -0.4469,0.99868 -0.80177,1.38801c-0.35499,0.38943 -0.80166,0.6926 -1.33403,0.90951c-0.53559,0.21701 -1.15676,0.32702 -1.86017,0.32702c-0.68763,0 -1.28657,-0.09512 -1.79671,-0.28837c-0.51014,-0.19024 -0.93481,-0.46965 -1.2739,-0.83522c-0.33909,-0.36557 -0.59261,-0.81137 -0.76054,-1.33155c-0.16793,-0.5231 -0.25029,-1.11464 -0.25029,-1.77744c0,-0.63905 0.08869,-1.22757 0.26296,-1.76254c0.17749,-0.53799 0.44368,-1.0017 0.79855,-1.39103c0.35499,-0.38943 0.79855,-0.68958 1.33092,-0.90659c0.53237,-0.21399 1.15343,-0.32098 1.86329,-0.32098c0.68774,0 1.28657,0.09512 1.79671,0.28827c0.51025,0.19024 0.93492,0.46965 1.2739,0.83522c0.33909,0.36557 0.59583,0.80845 0.76699,1.33155c0.16793,0.5232 0.2534,1.11172 0.2534,1.76858zm-1.5971,0.0921c0,-0.42506 -0.04112,-0.82627 -0.1267,-1.20372c-0.08247,-0.37755 -0.22184,-0.70749 -0.41522,-0.99275c-0.19016,-0.28535 -0.45312,-0.51132 -0.78266,-0.67478c-0.32631,-0.16638 -0.73831,-0.24962 -1.22945,-0.24962c-0.45323,0 -0.8429,0.07428 -1.16943,0.22587c-0.32642,0.15158 -0.5925,0.36557 -0.80489,0.64207c-0.21228,0.27639 -0.36754,0.60332 -0.46891,0.98077c-0.10458,0.37755 -0.15526,0.79063 -0.15526,1.23653c0,0.431 0.04112,0.83522 0.1267,1.21267c0.08236,0.37745 0.22184,0.70739 0.41823,0.98983c0.1965,0.27931 0.45957,0.50528 0.78599,0.66874c0.32953,0.16648 0.74154,0.24962 1.23267,0.24962c0.44679,0 0.83334,-0.07428 1.16287,-0.22587c0.32965,-0.15158 0.59894,-0.36265 0.81133,-0.63603c0.21239,-0.27348 0.36754,-0.6004 0.46579,-0.97795c0.09825,-0.37745 0.14893,-0.79355 0.14893,-1.24539z" fill="#552D91" fill-rule="nonzero"/>
    <path stroke="null" id="10" class="fil3" d="m108.94823,9.24226c0,0.56477 -0.09814,1.07297 -0.29786,1.52772c-0.1965,0.45183 -0.47846,0.83824 -0.84923,1.15923c-0.36754,0.31807 -0.81767,0.56477 -1.35315,0.74011c-0.53559,0.17534 -1.17243,0.2616 -1.91719,0.2616l-1.36259,0l0,4.05423c0,0.04751 -0.01267,0.08918 -0.04123,0.12179c-0.02845,0.03573 -0.0728,0.06251 -0.12981,0.08324c-0.06024,0.02084 -0.13948,0.03865 -0.24095,0.05355c-0.10447,0.0148 -0.23117,0.02084 -0.38655,0.02084c-0.15526,0 -0.28197,-0.00604 -0.38655,-0.02084c-0.10147,-0.0149 -0.18383,-0.03271 -0.24407,-0.05355c-0.06335,-0.02073 -0.10447,-0.04751 -0.12992,-0.08324c-0.02534,-0.03261 -0.03801,-0.07428 -0.03801,-0.12179l0,-10.40013c0,-0.23181 0.06657,-0.39829 0.1965,-0.49632c0.12992,-0.09814 0.27252,-0.14867 0.43412,-0.14867l2.56992,0c0.25985,0 0.51025,0.00896 0.74787,0.02979c0.23762,0.02073 0.5197,0.06532 0.8429,0.13075c0.32642,0.06834 0.65596,0.19315 0.99505,0.37453c0.33587,0.1843 0.62117,0.41016 0.85879,0.6776c0.23451,0.26754 0.41511,0.57664 0.54181,0.92742c0.12681,0.35068 0.19016,0.74011 0.19016,1.16215zm-1.67312,0.11887c0,-0.46069 -0.09191,-0.84408 -0.27252,-1.15319c-0.18383,-0.30619 -0.40878,-0.53799 -0.6813,-0.68958c-0.2693,-0.14867 -0.54826,-0.2467 -0.83345,-0.28535c-0.28841,-0.04167 -0.57038,-0.06241 -0.8429,-0.06241l-1.47674,0l0,4.52971l1.44184,0c0.48169,0 0.88413,-0.05939 1.20099,-0.17534c0.32009,-0.11595 0.58627,-0.27639 0.80489,-0.48445c0.2155,-0.20513 0.38021,-0.45183 0.49125,-0.74011c0.11092,-0.28837 0.16793,-0.6004 0.16793,-0.9393z" fill="#552D91" fill-rule="nonzero"/>
    <path stroke="null" id="11" class="fil3" d="m118.59742,12.98144c0,0.63905 -0.08869,1.22757 -0.2693,1.76556c-0.17749,0.53497 -0.4469,0.99868 -0.80177,1.38801c-0.35487,0.38943 -0.80166,0.6926 -1.33403,0.90951c-0.53559,0.21701 -1.15665,0.32702 -1.86006,0.32702c-0.68763,0 -1.28668,-0.09512 -1.79682,-0.28837c-0.51014,-0.19024 -0.93481,-0.46965 -1.2739,-0.83522c-0.33909,-0.36557 -0.59261,-0.81137 -0.76054,-1.33155c-0.16793,-0.5231 -0.25029,-1.11464 -0.25029,-1.77744c0,-0.63905 0.08869,-1.22757 0.26296,-1.76254c0.17749,-0.53799 0.44368,-1.0017 0.79855,-1.39103c0.35499,-0.38943 0.79855,-0.68958 1.33092,-0.90659c0.53237,-0.21399 1.15354,-0.32098 1.8634,-0.32098c0.68763,0 1.28646,0.09512 1.7966,0.28827c0.51036,0.19024 0.93492,0.46965 1.2739,0.83522c0.33909,0.36557 0.59583,0.80845 0.76699,1.33155c0.16793,0.5232 0.2534,1.11172 0.2534,1.76858zm-1.5971,0.0921c0,-0.42506 -0.04112,-0.82627 -0.1267,-1.20372c-0.08236,-0.37755 -0.22184,-0.70749 -0.41511,-0.99275c-0.19016,-0.28535 -0.45323,-0.51132 -0.78277,-0.67478c-0.32631,-0.16638 -0.73831,-0.24962 -1.22945,-0.24962c-0.45312,0 -0.8429,0.07428 -1.16932,0.22587c-0.32653,0.15158 -0.59261,0.36557 -0.805,0.64207c-0.21228,0.27639 -0.36754,0.60332 -0.46891,0.98077c-0.10458,0.37755 -0.15526,0.79063 -0.15526,1.23653c0,0.431 0.04112,0.83522 0.1267,1.21267c0.08247,0.37745 0.22184,0.70739 0.41834,0.98983c0.1965,0.27931 0.45946,0.50528 0.78588,0.66874c0.32953,0.16648 0.74154,0.24962 1.23267,0.24962c0.4469,0 0.83334,-0.07428 1.16298,-0.22587c0.32953,-0.15158 0.59883,-0.36265 0.81122,-0.63603c0.21239,-0.27348 0.36754,-0.6004 0.46579,-0.97795c0.09825,-0.37745 0.14893,-0.79355 0.14893,-1.24539z" fill="#552D91" fill-rule="nonzero"/>
    <path stroke="null" id="12" class="fil3" d="m125.75282,9.66138c0,0.12783 -0.00322,0.23482 -0.00956,0.32098c-0.00634,0.08616 -0.01901,0.1546 -0.03801,0.20513c-0.01589,0.05053 -0.04123,0.08616 -0.06969,0.11293c-0.02534,0.02677 -0.06335,0.03865 -0.11414,0.03865c-0.05068,0 -0.11081,-0.01188 -0.1806,-0.03865c-0.0728,-0.02677 -0.15215,-0.05355 -0.24073,-0.0773c-0.0888,-0.02677 -0.19016,-0.05053 -0.30119,-0.07428c-0.11081,-0.02385 -0.23117,-0.03573 -0.36121,-0.03573c-0.15526,0 -0.30742,0.02979 -0.45635,0.08626c-0.14571,0.05939 -0.30408,0.1545 -0.46568,0.29129c-0.16493,0.13377 -0.33609,0.31203 -0.5167,0.53205c-0.17738,0.22285 -0.37699,0.4934 -0.5925,0.81439l0,5.15689c0,0.04761 -0.01267,0.08626 -0.03801,0.11897c-0.02545,0.02969 -0.06346,0.05939 -0.12037,0.08314c-0.05713,0.02084 -0.13326,0.03865 -0.23462,0.05053c-0.09814,0.01188 -0.22495,0.01792 -0.38021,0.01792c-0.15215,0 -0.27563,-0.00604 -0.37399,-0.01792c-0.10136,-0.01188 -0.1806,-0.02969 -0.23762,-0.05053c-0.06024,-0.02375 -0.10136,-0.05345 -0.12359,-0.08314c-0.02223,-0.03271 -0.03168,-0.07136 -0.03168,-0.11897l0,-7.84091c0,-0.04751 0.00945,-0.08616 0.02845,-0.11887c0.01901,-0.02969 0.0539,-0.05949 0.11103,-0.08616c0.0569,-0.02677 0.1267,-0.04459 0.2155,-0.05355c0.08547,-0.00896 0.20272,-0.01188 0.34543,-0.01188c0.13615,0 0.25018,0.00292 0.33898,0.01188c0.09191,0.00896 0.1616,0.02677 0.21228,0.05355c0.04757,0.02667 0.08558,0.05647 0.10781,0.08616c0.01901,0.03271 0.03168,0.07136 0.03168,0.11887l0,1.14141c0.22806,-0.31505 0.44357,-0.57071 0.64329,-0.7699c0.20283,-0.19617 0.39289,-0.3537 0.57038,-0.46663c0.1806,-0.11293 0.3581,-0.19024 0.53237,-0.23482c0.17749,-0.04459 0.35499,-0.06532 0.53559,-0.06532c0.07913,0 0.17105,0.00292 0.27241,0.01188c0.10147,0.00886 0.20917,0.02677 0.32009,0.04751c0.11092,0.02385 0.21228,0.05053 0.30108,0.08032c0.08869,0.02969 0.15215,0.05647 0.19016,0.08616c0.0379,0.02969 0.06335,0.05647 0.0728,0.08324c0.01267,0.02677 0.02534,0.05939 0.0349,0.09804c0.00956,0.04167 0.01589,0.10106 0.01901,0.17836c0.00322,0.08022 0.00322,0.1843 0.00322,0.31807z" fill="#552D91" fill-rule="nonzero"/>
    <path stroke="null" id="13" class="fil3" d="m133.56095,16.98514c0,0.04751 -0.01267,0.08918 -0.03801,0.12179c-0.02534,0.03573 -0.06657,0.06251 -0.13004,0.08324c-0.06013,0.02084 -0.14259,0.03865 -0.24396,0.05355c-0.10458,0.0148 -0.23129,0.02084 -0.38655,0.02084c-0.14893,0 -0.27563,-0.00604 -0.38033,-0.02084c-0.10447,-0.0149 -0.19016,-0.03271 -0.25029,-0.05355c-0.06335,-0.02073 -0.10458,-0.04751 -0.13004,-0.08324c-0.02523,-0.03261 -0.0379,-0.07428 -0.0379,-0.12179l0,-10.81915c0,-0.04761 0.01267,-0.08918 0.04112,-0.12189c0.02856,-0.03573 0.07613,-0.06241 0.13948,-0.08324c0.06646,-0.02084 0.14893,-0.03865 0.25029,-0.05355c0.10147,-0.0148 0.22506,-0.02073 0.36766,-0.02073c0.15526,0 0.28197,0.00594 0.38655,0.02073c0.10136,0.0149 0.18383,0.03271 0.24396,0.05355c0.06346,0.02084 0.1047,0.04751 0.13004,0.08324c0.02534,0.03271 0.03801,0.07428 0.03801,0.12189l0,10.81915z" fill="#552D91" fill-rule="nonzero"/>
    <path stroke="null" id="14" class="fil3" d="m148.9806,16.99399c0,0.04761 -0.01267,0.08626 -0.03812,0.11897c-0.02534,0.02969 -0.06324,0.05939 -0.12037,0.08314c-0.0539,0.02084 -0.13304,0.03865 -0.23129,0.05053c-0.09825,0.01188 -0.22173,0.01792 -0.37077,0.01792c-0.15526,0 -0.28208,-0.00604 -0.38021,-0.01792c-0.09825,-0.01188 -0.17749,-0.02969 -0.23773,-0.05053c-0.05702,-0.02375 -0.09825,-0.05345 -0.12348,-0.08314c-0.02545,-0.03271 -0.03812,-0.07136 -0.03812,-0.11897l0,-4.76454c0,-0.33296 -0.03168,-0.63613 -0.09191,-0.90659c-0.06335,-0.27348 -0.1616,-0.5083 -0.29786,-0.70739c-0.13626,-0.19617 -0.30731,-0.34776 -0.51647,-0.45183c-0.20917,-0.10398 -0.45635,-0.15752 -0.74154,-0.15752c-0.35176,0 -0.70675,0.12783 -1.0584,0.38349c-0.35499,0.25556 -0.74787,0.63009 -1.17243,1.1235l0,5.48089c0,0.04761 -0.01278,0.08626 -0.03812,0.11897c-0.02534,0.02969 -0.06657,0.05939 -0.1267,0.08314c-0.05713,0.02084 -0.13626,0.03865 -0.23773,0.05053c-0.09814,0.01188 -0.22184,0.01792 -0.37077,0.01792c-0.14571,0 -0.26607,-0.00604 -0.37077,-0.01792c-0.10136,-0.01188 -0.18383,-0.02969 -0.24073,-0.05053c-0.06024,-0.02375 -0.10147,-0.05345 -0.1237,-0.08314c-0.02212,-0.03271 -0.03156,-0.07136 -0.03156,-0.11897l0,-4.76454c0,-0.33296 -0.0349,-0.63613 -0.10147,-0.90659c-0.06969,-0.27348 -0.17116,-0.5083 -0.30731,-0.70739c-0.13626,-0.19617 -0.30742,-0.34776 -0.51336,-0.45183c-0.20917,-0.10398 -0.45323,-0.15752 -0.73842,-0.15752c-0.35176,0 -0.70975,0.12783 -1.06785,0.38349c-0.3581,0.25556 -0.74787,0.63009 -1.16932,1.1235l0,5.48089c0,0.04761 -0.01267,0.08626 -0.03801,0.11897c-0.02545,0.02969 -0.06346,0.05939 -0.12037,0.08314c-0.05713,0.02084 -0.13326,0.03865 -0.23462,0.05053c-0.09825,0.01188 -0.22495,0.01792 -0.38021,0.01792c-0.15215,0 -0.27563,-0.00604 -0.37399,-0.01792c-0.10136,-0.01188 -0.1806,-0.02969 -0.23762,-0.05053c-0.06024,-0.02375 -0.10136,-0.05345 -0.12359,-0.08314c-0.02223,-0.03271 -0.03179,-0.07136 -0.03179,-0.11897l0,-7.84091c0,-0.04751 0.00956,-0.08616 0.02856,-0.11887c0.01901,-0.02969 0.0539,-0.05949 0.11103,-0.08616c0.0569,-0.02677 0.1267,-0.04459 0.21539,-0.05355c0.08558,-0.00896 0.20283,-0.01188 0.34543,-0.01188c0.13626,0 0.25029,0.00292 0.33909,0.01188c0.09191,0.00896 0.1616,0.02677 0.21228,0.05355c0.04757,0.02667 0.08558,0.05647 0.10781,0.08616c0.01901,0.03271 0.03156,0.07136 0.03156,0.11887l0,1.03734c0.46913,-0.49632 0.92848,-0.85898 1.37226,-1.08786c0.44034,-0.22889 0.89047,-0.34474 1.34037,-0.34474c0.34854,0 0.65907,0.03865 0.93481,0.11293c0.27563,0.0773 0.5197,0.18128 0.72887,0.31807c0.21228,0.13669 0.39289,0.30015 0.5387,0.49038c0.14893,0.18722 0.27252,0.39829 0.37388,0.63311c0.27885,-0.28535 0.54181,-0.52612 0.79222,-0.72521c0.2504,-0.19919 0.49113,-0.35672 0.72253,-0.48153c0.2314,-0.12189 0.45624,-0.21107 0.67496,-0.26452c0.22184,-0.05657 0.44056,-0.08324 0.66229,-0.08324c0.5387,0 0.98871,0.08918 1.35315,0.26452c0.36443,0.17836 0.65907,0.4161 0.88724,0.71041c0.22495,0.29723 0.38344,0.64499 0.48169,1.04327c0.09503,0.39829 0.14259,0.81731 0.14259,1.26018l0,4.95779z" fill="#552D91" fill-rule="nonzero"/>
    <path stroke="null" id="15" class="fil3" d="m158.06575,17.00295c0,0.06834 -0.02534,0.12189 -0.07291,0.15752c-0.05079,0.03563 -0.11725,0.05949 -0.20606,0.0773c-0.08547,0.01782 -0.21228,0.02677 -0.38021,0.02677c-0.15849,0 -0.2883,-0.00896 -0.38344,-0.02677c-0.09503,-0.01782 -0.16482,-0.04167 -0.20906,-0.0773c-0.04446,-0.03563 -0.06657,-0.08616 -0.06657,-0.15752l0,-0.7847c-0.36443,0.36557 -0.7701,0.65093 -1.22,0.85304c-0.45001,0.19919 -0.92536,0.30025 -1.42606,0.30025c-0.44045,0 -0.83967,-0.05355 -1.19466,-0.16054c-0.35487,-0.10699 -0.65907,-0.26452 -0.90947,-0.46663c-0.2504,-0.20211 -0.44679,-0.45475 -0.58627,-0.74906c-0.13937,-0.29723 -0.20917,-0.63311 -0.20917,-1.01056c0,-0.44288 0.09514,-0.82627 0.28841,-1.15027c0.19016,-0.32692 0.46579,-0.59748 0.82711,-0.81147c0.3581,-0.21399 0.79855,-0.37745 1.31825,-0.48445c0.5197,-0.10699 1.10586,-0.16054 1.75559,-0.16054l1.15343,0l0,-0.61228c0,-0.30015 -0.0349,-0.56769 -0.10136,-0.80251c-0.0698,-0.23181 -0.17749,-0.42506 -0.32953,-0.57956c-0.15226,-0.1546 -0.34865,-0.27056 -0.58949,-0.34776c-0.24084,-0.08032 -0.5387,-0.11897 -0.89047,-0.11897c-0.3771,0 -0.7162,0.04167 -1.01405,0.12783c-0.30108,0.08626 -0.56404,0.17836 -0.78899,0.28243c-0.22495,0.10398 -0.41511,0.19617 -0.56727,0.28233c-0.14893,0.08616 -0.26296,0.12783 -0.33598,0.12783c-0.05057,0 -0.09491,-0.01188 -0.12981,-0.03573c-0.03812,-0.02073 -0.0698,-0.05647 -0.09825,-0.10398c-0.02845,-0.04459 -0.04757,-0.10408 -0.06024,-0.17544c-0.01267,-0.07428 -0.01901,-0.15158 -0.01901,-0.24066c0,-0.14273 0.00956,-0.25868 0.03168,-0.34182c0.02223,-0.08324 0.07602,-0.16356 0.15849,-0.23784c0.08247,-0.07428 0.22817,-0.16346 0.43101,-0.26744c0.20272,-0.10116 0.44045,-0.19617 0.70664,-0.28243c0.26296,-0.08324 0.55448,-0.1545 0.87146,-0.21097c0.31364,-0.05657 0.63373,-0.08324 0.9537,-0.08324c0.59905,0 1.10919,0.06241 1.53064,0.19024c0.42145,0.12773 0.76054,0.31796 1.02039,0.56467c0.25985,0.2467 0.44679,0.55289 0.56404,0.91846c0.11725,0.36557 0.17749,0.79365 0.17749,1.28112l0,5.29065zm-1.52108,-3.59051l-1.30869,0c-0.41834,0 -0.78277,0.03261 -1.0933,0.10106c-0.30731,0.06532 -0.56404,0.16638 -0.7701,0.29723c-0.20283,0.13075 -0.35176,0.28535 -0.4499,0.46955c-0.09514,0.1843 -0.14259,0.39537 -0.14259,0.63311c0,0.40724 0.13626,0.73125 0.41189,0.97201c0.27574,0.24076 0.65907,0.36255 1.15665,0.36255c0.39922,0 0.77321,-0.09512 1.11542,-0.28827c0.3422,-0.19024 0.70353,-0.48455 1.08063,-0.87981l0,-1.66743z" fill="#552D91" fill-rule="nonzero"/>
    <path stroke="null" id="16" class="fil3" d="m167.85753,9.51865c0,0.20513 -0.02856,0.35078 -0.0888,0.44288c-0.05702,0.08918 -0.13315,0.13377 -0.22806,0.13377l-1.20099,0c0.2185,0.20805 0.37077,0.43694 0.45624,0.68666c0.08558,0.24962 0.12992,0.51122 0.12992,0.78168c0,0.45183 -0.07602,0.85304 -0.23129,1.2008c-0.15538,0.34776 -0.3771,0.64207 -0.66551,0.88283c-0.2883,0.24368 -0.63062,0.42798 -1.02672,0.55581c-0.39611,0.12773 -0.83656,0.19024 -1.31814,0.19024c-0.33909,0 -0.66563,-0.04167 -0.96982,-0.12491c-0.30731,-0.08616 -0.54504,-0.19024 -0.71297,-0.31796c-0.10447,0.10398 -0.19016,0.22285 -0.25974,0.35662c-0.06657,0.13679 -0.10147,0.29129 -0.10147,0.46371c0,0.20503 0.10147,0.37453 0.30108,0.5083c0.1995,0.13669 0.46891,0.20805 0.80166,0.21993l2.17704,0.08616c0.41189,0.01188 0.79222,0.06542 1.13764,0.16054c0.34532,0.09804 0.64651,0.23181 0.89991,0.41016c0.25351,0.17534 0.45001,0.39527 0.59261,0.65093c0.14259,0.25858 0.21239,0.55883 0.21239,0.90065c0,0.35964 -0.07935,0.70145 -0.24095,1.02536c-0.1616,0.324 -0.40556,0.60936 -0.73831,0.85606c-0.32953,0.2467 -0.75421,0.44288 -1.26757,0.58258c-0.51336,0.14263 -1.11853,0.21399 -1.81883,0.21399c-0.67507,0 -1.24856,-0.05355 -1.7208,-0.16054c-0.47213,-0.10699 -0.8619,-0.25556 -1.1661,-0.43986c-0.30108,-0.18722 -0.52292,-0.40724 -0.65907,-0.66582c-0.13637,-0.25858 -0.20283,-0.54091 -0.20283,-0.84116c0,-0.19315 0.02534,-0.37745 0.0728,-0.55873c0.05068,-0.17836 0.12681,-0.35078 0.22817,-0.51424c0.10147,-0.16054 0.22817,-0.31807 0.38033,-0.46371c0.15204,-0.14856 0.32631,-0.29421 0.52603,-0.43986c-0.30108,-0.14565 -0.52292,-0.32994 -0.66863,-0.54987c-0.14259,-0.21993 -0.2155,-0.45777 -0.2155,-0.71333c0,-0.3537 0.07602,-0.67176 0.22817,-0.95118c0.15204,-0.27639 0.33909,-0.52612 0.56404,-0.74906c-0.19016,-0.21399 -0.34232,-0.45475 -0.45323,-0.72521c-0.11081,-0.27046 -0.16793,-0.59738 -0.16793,-0.98087c0,-0.44579 0.07935,-0.8471 0.24095,-1.2008c0.1616,-0.3537 0.38344,-0.65395 0.66852,-0.89763c0.28519,-0.24368 0.62739,-0.431 1.02672,-0.56175c0.39933,-0.13075 0.83656,-0.19617 1.30569,-0.19617c0.25651,0 0.49113,0.0149 0.71297,0.04157c0.2185,0.02979 0.42456,0.06834 0.61784,0.11887l2.52569,0c0.1077,0 0.18372,0.04761 0.23751,0.14273c0.0539,0.09804 0.07935,0.24368 0.07935,0.43986zm-2.39565,2.05686c0,-0.53205 -0.15538,-0.94816 -0.46913,-1.24539c-0.31364,-0.30015 -0.75721,-0.44881 -1.33081,-0.44881c-0.29797,0 -0.55771,0.04761 -0.77643,0.13971c-0.21873,0.0921 -0.40244,0.21993 -0.54826,0.38047c-0.14571,0.16346 -0.2534,0.35068 -0.3232,0.56175c-0.0728,0.21107 -0.1077,0.43392 -0.1077,0.66582c0,0.51414 0.15526,0.91836 0.46902,1.21559c0.31364,0.29431 0.75098,0.44288 1.31514,0.44288c0.30097,0 0.56393,-0.04459 0.78899,-0.13367c0.22184,-0.0922 0.40556,-0.21409 0.55137,-0.37453c0.14571,-0.16054 0.25351,-0.34484 0.3232,-0.55289c0.07291,-0.20805 0.10781,-0.42506 0.10781,-0.65093zm0.76043,6.20318c0,-0.33588 -0.14571,-0.59446 -0.44045,-0.77876c-0.29152,-0.18128 -0.69074,-0.27931 -1.19144,-0.29129l-2.15803,-0.06834c-0.1965,0.14565 -0.36121,0.28243 -0.48791,0.41318c-0.12692,0.13075 -0.22506,0.25264 -0.30119,0.37151c-0.0728,0.11887 -0.12348,0.23784 -0.15204,0.3537c-0.02856,0.11595 -0.04123,0.23482 -0.04123,0.3537c0,0.37755 0.20283,0.6628 0.61161,0.85606c0.40889,0.19315 0.97593,0.29129 1.7048,0.29129c0.46279,0 0.85245,-0.04167 1.1631,-0.12481c0.31364,-0.08626 0.56393,-0.19617 0.75409,-0.33588c0.19327,-0.13971 0.32953,-0.29723 0.41511,-0.47559c0.08247,-0.18128 0.12359,-0.36859 0.12359,-0.56477z" fill="#552D91" fill-rule="nonzero"/>
    <path stroke="null" id="17" class="fil3" d="m176.78096,12.73172c0,0.22597 -0.06013,0.38641 -0.1806,0.48455c-0.12048,0.09512 -0.25985,0.14263 -0.41511,0.14263l-5.4885,0c0,0.43694 0.04757,0.82928 0.13948,1.17704c0.09191,0.35078 0.24718,0.65093 0.46568,0.90065c0.2155,0.24962 0.49769,0.43986 0.84301,0.57362c0.34865,0.13377 0.77321,0.20211 1.27379,0.20211c0.39622,0 0.75109,-0.02969 1.05851,-0.0922c0.31053,-0.05939 0.57982,-0.12773 0.80489,-0.20211c0.22506,-0.07428 0.412,-0.14263 0.55771,-0.20211c0.14582,-0.06241 0.25351,-0.0921 0.32965,-0.0921c0.04435,0 0.08224,0.00896 0.11714,0.02969c0.03168,0.02084 0.06024,0.05053 0.07613,0.0922c0.01901,0.03865 0.0349,0.09512 0.04435,0.16638c0.00945,0.07438 0.01256,0.16054 0.01256,0.26462c0,0.07428 -0.00311,0.13961 -0.00945,0.19617c-0.00622,0.05345 -0.01256,0.10398 -0.02212,0.14565c-0.00945,0.04449 -0.02534,0.08314 -0.04757,0.11887c-0.02223,0.03271 -0.04757,0.06532 -0.08247,0.09804c-0.03468,0.03271 -0.13615,0.08324 -0.30097,0.1546c-0.16793,0.07428 -0.38344,0.14263 -0.64962,0.21399c-0.26618,0.06834 -0.5736,0.13075 -0.92214,0.1843c-0.34854,0.05647 -0.71931,0.08324 -1.11542,0.08324c-0.68763,0 -1.28657,-0.08918 -1.80305,-0.27056c-0.51659,-0.17826 -0.9507,-0.44579 -1.30247,-0.79949c-0.35176,-0.35672 -0.61795,-0.79959 -0.79544,-1.33457c-0.1806,-0.53205 -0.2693,-1.15329 -0.2693,-1.8636c0,-0.67176 0.0918,-1.2781 0.27885,-1.81609c0.18372,-0.53507 0.45323,-0.99275 0.80177,-1.36728c0.34854,-0.37453 0.7731,-0.65988 1.26757,-0.862c0.49436,-0.19909 1.04884,-0.30015 1.66045,-0.30015c0.65596,0 1.21366,0.09804 1.67312,0.29723c0.46268,0.19617 0.83978,0.46361 1.13764,0.79657c0.29475,0.33286 0.51336,0.72521 0.65284,1.17704c0.13937,0.44881 0.20906,0.93024 0.20906,1.44156l0,0.2615zm-1.54009,-0.42496c0.01901,-0.755 -0.15838,-1.34946 -0.53548,-1.78046c-0.3771,-0.431 -0.9317,-0.64499 -1.67001,-0.64499c-0.38021,0 -0.71297,0.06542 -0.99827,0.19919c-0.28508,0.13367 -0.52281,0.31203 -0.71608,0.53497c-0.19339,0.21993 -0.34232,0.47851 -0.44679,0.7698c-0.10458,0.29431 -0.16482,0.6004 -0.17749,0.92148l4.54413,0z" fill="#552D91" fill-rule="nonzero"/>
    <path stroke="null" id="18" class="fil3" d="m186.31612,16.99399c0,0.04761 -0.01278,0.08626 -0.03801,0.11897c-0.02534,0.02969 -0.06335,0.05939 -0.12048,0.08314c-0.05702,0.02084 -0.13304,0.03865 -0.2344,0.05053c-0.09836,0.01188 -0.22184,0.01792 -0.37077,0.01792c-0.15849,0 -0.2853,-0.00604 -0.38344,-0.01792c-0.10147,-0.01188 -0.17749,-0.02969 -0.23462,-0.05053c-0.05702,-0.02375 -0.09491,-0.05345 -0.12037,-0.08314c-0.02534,-0.03271 -0.03801,-0.07136 -0.03801,-0.11897l0,-4.59222c0,-0.44579 -0.03801,-0.80845 -0.11092,-1.07891c-0.07291,-0.27348 -0.1806,-0.5083 -0.3232,-0.70739c-0.14271,-0.19617 -0.32331,-0.34776 -0.54815,-0.45183c-0.22506,-0.10398 -0.48491,-0.15752 -0.77966,-0.15752c-0.38344,0 -0.76365,0.12783 -1.14387,0.38349c-0.38344,0.25556 -0.78277,0.63009 -1.20111,1.1235l0,5.48089c0,0.04761 -0.01267,0.08626 -0.0379,0.11897c-0.02545,0.02969 -0.06346,0.05939 -0.12048,0.08314c-0.05702,0.02084 -0.13315,0.03865 -0.23451,0.05053c-0.09825,0.01188 -0.22495,0.01792 -0.38021,0.01792c-0.15215,0 -0.27574,-0.00604 -0.37399,-0.01792c-0.10147,-0.01188 -0.1806,-0.02969 -0.23773,-0.05053c-0.06013,-0.02375 -0.10125,-0.05345 -0.12348,-0.08314c-0.02223,-0.03271 -0.03179,-0.07136 -0.03179,-0.11897l0,-7.84091c0,-0.04751 0.00956,-0.08616 0.02856,-0.11887c0.01901,-0.02969 0.0539,-0.05949 0.11092,-0.08616c0.05702,-0.02677 0.12681,-0.04459 0.2155,-0.05355c0.08558,-0.00896 0.20283,-0.01188 0.34543,-0.01188c0.13615,0 0.25029,0.00292 0.33898,0.01188c0.09203,0.00896 0.1616,0.02677 0.21239,0.05355c0.04757,0.02667 0.08547,0.05647 0.1077,0.08616c0.01901,0.03271 0.03168,0.07136 0.03168,0.11887l0,1.03734c0.46913,-0.49632 0.93492,-0.85898 1.40383,-1.08786c0.4659,-0.22889 0.93481,-0.34474 1.41016,-0.34474c0.5546,0 1.0235,0.08918 1.40383,0.26452c0.38021,0.17836 0.68763,0.4161 0.92214,0.71041c0.23451,0.29723 0.40244,0.64499 0.5038,1.04327c0.10147,0.39829 0.15215,0.87679 0.15215,1.4326l0,4.78537z" fill="#552D91" fill-rule="nonzero"/>
    <path stroke="null" id="19" class="fil3" d="m196.22838,12.73172c0,0.22597 -0.06024,0.38641 -0.1806,0.48455c-0.12048,0.09512 -0.25985,0.14263 -0.41522,0.14263l-5.48839,0c0,0.43694 0.04746,0.82928 0.13948,1.17704c0.0918,0.35078 0.24707,0.65093 0.46568,0.90065c0.2155,0.24962 0.49758,0.43986 0.8429,0.57362c0.34865,0.13377 0.77332,0.20211 1.2739,0.20211c0.39622,0 0.75109,-0.02969 1.05851,-0.0922c0.31042,-0.05939 0.57982,-0.12773 0.80489,-0.20211c0.22495,-0.07428 0.41189,-0.14263 0.5576,-0.20211c0.14593,-0.06241 0.25362,-0.0921 0.32976,-0.0921c0.04423,0 0.08224,0.00896 0.11714,0.02969c0.03168,0.02084 0.06024,0.05053 0.07602,0.0922c0.01901,0.03865 0.0349,0.09512 0.04435,0.16638c0.00956,0.07438 0.01267,0.16054 0.01267,0.26462c0,0.07428 -0.00311,0.13961 -0.00945,0.19617c-0.00634,0.05345 -0.01267,0.10398 -0.02223,0.14565c-0.00945,0.04449 -0.02534,0.08314 -0.04746,0.11887c-0.02223,0.03271 -0.04757,0.06532 -0.08247,0.09804c-0.03479,0.03271 -0.13615,0.08324 -0.30097,0.1546c-0.16793,0.07428 -0.38344,0.14263 -0.64973,0.21399c-0.26607,0.06834 -0.57349,0.13075 -0.92203,0.1843c-0.34854,0.05647 -0.71931,0.08324 -1.11542,0.08324c-0.68763,0 -1.28668,-0.08918 -1.80316,-0.27056c-0.51647,-0.17826 -0.95059,-0.44579 -1.30236,-0.79949c-0.35176,-0.35672 -0.61795,-0.79959 -0.79544,-1.33457c-0.1806,-0.53205 -0.2693,-1.15329 -0.2693,-1.8636c0,-0.67176 0.0918,-1.2781 0.27885,-1.81609c0.18372,-0.53507 0.45312,-0.99275 0.80177,-1.36728c0.34854,-0.37453 0.7731,-0.65988 1.26746,-0.862c0.49447,-0.19909 1.04884,-0.30015 1.66056,-0.30015c0.65585,0 1.21366,0.09804 1.67301,0.29723c0.46279,0.19617 0.8399,0.46361 1.13775,0.79657c0.29464,0.33286 0.51336,0.72521 0.65273,1.17704c0.13937,0.44881 0.20917,0.93024 0.20917,1.44156l0,0.2615zm-1.54009,-0.42496c0.01901,-0.755 -0.15838,-1.34946 -0.53548,-1.78046c-0.3771,-0.431 -0.9317,-0.64499 -1.67012,-0.64499c-0.38021,0 -0.71297,0.06542 -0.99816,0.19919c-0.28508,0.13367 -0.52281,0.31203 -0.71608,0.53497c-0.19339,0.21993 -0.34232,0.47851 -0.44679,0.7698c-0.1047,0.29431 -0.16482,0.6004 -0.17749,0.92148l4.54413,0z" fill="#552D91" fill-rule="nonzero"/>
    <path stroke="null" id="20" class="fil3" d="m203.82412,14.854c0,0.40121 -0.07924,0.75792 -0.23773,1.07297c-0.15838,0.31213 -0.38021,0.57664 -0.67174,0.79063c-0.29152,0.21399 -0.63684,0.37745 -1.03939,0.48747c-0.40244,0.11001 -0.84601,0.16648 -1.3277,0.16648c-0.29797,0 -0.57994,-0.02084 -0.84934,-0.06542c-0.2693,-0.04157 -0.51014,-0.09512 -0.72564,-0.16346c-0.21228,-0.06542 -0.39289,-0.13377 -0.54181,-0.20513c-0.14904,-0.07126 -0.25674,-0.13669 -0.32331,-0.19315c-0.06969,-0.05647 -0.12037,-0.13971 -0.14893,-0.24378c-0.03168,-0.10398 -0.04746,-0.2467 -0.04746,-0.42798c0,-0.11001 0.00622,-0.20211 0.01889,-0.27639c0.01267,-0.0773 0.02856,-0.13679 0.04446,-0.1843c0.01901,-0.04761 0.04757,-0.08022 0.07924,-0.10106c0.0349,-0.02084 0.0728,-0.02969 0.11725,-0.02969c0.06657,0 0.16793,0.03855 0.30097,0.11887c0.13315,0.0773 0.29797,0.16346 0.49125,0.25556c0.19316,0.0922 0.42456,0.17836 0.69086,0.25566c0.26607,0.08022 0.57027,0.11887 0.91569,0.11887c0.25985,0 0.49447,-0.02677 0.70353,-0.08022c0.21228,-0.05053 0.39289,-0.12783 0.54815,-0.23191c0.15526,-0.10106 0.27263,-0.23181 0.3581,-0.38933c0.08247,-0.15752 0.1237,-0.34474 0.1237,-0.56175c0,-0.21993 -0.06024,-0.40724 -0.1806,-0.55581c-0.12059,-0.15158 -0.27897,-0.28535 -0.47546,-0.40131c-0.19961,-0.11585 -0.42134,-0.21993 -0.66863,-0.30911c-0.24707,-0.08918 -0.50069,-0.1843 -0.76365,-0.28233c-0.25985,-0.10106 -0.51659,-0.21107 -0.76688,-0.33588c-0.2504,-0.12481 -0.47224,-0.27639 -0.67174,-0.45777c-0.1965,-0.18128 -0.35487,-0.39527 -0.47546,-0.64499c-0.12037,-0.24962 -0.1806,-0.54685 -0.1806,-0.89763c0,-0.30609 0.06346,-0.6004 0.19016,-0.88273c0.12681,-0.28243 0.31686,-0.52914 0.57038,-0.74011c0.25674,-0.21107 0.5736,-0.38349 0.95393,-0.51122c0.38021,-0.12783 0.82389,-0.19024 1.33403,-0.19024c0.22184,0 0.44368,0.01782 0.66863,0.05345c0.22184,0.03573 0.42145,0.08324 0.60216,0.13679c0.1806,0.05345 0.33265,0.11293 0.45935,0.17534c0.12692,0.06542 0.22506,0.11887 0.28852,0.1694c0.06646,0.04761 0.1077,0.08918 0.12981,0.12189c0.02223,0.03563 0.03812,0.07428 0.04757,0.11887c0.00956,0.04157 0.01901,0.09512 0.02845,0.15752c0.00956,0.06542 0.01267,0.14273 0.01267,0.23482c0,0.09804 -0.00311,0.1843 -0.01267,0.25566c-0.00945,0.07126 -0.02523,0.13075 -0.04746,0.17534c-0.02223,0.04751 -0.04757,0.08022 -0.07924,0.10106c-0.03168,0.02084 -0.06646,0.02969 -0.10136,0.02969c-0.05713,0 -0.13626,-0.03271 -0.24407,-0.09804c-0.10447,-0.06241 -0.24084,-0.13085 -0.40878,-0.20513c-0.16793,-0.07428 -0.36443,-0.14263 -0.58938,-0.20503c-0.22495,-0.06542 -0.4848,-0.09814 -0.77643,-0.09814c-0.25974,0 -0.49113,0.02677 -0.68763,0.08324c-0.19961,0.05345 -0.36121,0.13075 -0.48791,0.23181c-0.12681,0.10106 -0.22506,0.21993 -0.28852,0.35964c-0.06646,0.13679 -0.09814,0.28837 -0.09814,0.44881c0,0.22597 0.06346,0.4162 0.18694,0.57071c0.12359,0.1546 0.28197,0.28837 0.48169,0.40422c0.1965,0.11595 0.42467,0.21993 0.67807,0.31505c0.25362,0.0922 0.51025,0.18732 0.77332,0.28535c0.26307,0.10106 0.52281,0.21107 0.77955,0.33296c0.25663,0.12179 0.4848,0.27046 0.6813,0.44288c0.19961,0.17534 0.3581,0.38339 0.47846,0.62707c0.12037,0.24378 0.1806,0.53507 0.1806,0.87096z" fill="#552D91" fill-rule="nonzero"/>
   </g>
  </g>
 </g>

</svg>