<svg width="246" height="79" xmlns="http://www.w3.org/2000/svg">
 <!-- Created with UXWing SVG Editor - https://uxwing.com/svg-icon-editor/ -->

 <g>
  <title>background</title>
  <rect fill="none" id="canvas_background" height="81" width="248" y="-1" x="-1"/>
  <g display="none" overflow="visible" y="0" x="0" height="100%" width="100%" id="canvasGrid">
   <rect fill="url(#gridpattern)" stroke-width="0" y="0" x="0" height="100%" width="100%"/>
  </g>
 </g>
 <g>
  <title>Layer 1</title>
  <defs>
   <style type="text/css">
    <![CDATA[
    .str0 {stroke:#10846F;stroke-width:7.62;stroke-miterlimit:22.9256}
    .fil2 {fill:white}
    .fil1 {fill:#FEFEFE;fill-rule:nonzero}
    .fil0 {fill:#FEFEFE}
    .fil3 {fill:#10846F}
   ]]>
   </style>
  </defs>
  <defs>
   <style type="text/css">
    <![CDATA[
    .str0 {stroke:#10846F;stroke-width:7.62;stroke-miterlimit:22.9256}
    .fil2 {fill:white}
    .fil1 {fill:#FEFEFE;fill-rule:nonzero}
    .fil0 {fill:#FEFEFE}
    .fil3 {fill:#10846F}
   ]]>
   </style>
  </defs>
  <g stroke="null" id="svg_32">
   <g stroke="null" transform="matrix(0.016930314617065362,0,0,0.01812900078533243,-130835.69059429111,-140317.12074996874) " id="svg_22">
    <metadata stroke="null" stroke-width="0" transform="translate(0,86.36787414550781) translate(50.95719909667969,0) translate(-50.918663024902344,-665.72705078125) translate(0,693.3005981445312) translate(0,-693.2114868164062) translate(0,0.05039549618959427) translate(0,-0.1996356099843979) translate(0,-45.19944763183594) translate(12.207099914550781,0) translate(-50.918663024902344,427.9674072265625) translate(0,283.8370056152344) translate(-2189.50244140625,-108.8205795288086) translate(-101.83731842041016,72.54705047607422) translate(203.6746368408203,-145.09410095214844) translate(9.313225746154785e-10,93.09235382080078) translate(-1267.9293212890625,-9.313225746154785e-10) translate(-3309.713134765625,-6239.04638671875) translate(9.313225746154785e-10,0.08924473822116852) translate(9.313225746154785e-10,126.0893325805664) translate(9.313225746154785e-10,126.35707092285156) translate(9.313225746154785e-10,126.12528991699219) translate(9.313225746154785e-10,126.39366912841797) translate(9.313225746154785e-10,252.16197204589844) translate(9.313225746154785e-10,463.1978454589844) translate(9.313225746154785e-10,125.8479232788086) translate(9.313225746154785e-10,0.11588975042104721) translate(9.313225746154785e-10,-378.38421630859375) translate(9.313225746154785e-10,-0.1884412318468094) translate(9.313225746154785e-10,-252.68846130371094) translate(9.313225746154785e-10,-126.22480773925781) translate(9.313225746154785e-10,-125.99302673339844) translate(9.313225746154785e-10,-252.76100158691406) translate(9.313225746154785e-10,-252.29745483398438) translate(9.313225746154785e-10,-462.83349609375) translate(9.313225746154785e-10,-125.9833984375) translate(9.313225746154785e-10,-252.75137329101562) translate(9.313225746154785e-10,-252.28781127929688) translate(9.313225746154785e-10,-252.3244171142578) translate(9.313225746154785e-10,-252.8605194091797) translate(9.313225746154785e-10,-378.3970642089844) translate(9.313225746154785e-10,-589.2014770507812) translate(9.313225746154785e-10,-589.1193237304688) translate(9.313225746154785e-10,-967.5369262695312) translate(9.313225746154785e-10,-252.7597198486328) translate(9.313225746154785e-10,126.20426177978516) translate(9.313225746154785e-10,126.47264099121094) translate(9.313225746154785e-10,252.2403106689453) translate(9.313225746154785e-10,0.27672290802001953) translate(9.313225746154785e-10,378.2770080566406) translate(9.313225746154785e-10,463.0813293457031) translate(9.313225746154785e-10,378.7309265136719) translate(9.313225746154785e-10,252.53564453125) translate(9.313225746154785e-10,378.5716857910156) translate(9.313225746154785e-10,126.37632751464844) translate(9.313225746154785e-10,462.64410400390625) translate(9.313225746154785e-10,967.7943725585938) translate(9.313225746154785e-10,129.0164337158203) translate(9.313225746154785e-10,0.07158840447664261) translate(2230.657958984375,-9.313225746154785e-10) translate(-0.3127407729625702,-9.313225746154785e-10) translate(0.18701358139514923,-9.313225746154785e-10) translate(0.18701358139514923,-9.313225746154785e-10) translate(-0.3127407729625702,-9.313225746154785e-10) translate(0.18701358139514923,-9.313225746154785e-10) translate(-0.3127407729625702,-9.313225746154785e-10) translate(-176.81300354003906,-9.313225746154785e-10) translate(-177.11582946777344,-9.313225746154785e-10) translate(-177.4191131591797,-9.313225746154785e-10) translate(-354.2221984863281,-9.313225746154785e-10) translate(-177.3280792236328,-9.313225746154785e-10) translate(-649.631103515625,-9.313225746154785e-10) translate(-517.9091186523438,-9.313225746154785e-10) translate(9.313225746154785e-10,0.07158840447664261) translate(6778.658203125,-9.313225746154785e-10) translate(-6778.36767578125,-9.313225746154785e-10) translate(-1151.8419189453125,-9.313225746154785e-10) translate(9.313225746154785e-10,-2019.678466796875) translate(9.313225746154785e-10,210.28179931640625) translate(487.9382629394531,-9.313225746154785e-10) translate(-0.0959852784872055,-9.313225746154785e-10) translate(-354.0964660644531,-9.313225746154785e-10) translate(-177.2023468017578,-9.313225746154785e-10) translate(-177.5051727294922,-9.313225746154785e-10) translate(0.1919705718755722,-9.313225746154785e-10) translate(-354.3082580566406,-9.313225746154785e-10) translate(-531.9143676757812,-9.313225746154785e-10) translate(-354.3235778808594,-9.313225746154785e-10) translate(-1003.929443359375,-9.313225746154785e-10) translate(-354.31365966796875,-9.313225746154785e-10) translate(177.08067321777344,-9.313225746154785e-10) translate(177.3834991455078,-9.313225746154785e-10) translate(177.18612670898438,-9.313225746154785e-10) translate(-0.010815242305397987,-9.313225746154785e-10) translate(176.98965454101562,-9.313225746154785e-10) translate(531.792724609375,-9.313225746154785e-10) translate(531.2014770507812,-9.313225746154785e-10) translate(827.1110229492188,-9.313225746154785e-10) translate(0.1919705718755722,-9.313225746154785e-10) translate(177.1915283203125,-9.313225746154785e-10) translate(354.4948425292969,-9.313225746154785e-10) translate(177.1009521484375,-9.313225746154785e-10) translate(191.90386962890625,-9.313225746154785e-10) translate(-10408.25390625,-2213.616455078125) translate(7737741,0) translate(0,7742204) " id="svg_24"/>
    <g stroke="null" id="svg_23">
     <path stroke="null" stroke-width="0" id="svg_26" d="m7731572.53491,7742369.431121l-48.56,700.24c-1.7,13.63 -2.98,23.43 -3.83,29.4c-0.85,5.96 -8.95,8.94 -24.28,8.94l-140.56,0c-95.41,0 -163.56,-18.74 -204.45,-56.22c-40.88,-37.48 -61.33,-91.15 -61.33,-161.01c0,-34.07 2.55,-92.43 7.67,-175.06c5.11,-82.63 11.92,-176.76 20.44,-282.39c8.52,-105.64 17.04,-217.23 25.56,-334.79c8.52,-117.55 17.03,-228.3 25.56,-332.23c8.51,-103.92 15.33,-195.08 20.44,-273.45c5.11,-78.37 7.67,-132.04 7.67,-161c0,-25.56 13.63,-38.34 40.88,-38.34l899.58,0c10.22,0 19.6,2.56 28.11,7.67c8.52,5.11 12.78,14.48 12.78,28.11l-10.22,150.78c-3.41,51.12 -17.46,92.43 -42.17,123.95c-24.71,31.52 -75.39,47.28 -152.06,47.28l-352.67,0l-25.56,360.34l362.9,0c10.22,0 19.59,2.56 28.11,7.67c8.52,5.11 12.78,14.48 12.78,28.11l-10.22,150.78c-3.41,51.11 -17.47,92.43 -42.17,123.95c-24.71,31.52 -75.39,47.27 -152.06,47.27l-222.34,0zm1426.03,-1075.91c42.6,0 77.95,8.09 106.06,24.28c28.12,16.19 51.54,37.48 70.28,63.89c18.75,26.41 34.08,56.65 46.01,90.73c11.92,34.07 22.14,69 30.66,104.78c68.15,276 124.37,503.45 168.67,682.35c44.3,178.89 79.23,323.28 104.78,433.17c25.56,109.9 43.45,191.25 53.67,244.06c10.22,52.82 15.33,89.45 15.33,109.9c0,23.85 -5.53,40.03 -16.61,48.55c-11.07,8.52 -28.54,12.78 -52.39,12.78l-130.33,0c-73.26,0 -131.62,-8.94 -175.06,-26.83c-43.45,-17.89 -76.67,-43.88 -99.67,-77.95c-23,-34.07 -39.61,-75.39 -49.84,-123.95c-10.22,-48.55 -18.74,-103.5 -25.55,-164.83l-444.68,0l-84.34,352.67c-8.51,27.26 -28.11,40.89 -58.78,40.89l-135.44,0c-27.26,0 -55.37,-2.98 -84.34,-8.94c-28.96,-5.97 -54.94,-15.77 -77.95,-29.4c-22.99,-13.62 -42.16,-31.08 -57.49,-52.39c-15.34,-21.29 -23.01,-47.27 -23.01,-77.94c0,-37.48 11.93,-98.81 35.78,-184c23.85,-85.19 54.1,-181.88 90.72,-290.07c36.64,-108.18 77.53,-221.49 122.68,-339.89c45.15,-118.41 89.01,-230.43 131.61,-336.07c42.59,-105.63 81.35,-198.48 116.28,-278.56c34.93,-80.07 61.76,-136.3 80.51,-168.67c13.63,-23.85 25.97,-37.91 37.05,-42.17c11.08,-4.26 31.95,-6.39 62.61,-6.39l242.78,0zm-306.67,1050.36l293.9,0l-107.34,-674.68l-186.56,674.68zm1349.37,764.13c-95.41,0 -163.56,-18.74 -204.45,-56.22c-40.89,-37.48 -61.33,-91.15 -61.33,-161.01c0,-34.07 2.55,-92.43 7.66,-175.06c5.11,-82.63 11.93,-176.76 20.45,-282.39c8.51,-105.64 17.04,-217.23 25.55,-334.79c8.52,-117.55 17.04,-228.3 25.56,-332.23c8.52,-103.92 15.33,-195.08 20.44,-273.45c5.12,-78.37 7.67,-132.04 7.67,-161c0,-25.56 13.63,-38.34 40.89,-38.34l140.56,0c103.93,0 173.78,22.15 209.56,66.45c35.78,44.3 53.67,109.89 53.67,196.78c0,8.52 -1.28,35.78 -3.84,81.78c-2.55,46 -6.38,103.93 -11.5,173.78c-5.11,69.86 -10.65,147.81 -16.61,233.84c-5.96,86.04 -11.93,174.21 -17.88,264.51c-5.97,90.3 -11.93,178.47 -17.9,264.51c-5.96,86.04 -11.5,163.98 -16.61,233.83c-5.11,69.85 -9.37,128.21 -12.78,175.06c-3.4,46.85 -5.96,75.4 -7.66,85.61c-1.71,13.63 -5.12,23.43 -10.22,29.4c-5.12,5.96 -15.34,8.94 -30.67,8.94l-140.56,0zm802.46,0c-97.11,0 -165.69,-19.17 -205.73,-57.5c-40.03,-38.33 -60.05,-94.98 -60.05,-169.95c0,-20.44 1.27,-54.95 3.83,-103.5c2.56,-48.56 6.39,-106.06 11.5,-172.51c5.11,-66.44 10.65,-139.28 16.61,-218.5c5.96,-79.23 12.35,-159.73 19.17,-241.51c13.63,-172.08 23.43,-311.78 29.39,-419.12c5.96,-107.33 10.64,-191.67 14.05,-253c5.12,-76.67 10.23,-125.65 15.34,-146.95c5.11,-21.3 16.18,-31.95 33.22,-31.95c52.81,0 106.91,-1.27 162.28,-3.83c55.37,-2.56 108.61,-5.53 159.73,-8.95c51.11,-3.41 99.24,-6.38 144.39,-8.94c45.15,-2.56 85.62,-3.83 121.39,-3.83c109.04,0 202.75,13.63 281.12,40.89c78.37,27.25 141.84,65.59 190.39,115c48.56,49.41 84.34,109.04 107.34,178.89c23,69.85 34.5,148.23 34.5,235.12c0,132.89 -26.41,251.3 -79.22,355.23c-52.82,103.93 -137.16,183.15 -253.01,237.67l214.67,306.68c39.19,57.92 69,102.65 89.45,134.16c20.45,31.52 30.67,54.95 30.67,70.29c0,11.92 -7.25,28.53 -21.73,49.83c-14.48,21.3 -35.78,42.59 -63.89,63.89c-28.11,21.3 -62.18,39.61 -102.22,54.94c-40.04,15.34 -84.76,23.01 -134.17,23.01c-54.52,0 -101.8,-17.89 -141.84,-53.67c-40.04,-35.78 -75.81,-83.06 -107.33,-141.84c-31.52,-58.78 -58.78,-126.5 -81.79,-203.17c-22.99,-76.67 -44.72,-156.74 -65.16,-240.23c-61.34,-3.4 -111.6,-9.37 -150.78,-17.88c-5.12,74.96 -10.23,146.52 -15.33,214.66c-5.12,68.15 -9.38,129.07 -12.78,182.73c-3.41,53.67 -6.82,97.96 -10.23,132.9c-3.4,34.92 -5.11,55.79 -5.11,62.6c-1.7,13.63 -5.11,23.43 -10.22,29.4c-5.11,5.96 -15.34,8.94 -30.67,8.94l-127.78,0zm414.01,-1456.7c-20.45,0 -43.44,1.28 -69,3.84c-25.56,2.55 -52.82,5.53 -81.78,8.94c-3.41,59.63 -7.25,130.76 -11.5,213.39c-4.26,82.64 -9.8,170.8 -16.62,264.51c59.64,13.63 111.6,20.44 155.9,20.44c52.82,0 95.83,-10.22 129.06,-30.66c33.22,-20.45 59.2,-45.58 77.94,-75.4c18.75,-29.81 31.1,-61.76 37.06,-95.83c5.97,-34.07 8.94,-64.74 8.94,-92c0,-69.86 -17.03,-123.53 -51.11,-161.01c-34.07,-37.48 -93.7,-56.22 -178.89,-56.22z" class="fil0"/>
     <path stroke="null" stroke-width="0" id="svg_27" d="m7736970.60491,7743656.611121l41.59,0l8.36,0c23.88,0 35.87,10.35 35.87,31.04c0,12.87 -4.84,23.87 -14.63,32.78c-9.69,8.91 -21.79,13.43 -36.09,13.43l-8.37,0l-57.98,0l-62.6,154.37c-43.36,106.61 -107.61,159.87 -192.77,159.87c-44.46,0 -81.32,-14.31 -110.58,-43.02c-29.16,-28.72 -43.79,-64.92 -43.79,-108.49c0,-34 8.69,-66.46 25.96,-97.49c17.28,-30.92 41.48,-57.54 72.62,-79.88c26.52,-18.7 57.22,-33.56 92.43,-44.56c35.09,-10.89 69.75,-16.4 103.97,-16.4l45.44,-1.32l14.2,-0.33l61.83,-155.79l3.52,-9.03c4.95,-13.31 11.22,-22.22 18.93,-26.62c7.59,-4.4 20.46,-6.6 38.51,-6.6l165.37,0c29.6,0 44.45,10.56 44.45,31.68c0,12.44 -4.95,23.22 -14.74,32.13c-9.79,8.91 -21.79,13.42 -35.87,13.42l-8.69,0l-137.65,0l-49.29,120.81zm-117.73,77.25l-17.39,0c-63.48,0 -114.31,14.52 -152.27,43.57c-42.58,32.46 -63.82,69.21 -63.82,110.02c0,22.01 6.71,40.38 20.13,55.24c13.43,14.85 30.15,22.22 50.07,22.22c46.43,0 84.5,-36.86 114.31,-110.68l48.97,-120.37zm477.74,95.06l35.54,0c27.18,0 40.82,9.46 40.82,28.28c0,12.98 -4.84,23.21 -14.52,30.58c-9.8,7.37 -23.11,11.12 -40.16,11.12l-41.27,0c-18.48,0 -31.13,-7.15 -37.73,-21.57c-16.18,14.42 -31.69,21.57 -46.77,21.57l-36.75,0c-23.65,0 -42.8,-8.47 -57.43,-25.31c-14.52,-16.83 -21.79,-38.84 -21.79,-66.13c0,-41.25 14.31,-78.12 42.8,-110.68c28.5,-32.46 60.74,-48.75 96.61,-48.75c27.62,0 47.64,9.35 60.4,28.17c10.79,-16.17 24.87,-24.2 42.26,-24.2c9.46,0 17.38,2.97 23.76,9.02c6.27,6.05 9.47,13.53 9.47,22.33c0,6.05 -1.77,13.32 -5.18,21.68l-3.52,8.69l-46.54,115.2zm-116.96,1.32l8.03,0c17.72,0 29.49,-7.26 35.32,-21.68l22.67,-55.78c2.97,-7.37 4.51,-13.42 4.51,-18.37c0,-5.84 -2.86,-10.9 -8.58,-15.19c-5.73,-4.29 -12.66,-6.49 -20.58,-6.49c-15.84,0 -31.25,9.13 -46.1,27.4c-14.96,18.37 -22.45,37.3 -22.45,56.88c0,22.12 9.03,33.23 27.18,33.23zm365.29,-178.24c9.58,-2.65 18.16,-3.97 25.75,-3.97c24.87,0 45.11,9.24 60.52,27.84c15.51,18.6 23.21,42.69 23.21,72.29c0,57.32 -22.11,101.99 -66.34,134.01c-15.52,11.12 -31.58,16.73 -48.31,16.73l-30.69,0c-21.24,0 -39.4,-7.59 -54.47,-22.89c-8.91,15.3 -23.1,22.89 -42.36,22.89c-9.24,0 -17.05,-2.97 -23.44,-9.02c-6.49,-6.06 -9.68,-13.32 -9.68,-21.9c0,-6.49 1.76,-13.97 5.17,-22.33l3.52,-8.7l134.79,-333.27l3.52,-9.02c10.12,-24.1 25.63,-36.09 46.65,-36.09c9.68,0 17.72,2.97 24.32,8.91c6.49,5.83 9.79,13.09 9.79,21.67c0,6.72 -1.76,14.09 -5.17,22.34l-3.52,9.02l-53.26,131.49zm-64.14,158.11c10.67,13.86 23.32,20.79 37.74,20.79c10.34,0 19.03,-2.86 26.18,-8.69c9.91,-7.92 18.49,-19.7 25.97,-35.32c7.37,-15.63 11.11,-29.6 11.11,-42.03c0,-9.68 -2.75,-17.5 -8.36,-23.66c-5.61,-6.05 -12.98,-9.13 -22.01,-9.13c-20.46,0 -36.75,15.07 -49.07,45.22l-21.56,52.82zm271.32,-87.48l-10.89,27.18c-9.9,24.1 -22.77,36.2 -38.61,36.2c-9.58,0 -17.61,-2.86 -23.99,-8.69c-6.5,-5.84 -9.68,-13.1 -9.68,-21.68c0,-4.95 2.31,-13.31 7.04,-25.19l36.42,-90.12c8.69,-21.67 21.12,-32.57 37.3,-32.57c15.84,0 25.52,7.48 29.26,22.56l2.54,10.01c1.31,5.17 3.18,8.47 5.82,9.68c2.54,1.32 8.81,1.99 18.93,1.99l75.48,0c28.06,0 42.03,9.9 42.03,29.7c0,27.29 -17.82,40.93 -53.36,40.93l-3.53,3.19c-33.77,32.9 -50.72,58.32 -50.72,76.25c0,17.94 9.69,26.85 29.05,26.85l40.71,0c27.4,0 41.15,9.46 41.15,28.28c0,13.2 -4.84,23.54 -14.41,30.8c-9.58,7.26 -23,10.9 -40.27,10.9l-63.27,0c-21.35,0 -38.84,-7.37 -52.48,-22.23c-13.54,-14.85 -20.36,-34.22 -20.36,-57.87c0,-15.08 3.63,-29.71 10.9,-43.9c7.26,-14.2 20.13,-31.58 38.5,-52.27l-33.56,0zm278.49,106.29l36.42,0c26.96,0 40.38,9.57 40.38,28.61c0,12.98 -4.73,23.21 -14.31,30.47c-9.46,7.26 -22.77,10.9 -39.94,10.9l-51.27,0c-18.92,0 -33.78,-3.86 -44.56,-11.67c-10.89,-7.7 -16.28,-18.26 -16.28,-31.57c0,-7.16 2.31,-16.18 6.82,-27.07l53.25,-131.04l3.52,-9.14c9.9,-24.31 25.75,-36.41 47.75,-36.41c9.03,0 16.84,2.97 23.44,9.02c6.49,6.05 9.79,13.31 9.79,21.67c0,6.93 -2.86,17.5 -8.69,31.69l-46.32,114.54zm42.47,-279.91c12.54,0 23.11,4.4 31.8,13.09c8.69,8.69 13.09,19.26 13.09,31.8c0,12.43 -4.4,23.11 -13.09,31.8c-8.69,8.69 -19.26,13.09 -31.8,13.09c-12.43,0 -23.11,-4.4 -31.8,-13.09c-8.69,-8.69 -13.09,-19.37 -13.09,-31.8c0,-12.54 4.4,-23.11 13.09,-31.8c8.69,-8.69 19.37,-13.09 31.8,-13.09zm231.5,349.89l-93.53,0c-26.84,0 -48.85,-9.46 -65.68,-28.39c-16.95,-18.82 -25.42,-43.35 -25.42,-73.39c0,-40.16 13.86,-75.04 41.59,-104.64c27.73,-29.59 60.3,-44.45 97.71,-44.45c25.41,0 46.1,7.16 61.94,21.35c15.96,14.19 23.88,32.68 23.88,55.45c0,15.96 -3.96,29.05 -11.88,39.28c-7.93,10.24 -18.16,15.3 -30.48,15.3c-19.7,0 -29.6,-9.25 -29.6,-27.73c0,-2.75 0,-5.06 0,-7.04c0,-2.31 0,-4.62 0,-6.71c0,-15.08 -7.48,-22.56 -22.34,-22.56c-13.97,0 -26.73,7.37 -38.29,22.23c-11.55,14.74 -17.27,31.24 -17.27,49.51c0,15.18 4.73,25.97 14.09,32.35c9.46,6.27 25.41,9.46 47.86,9.46l60.95,0c27.18,0 40.82,9.57 40.82,28.61c0,12.76 -4.84,22.88 -14.63,30.25c-9.79,7.37 -23,11.12 -39.72,11.12zm286.51,-69.98l35.54,0c27.18,0 40.82,9.46 40.82,28.28c0,12.98 -4.84,23.21 -14.52,30.58c-9.8,7.37 -23.11,11.12 -40.16,11.12l-41.26,0c-18.49,0 -31.14,-7.15 -37.74,-21.57c-16.18,14.42 -31.69,21.57 -46.77,21.57l-36.75,0c-23.65,0 -42.8,-8.47 -57.43,-25.31c-14.52,-16.83 -21.79,-38.84 -21.79,-66.13c0,-41.25 14.31,-78.12 42.81,-110.68c28.49,-32.46 60.73,-48.75 96.6,-48.75c27.62,0 47.64,9.35 60.41,28.17c10.78,-16.17 24.86,-24.2 42.25,-24.2c9.46,0 17.38,2.97 23.76,9.02c6.27,6.05 9.47,13.53 9.47,22.33c0,6.05 -1.77,13.32 -5.18,21.68l-3.52,8.69l-46.54,115.2zm-116.96,1.32l8.03,0c17.72,0 29.49,-7.26 35.32,-21.68l22.67,-55.78c2.97,-7.37 4.51,-13.42 4.51,-18.37c0,-5.84 -2.86,-10.9 -8.58,-15.19c-5.73,-4.29 -12.66,-6.49 -20.58,-6.49c-15.84,0 -31.25,9.13 -46.1,27.4c-14.96,18.37 -22.44,37.3 -22.44,56.88c0,22.12 9.02,33.23 27.17,33.23zm593.16,-1.32l38.29,0c27.18,0 40.71,9.57 40.71,28.61c0,12.98 -4.73,23.21 -14.3,30.47c-9.57,7.26 -22.89,10.9 -39.94,10.9l-65.36,0c-14.08,0 -25.52,-3.75 -34.33,-11.23c-8.69,-7.59 -13.09,-17.38 -13.09,-29.7c0,-8.37 2.86,-19.7 8.58,-34.11l29.82,-73.72c1.65,-4.29 2.53,-8.25 2.53,-11.88c0,-13.98 -7.04,-20.91 -21.23,-20.91c-10.9,0 -21.79,4.95 -32.46,14.86c-10.67,9.79 -19.26,22.88 -25.75,39.27l-35.98,88.91c-11.77,28.72 -28.93,43.13 -51.49,43.13c-8.8,0 -16.29,-2.86 -22.45,-8.7c-6.27,-5.82 -9.35,-12.65 -9.35,-20.57c0,-6.27 1.65,-13.53 4.84,-21.89l3.52,-8.81l36.31,-89.78c3.19,-7.92 4.84,-14.19 4.84,-18.7c0,-4.73 -2.2,-8.92 -6.49,-12.44c-4.29,-3.52 -9.35,-5.28 -15.07,-5.28c-23.22,0 -41.7,16.73 -55.24,50.28l-37.74,92.43c-11.77,28.94 -28.93,43.46 -51.27,43.46c-8.8,0 -16.39,-2.86 -22.77,-8.59c-6.28,-5.71 -9.47,-12.65 -9.47,-20.79c0,-6.49 1.65,-13.75 4.84,-22.01l3.52,-8.69l64.26,-158.22c9.02,-22.11 22.56,-33.22 40.6,-33.22c18.71,0 30.26,8.8 34.88,26.51c14.52,-12.32 26.41,-20.47 35.54,-24.42c9.13,-4.08 20.36,-6.06 33.67,-6.06c28.83,0 50.39,12.44 64.81,37.3c24.09,-24.86 51.16,-37.3 81.2,-37.3c20.57,0 37.73,5.95 51.6,17.94c13.86,11.88 20.79,26.51 20.79,44.01c0,10.89 -2.31,22.23 -7.04,33.78l-34.33,85.16zm240.52,-180.89c31.14,0 56.78,9.9 76.81,29.6c20.13,19.81 30.14,44.89 30.14,75.37c0,23 -5.28,45.77 -15.73,68.44c-10.57,22.66 -24.21,40.71 -40.93,54.24c-11.23,8.8 -22.78,14.86 -34.66,18.27c-11.88,3.3 -28.61,4.95 -50.06,4.95c-35.1,0 -58.65,-4.18 -70.97,-12.55c-28.72,-19.8 -43.13,-48.96 -43.13,-87.58c0,-40.82 14.74,-76.14 44.12,-105.96c29.49,-29.81 64.25,-44.78 104.41,-44.78zm-7.81,68.66c-15.84,0 -30.25,7.81 -43.24,23.55c-13.09,15.73 -19.58,33 -19.58,51.93c0,24.98 13.86,37.41 41.7,37.41c16.28,0 28.71,-5.06 37.52,-15.18c14.52,-16.51 21.78,-35.43 21.78,-56.78c0,-12.21 -3.52,-22.11 -10.56,-29.6c-7.04,-7.59 -16.28,-11.33 -27.62,-11.33zm239.2,23.55l-6.16,14.96c-9.46,21.46 -22.99,32.13 -40.38,32.13c-8.91,0 -16.83,-3.08 -23.77,-9.24c-7.04,-6.06 -10.56,-13.1 -10.56,-21.13c0,-7.48 3.08,-17.49 9.35,-30.04l42.81,-87.14c10.56,-20.9 23.65,-31.35 39.39,-31.35c8.36,0 15.51,2.74 21.56,8.25c6.05,5.5 9.02,11.99 9.02,19.47c0,1.98 -0.66,6.16 -1.98,12.54c-0.88,4.74 -1.32,8.91 -1.32,12.66c0,13.53 5.06,27.39 15.3,41.48l18.48,25.52c18.82,25.97 28.28,51.17 28.28,75.48c0,27.07 -10.12,49.63 -30.37,67.78c-20.13,18.16 -45.33,27.29 -75.48,27.29l-67.34,0c-27.17,0 -40.71,-9.46 -40.71,-28.28c0,-12.98 4.85,-23.22 14.42,-30.59c9.68,-7.37 22.89,-11.11 39.83,-11.11l37.41,0c30.03,0 45,-10.89 45,-32.68c0,-7.92 -2.86,-17.38 -8.47,-28.17l-14.31,-27.83zm395.55,0l-6.16,14.96c-9.46,21.46 -22.99,32.13 -40.38,32.13c-8.91,0 -16.83,-3.08 -23.77,-9.24c-7.04,-6.06 -10.56,-13.1 -10.56,-21.13c0,-7.48 3.08,-17.49 9.35,-30.04l42.81,-87.14c10.56,-20.9 23.65,-31.35 39.39,-31.35c8.36,0 15.51,2.74 21.56,8.25c6.05,5.5 9.02,11.99 9.02,19.47c0,1.98 -0.66,6.16 -1.98,12.54c-0.88,4.74 -1.32,8.91 -1.32,12.66c0,13.53 5.06,27.39 15.3,41.48l18.48,25.52c18.82,25.97 28.28,51.17 28.28,75.48c0,27.07 -10.12,49.63 -30.37,67.78c-20.13,18.16 -45.33,27.29 -75.48,27.29l-67.33,0c-27.18,0 -40.72,-9.46 -40.72,-28.28c0,-12.98 4.85,-23.22 14.42,-30.59c9.68,-7.37 22.89,-11.11 39.83,-11.11l37.41,0c30.03,0 45,-10.89 45,-32.68c0,-7.92 -2.86,-17.38 -8.47,-28.17l-14.31,-27.83zm272.43,-92.21c31.14,0 56.78,9.9 76.8,29.6c20.14,19.81 30.15,44.89 30.15,75.37c0,23 -5.28,45.77 -15.73,68.44c-10.57,22.66 -24.21,40.71 -40.93,54.24c-11.23,8.8 -22.78,14.86 -34.66,18.27c-11.89,3.3 -28.61,4.95 -50.07,4.95c-35.1,0 -58.64,-4.18 -70.97,-12.55c-28.71,-19.8 -43.13,-48.96 -43.13,-87.58c0,-40.82 14.75,-76.14 44.12,-105.96c29.49,-29.81 64.26,-44.78 104.42,-44.78zm-7.81,68.66c-15.84,0 -30.26,7.81 -43.24,23.55c-13.09,15.73 -19.59,33 -19.59,51.93c0,24.98 13.87,37.41 41.71,37.41c16.28,0 28.71,-5.06 37.51,-15.18c14.53,-16.51 21.79,-35.43 21.79,-56.78c0,-12.21 -3.52,-22.11 -10.56,-29.6c-7.04,-7.59 -16.29,-11.33 -27.62,-11.33zm370.69,112.23l38.72,0c27.18,0 40.72,9.57 40.72,28.61c0,12.98 -4.85,23.21 -14.42,30.47c-9.68,7.26 -23,10.9 -39.83,10.9l-67.33,0c-13.21,0 -24.32,-3.97 -33.34,-11.89c-8.92,-8.03 -13.43,-18.04 -13.43,-30.03c0,-7.27 3.08,-18.27 9.13,-32.9l28.83,-70.31c3.08,-7.26 4.73,-13.2 4.95,-17.72c0.22,-5.16 -1.87,-9.57 -6.27,-13.2c-4.4,-3.63 -10.12,-5.5 -16.94,-5.5c-22.23,0 -40.16,16.62 -53.7,49.96l-38.07,93.63c-11.44,28.39 -28.49,42.58 -51.05,42.58c-9.35,0 -17.16,-2.75 -23.65,-8.37c-6.5,-5.6 -9.69,-12.54 -9.69,-20.68c0,-6.05 1.76,-13.2 5.17,-21.67l3.53,-8.7l65.13,-160.75c8.47,-20.9 22.67,-31.35 42.91,-31.35c16.62,0 28.39,7.37 35.54,22c23,-17.28 45,-25.97 65.8,-25.97c20.24,0 36.97,5.84 50.06,17.39c13.1,11.66 19.69,26.4 19.69,44.23c0,9.9 -2.42,20.69 -7.15,32.57l-35.31,86.7zm172.19,-106.29l-10.89,27.18c-9.91,24.1 -22.78,36.2 -38.62,36.2c-9.58,0 -17.61,-2.86 -23.99,-8.69c-6.49,-5.84 -9.68,-13.1 -9.68,-21.68c0,-4.95 2.31,-13.31 7.04,-25.19l36.42,-90.12c8.69,-21.67 21.12,-32.57 37.3,-32.57c15.84,0 25.53,7.48 29.26,22.56l2.54,10.01c1.32,5.17 3.19,8.47 5.83,9.68c2.53,1.32 8.8,1.99 18.92,1.99l75.48,0c28.06,0 42.03,9.9 42.03,29.7c0,27.29 -17.82,40.93 -53.36,40.93l-3.52,3.19c-33.78,32.9 -50.73,58.32 -50.73,76.25c0,17.94 9.69,26.85 29.05,26.85l40.71,0c27.4,0 41.15,9.46 41.15,28.28c0,13.2 -4.84,23.54 -14.41,30.8c-9.57,7.26 -23,10.9 -40.27,10.9l-63.27,0c-21.34,0 -38.84,-7.37 -52.48,-22.23c-13.53,-14.85 -20.36,-34.22 -20.36,-57.87c0,-15.08 3.64,-29.71 10.9,-43.9c7.26,-14.2 20.13,-31.58 38.51,-52.27l-33.56,0zm278.48,106.29l36.42,0c26.96,0 40.38,9.57 40.38,28.61c0,12.98 -4.73,23.21 -14.3,30.47c-9.47,7.26 -22.78,10.9 -39.94,10.9l-51.28,0c-18.92,0 -33.78,-3.86 -44.56,-11.67c-10.89,-7.7 -16.28,-18.26 -16.28,-31.57c0,-7.16 2.31,-16.18 6.82,-27.07l53.25,-131.04l3.52,-9.14c9.9,-24.31 25.75,-36.41 47.76,-36.41c9.02,0 16.83,2.97 23.43,9.02c6.49,6.05 9.79,13.31 9.79,21.67c0,6.93 -2.86,17.5 -8.69,31.69l-46.32,114.54zm42.47,-279.91c12.54,0 23.11,4.4 31.8,13.09c8.69,8.69 13.09,19.26 13.09,31.8c0,12.43 -4.4,23.11 -13.09,31.8c-8.69,8.69 -19.26,13.09 -31.8,13.09c-12.43,0 -23.11,-4.4 -31.8,-13.09c-8.69,-8.69 -13.09,-19.37 -13.09,-31.8c0,-12.54 4.4,-23.11 13.09,-31.8c8.69,-8.69 19.37,-13.09 31.8,-13.09zm154.15,191.23l-6.16,14.96c-9.46,21.46 -23,32.13 -40.38,32.13c-8.91,0 -16.84,-3.08 -23.77,-9.24c-7.04,-6.06 -10.56,-13.1 -10.56,-21.13c0,-7.48 3.08,-17.49 9.35,-30.04l42.8,-87.14c10.57,-20.9 23.66,-31.35 39.39,-31.35c8.37,0 15.52,2.74 21.57,8.25c6.05,5.5 9.02,11.99 9.02,19.47c0,1.98 -0.66,6.16 -1.98,12.54c-0.88,4.74 -1.32,8.91 -1.32,12.66c0,13.53 5.06,27.39 15.3,41.48l18.48,25.52c18.81,25.97 28.28,51.17 28.28,75.48c0,27.07 -10.13,49.63 -30.37,67.78c-20.14,18.16 -45.33,27.29 -75.48,27.29l-67.34,0c-27.18,0 -40.71,-9.46 -40.71,-28.28c0,-12.98 4.84,-23.22 14.41,-30.59c9.69,-7.37 22.89,-11.11 39.84,-11.11l37.4,0c30.04,0 45.01,-10.89 45.01,-32.68c0,-7.92 -2.86,-17.38 -8.48,-28.17l-14.3,-27.83zm343.29,88.68l35.54,0c27.17,0 40.82,9.46 40.82,28.28c0,12.98 -4.84,23.21 -14.52,30.58c-9.8,7.37 -23.11,11.12 -40.17,11.12l-41.26,0c-18.48,0 -31.13,-7.15 -37.74,-21.57c-16.17,14.42 -31.69,21.57 -46.76,21.57l-36.75,0c-23.65,0 -42.8,-8.47 -57.43,-25.31c-14.53,-16.83 -21.79,-38.84 -21.79,-66.13c0,-41.25 14.3,-78.12 42.8,-110.68c28.5,-32.46 60.74,-48.75 96.61,-48.75c27.62,0 47.64,9.35 60.4,28.17c10.79,-16.17 24.87,-24.2 42.25,-24.2c9.46,0 17.39,2.97 23.77,9.02c6.27,6.05 9.46,13.53 9.46,22.33c0,6.05 -1.76,13.32 -5.17,21.68l-3.52,8.69l-46.54,115.2zm-116.96,1.32l8.03,0c17.71,0 29.49,-7.26 35.32,-21.68l22.67,-55.78c2.96,-7.37 4.5,-13.42 4.5,-18.37c0,-5.84 -2.85,-10.9 -8.58,-15.19c-5.72,-4.29 -12.65,-6.49 -20.57,-6.49c-15.85,0 -31.25,9.13 -46.1,27.4c-14.97,18.37 -22.45,37.3 -22.45,56.88c0,22.12 9.02,33.23 27.18,33.23zm312.7,-90l-6.16,14.96c-9.47,21.46 -23,32.13 -40.38,32.13c-8.92,0 -16.84,-3.08 -23.77,-9.24c-7.04,-6.06 -10.56,-13.1 -10.56,-21.13c0,-7.48 3.08,-17.49 9.35,-30.04l42.8,-87.14c10.56,-20.9 23.65,-31.35 39.39,-31.35c8.36,0 15.51,2.74 21.57,8.25c6.05,5.5 9.02,11.99 9.02,19.47c0,1.98 -0.66,6.16 -1.98,12.54c-0.88,4.74 -1.32,8.91 -1.32,12.66c0,13.53 5.06,27.39 15.29,41.48l18.49,25.52c18.81,25.97 28.27,51.17 28.27,75.48c0,27.07 -10.12,49.63 -30.36,67.78c-20.14,18.16 -45.33,27.29 -75.49,27.29l-67.33,0c-27.18,0 -40.71,-9.46 -40.71,-28.28c0,-12.98 4.84,-23.22 14.41,-30.59c9.69,-7.37 22.89,-11.11 39.83,-11.11l37.41,0c30.04,0 45,-10.89 45,-32.68c0,-7.92 -2.86,-17.38 -8.47,-28.17l-14.3,-27.83zm186.16,77.46c12.22,0 22.67,4.4 31.47,13.2c8.81,8.8 13.21,19.25 13.21,31.47c0,12.54 -4.4,23.1 -13.21,31.91c-8.8,8.8 -19.25,13.2 -31.47,13.2c-12.54,0 -23.1,-4.4 -31.9,-13.2c-8.81,-8.81 -13.21,-19.37 -13.21,-31.91c0,-12.22 4.4,-22.67 13.21,-31.47c8.8,-8.8 19.36,-13.2 31.9,-13.2zm164.72,0c12.21,0 22.66,4.4 31.46,13.2c8.81,8.8 13.21,19.25 13.21,31.47c0,12.54 -4.4,23.1 -13.21,31.91c-8.8,8.8 -19.25,13.2 -31.46,13.2c-12.55,0 -23.11,-4.4 -31.91,-13.2c-8.8,-8.81 -13.2,-19.37 -13.2,-31.91c0,-12.22 4.4,-22.67 13.2,-31.47c8.8,-8.8 19.36,-13.2 31.91,-13.2zm164.71,0c12.21,0 22.66,4.4 31.47,13.2c8.8,8.8 13.2,19.25 13.2,31.47c0,12.54 -4.4,23.1 -13.2,31.91c-8.81,8.8 -19.26,13.2 -31.47,13.2c-12.55,0 -23.11,-4.4 -31.91,-13.2c-8.8,-8.81 -13.2,-19.37 -13.2,-31.91c0,-12.22 4.4,-22.67 13.2,-31.47c8.8,-8.8 19.36,-13.2 31.91,-13.2z" class="fil1"/>
     <path stroke="null" stroke-width="0" id="svg_28" d="m7727972.19491,7741296.561121l-2.47,1475.31c36.89,799.99 605.19,1391.65 1353.99,1397.76c727.46,5.93 1329.81,-602.53 1360.74,-1372.93c0.72,-285.39 -322.87,-284.51 -324.28,-3.66c-36.25,579.02 -486.64,1033.88 -1035.58,1029.4c-548.94,-4.47 -997.04,-466.65 -1030.4,-1046.24l3.71,-1476.99c0.73,-293.11 -325.19,-295.59 -325.71,-2.65zm1360.31,-13.94l-1.68,686.23c-0.74,292.77 323.56,295.75 324.29,2.64l2.39,-684.18c-2.96,-205.59 159.04,-373.95 348.89,-372.4c188.34,1.53 346.85,168.63 346.34,371.31c-0.73,292.85 330.2,295.75 325.7,2.65c-6.03,-394.69 -298.89,-719.4 -671.14,-722.44c-371.67,-3.02 -673.79,317.63 -674.79,716.19zm-482.38,-1023.69l-4.26,1698.48c-0.73,293 369.91,296.14 370.64,3.02l4.26,-1698.48c0.74,-293.13 -369.9,-296.03 -370.64,-3.02zm-442.37,480.17l-4.26,1698.5c-0.74,293 362.96,296.08 363.69,2.96l4.26,-1698.49c0.74,-293.12 -362.96,-295.97 -363.69,-2.97z" class="fil0"/>
     <path stroke="null" stroke-width="0" id="svg_29" d="m7730384.31491,7742480.171121c-23.1,-27.28 -40.82,-62.73 -53.9,-97.26c-13.08,-34.53 -21.52,-68.16 -26.34,-117.31c-4.84,-49.16 -6.06,-113.85 -16.98,-170.21c-10.92,-56.37 -31.53,-104.4 -59.2,-164.98c-27.67,-60.59 -62.39,-133.73 -61.88,-190.38c0.52,-56.64 36.27,-96.8 68.37,-115.31c32.1,-18.52 60.54,-15.41 89.25,-11.23c28.71,4.17 57.7,9.41 100.57,-2.67c42.87,-12.08 99.63,-41.46 142.26,-48.3c42.62,-6.83 71.1,8.89 89.33,19.41c18.23,10.52 26.2,15.84 12.01,22.82c-14.19,6.98 -50.55,15.64 -42.66,12.26c7.89,-3.38 60.02,-18.77 100.38,-21.49c40.36,-2.72 68.94,7.25 93.62,36.38c24.68,29.14 45.45,77.45 42.01,127.16c-3.45,49.72 -31.11,100.85 -49.51,141.29c-18.39,40.45 -27.53,70.21 -36.56,113.79c-9.03,43.58 -17.97,100.97 -25.76,152.71c-7.8,51.74 -14.44,97.84 -22.48,135.21c-8.05,37.36 -17.5,66.01 -30.97,93.83c-13.47,27.82 -30.95,54.82 -47.36,69.88c-16.41,15.07 -31.74,18.2 -46.66,14.53c-14.91,-3.66 -29.41,-14.13 -35.92,-35.19c-6.5,-21.06 -5.04,-52.72 -3.86,-89.82c1.18,-37.09 2.07,-79.63 3.39,-108.43c1.33,-28.8 3.11,-43.86 0.89,-58.04c-2.21,-14.18 -8.42,-27.47 -11.5,-34.43c-3.09,-6.96 -3.07,-7.58 4.91,-10.68c7.97,-3.1 23.9,-8.68 39.39,-7.04c15.5,1.64 30.56,10.5 31,10.5c0.45,0 -13.73,-8.86 -30.57,-10.19c-16.84,-1.33 -36.33,4.87 -50.73,14.47c-14.4,9.61 -23.71,22.6 -31.35,39.49c-7.64,16.89 -13.62,37.66 -17.47,62.21c-3.85,24.54 -5.57,52.86 -3.25,85.6c2.33,32.74 8.7,69.9 12.83,99.08c4.13,29.19 6.01,50.4 -1.91,67.05c-7.92,16.65 -25.63,28.72 -48.72,25.2c-23.1,-3.51 -51.57,-22.63 -74.67,-49.91z" class="fil2 str0"/>
     <path stroke="null" stroke-width="0" id="svg_30" d="m7732445.32491,7740686.871121l-248.37,0l0,325.2l248.37,0l0,-110.59l67.12,16.61l0,54.38c0,42.52 -6.01,71.35 -18.18,86.68c-12.16,15.33 -35.24,22.99 -69.08,22.99l-208.93,0c-33.84,0 -56.78,-7.48 -68.66,-22.26c-11.89,-14.78 -17.76,-43.8 -17.76,-87.41l0,-244.36c0,-43.06 6.01,-72.26 18.03,-87.41c12.03,-15.14 34.83,-22.81 68.39,-22.81l208.93,0c33.84,0 56.92,7.85 69.08,23.36c12.17,15.51 18.18,44.35 18.18,86.86l0,43.98l-67.12,14.42l0,-99.64zm141.66,395.27l0,-464.25l67.13,0l0,394.18l276.89,0l0,70.07l-344.02,0zm446.25,0l-67.13,0l0,-463.15l67.13,0l0,463.15zm-89.79,-523.37l85.59,-186.14l73,0l-115.09,186.14l-43.5,0zm241.52,152.19c1.67,13.5 2.79,27.19 3.63,41.24c0.84,13.87 1.26,27.74 1.26,41.61l0,288.33l-62.09,0l0,-464.25l51.18,0l261.09,303.3c7.56,8.57 14.83,17.88 21.82,28.28c6.99,10.41 13.85,22.08 20.7,35.41c-1.96,-14.06 -3.36,-28.11 -4.34,-42.34c-0.98,-14.24 -1.4,-29.02 -1.4,-44.35l0,-280.3l62.1,0l0,464.25l-45.87,0l-266.41,-307.49c-9.23,-11.5 -17.2,-22.26 -23.91,-32.48c-6.72,-10.04 -12.59,-20.44 -17.76,-31.21zm515.61,371.18l-67.13,0l0,-463.15l67.13,0l0,463.15zm401.63,-395.27l-248.37,0l0,325.2l248.37,0l0,-110.59l67.13,16.61l0,54.38c0,42.52 -6.02,71.35 -18.18,86.68c-12.17,15.33 -35.24,22.99 -69.09,22.99l-208.93,0c-33.84,0 -56.77,-7.48 -68.66,-22.26c-11.89,-14.78 -17.76,-43.8 -17.76,-87.41l0,-244.36c0,-43.06 6.01,-72.26 18.04,-87.41c12.03,-15.14 34.82,-22.81 68.38,-22.81l208.93,0c33.85,0 56.92,7.85 69.09,23.36c12.16,15.51 18.18,44.35 18.18,86.86l0,43.98l-67.13,14.42l0,-99.64zm83.77,395.27l205.57,-464.25l61.39,0l210.47,464.25l-72.86,0l-46.29,-108.4l-245.71,0l-45.45,108.4l-67.12,0zm140.82,-175.19l188.79,0l-94.53,-220.99l-94.26,220.99zm815.72,105.12l297.04,0l0,-325.2l-297.04,0l0,325.2zm-67.12,-283.96c0,-42.51 6.15,-71.53 18.46,-87.04c12.3,-15.51 35.1,-23.18 68.8,-23.18l256.76,0c33.7,0 56.5,7.67 68.8,23.18c12.31,15.51 18.46,44.53 18.46,87.04l0,244.36c0,42.52 -6.01,71.35 -18.18,86.68c-12.17,15.33 -35.24,22.99 -69.08,22.99l-256.76,0c-34.12,0 -57.2,-7.66 -69.22,-22.81c-12.03,-15.14 -18.04,-43.98 -18.04,-86.86l0,-244.36zm744.11,-41.24l-130.19,0l0,325.2l130.19,0c57.9,0 99.02,-12.78 123.49,-38.33c24.47,-25.36 36.64,-67.33 36.64,-125.91c0,-56.94 -12.31,-98.18 -37.06,-123.18c-24.75,-25.19 -65.73,-37.78 -123.07,-37.78zm7.42,-68.98c33.84,0 62.23,2.92 85.3,8.76c23.08,6.02 42.1,14.97 57.2,27.01c24.19,20.07 43.21,47.26 56.92,81.57c13.56,34.49 20.41,72.27 20.41,113.69c0,78.11 -18.18,136.5 -54.4,175.19c-36.36,38.69 -91.46,58.03 -165.43,58.03l-204.74,0l0,-464.25l204.74,0zm369.75,394.18l297.03,0l0,-325.2l-297.03,0l0,325.2zm-67.13,-283.96c0,-42.51 6.15,-71.53 18.46,-87.04c12.31,-15.51 35.1,-23.18 68.8,-23.18l256.76,0c33.7,0 56.5,7.67 68.81,23.18c12.3,15.51 18.46,44.53 18.46,87.04l0,244.36c0,42.52 -6.02,71.35 -18.18,86.68c-12.17,15.33 -35.25,22.99 -69.09,22.99l-256.76,0c-34.12,0 -57.19,-7.66 -69.22,-22.81c-12.03,-15.14 -18.04,-43.98 -18.04,-86.86l0,-244.36zm576.3,-17.15c1.68,13.5 2.8,27.19 3.64,41.24c0.84,13.87 1.26,27.74 1.26,41.61l0,288.33l-62.09,0l0,-464.25l51.18,0l261.09,303.3c7.55,8.57 14.83,17.88 21.82,28.28c6.99,10.41 13.84,22.08 20.7,35.41c-1.96,-14.06 -3.36,-28.11 -4.34,-42.34c-0.98,-14.24 -1.4,-29.02 -1.4,-44.35l0,-280.3l62.09,0l0,464.25l-45.87,0l-266.4,-307.49c-9.23,-11.5 -17.2,-22.26 -23.92,-32.48c-6.71,-10.04 -12.58,-20.44 -17.76,-31.21zm621.34,-24.09l0,395.27l-67.13,0l0,-395.27l-167.81,0l0,-68.98l403.59,0l0,68.98l-168.65,0zm259.69,325.2l297.03,0l0,-325.2l-297.03,0l0,325.2zm-67.13,-283.96c0,-42.51 6.16,-71.53 18.46,-87.04c12.31,-15.51 35.1,-23.18 68.81,-23.18l256.75,0c33.71,0 56.5,7.67 68.81,23.18c12.3,15.51 18.46,44.53 18.46,87.04l0,244.36c0,42.52 -6.02,71.35 -18.18,86.68c-12.17,15.33 -35.24,22.99 -69.09,22.99l-256.75,0c-34.13,0 -57.2,-7.66 -69.23,-22.81c-12.02,-15.14 -18.04,-43.98 -18.04,-86.86l0,-244.36zm519.11,354.03l0,-464.25l67.12,0l0,394.18l276.9,0l0,70.07l-344.02,0zm439.53,-70.07l297.03,0l0,-325.2l-297.03,0l0,325.2zm-67.12,-283.96c0,-42.51 6.15,-71.53 18.46,-87.04c12.3,-15.51 35.1,-23.18 68.8,-23.18l256.76,0c33.7,0 56.49,7.67 68.8,23.18c12.31,15.51 18.46,44.53 18.46,87.04l0,244.36c0,42.52 -6.01,71.35 -18.18,86.68c-12.17,15.33 -35.24,22.99 -69.08,22.99l-256.76,0c-34.12,0 -57.2,-7.66 -69.22,-22.81c-12.03,-15.14 -18.04,-43.98 -18.04,-86.86l0,-244.36zm159.42,-169.34l85.59,-186.14l73,0l-115.1,186.14l-43.49,0zm699.51,128.1l-281.09,0l0,325.2l281.09,0l0,-125.92l-145.16,0l0,-63.51l212.28,0l0,150.01c0,42.34 -6.01,71.17 -18.18,86.5c-12.16,15.33 -35.24,22.99 -69.08,22.99l-240.95,0c-33.71,0 -56.78,-7.48 -68.95,-22.63c-12.17,-15.14 -18.18,-44.16 -18.18,-86.86l0,-244.35c0,-42.52 6.15,-71.54 18.46,-87.05c12.31,-15.51 35.1,-23.36 68.67,-23.36l240.95,0c33,0 55.8,7.67 68.38,23c12.59,15.32 18.88,42.33 18.88,81.02l0,13.32l-67.12,15.15l0,-63.51zm212.98,395.27l-67.13,0l0,-463.15l67.13,0l0,463.15zm401.64,-395.27l-248.37,0l0,325.2l248.37,0l0,-110.59l67.12,16.61l0,54.38c0,42.52 -6.01,71.35 -18.18,86.68c-12.16,15.33 -35.24,22.99 -69.08,22.99l-208.93,0c-33.85,0 -56.78,-7.48 -68.67,-22.26c-11.88,-14.78 -17.76,-43.8 -17.76,-87.41l0,-244.36c0,-43.06 6.02,-72.26 18.04,-87.41c12.03,-15.14 34.83,-22.81 68.39,-22.81l208.93,0c33.84,0 56.92,7.85 69.08,23.36c12.17,15.51 18.18,44.35 18.18,86.86l0,43.98l-67.12,14.42l0,-99.64zm83.76,395.27l205.57,-464.25l61.4,0l210.47,464.25l-72.86,0l-46.29,-108.4l-245.71,0l-45.45,108.4l-67.13,0zm140.83,-175.19l188.79,0l-94.54,-220.99l-94.25,220.99z" class="fil1"/>
     <path stroke="null" stroke-width="0" id="svg_31" d="m7736238.74491,7741330.001121c1.7,-13.63 7.24,-23.43 16.61,-29.4c9.37,-5.96 18.32,-8.94 26.83,-8.94c115.86,0 224.47,-3.84 325.84,-11.5c101.38,-7.67 181.03,-11.5 238.95,-11.5c144.82,0 266.22,14.48 364.18,43.44c97.96,28.97 177.19,74.12 237.67,135.45c60.48,61.34 103.5,140.56 129.06,237.67c25.56,97.12 38.34,213.83 38.34,350.12c0,138.01 -14.06,273.03 -42.17,405.07c-28.12,132.04 -77.1,249.17 -146.95,351.4c-69.86,102.22 -163.99,184.42 -282.4,246.61c-118.41,62.19 -267.91,93.28 -448.51,93.28c-83.48,0 -159.73,-1.7 -228.73,-5.11c-68.99,-3.4 -128.2,-13.63 -177.61,-30.67c-49.41,-17.03 -87.74,-42.59 -115,-76.66c-27.26,-34.08 -40.89,-80.93 -40.89,-140.56c0,-22.15 1.28,-55.38 3.83,-99.67c2.56,-44.3 5.96,-97.12 10.22,-158.45c4.26,-61.34 9.37,-129.06 15.34,-203.17c5.96,-74.11 12.35,-152.06 19.16,-233.84c13.63,-168.67 24.28,-303.27 31.95,-403.79c7.67,-100.52 12.78,-179.31 15.33,-236.39c2.56,-57.08 4.26,-100.1 5.11,-129.06c0.86,-28.97 2.13,-57.08 3.84,-84.33zm475.34,1397.92c95.41,0 171.65,-20.45 228.73,-61.34c57.07,-40.89 100.95,-92.85 131.62,-155.89c30.66,-63.04 51.1,-132.04 61.33,-207.01c10.22,-74.96 15.33,-145.67 15.33,-212.11c0,-71.56 -4.68,-134.18 -14.06,-187.84c-9.36,-53.67 -25.55,-98.39 -48.55,-134.17c-23,-35.78 -54.94,-62.61 -95.84,-80.5c-40.89,-17.89 -92,-26.84 -153.33,-26.84c-18.75,0 -42.6,0.86 -71.56,2.56c-28.96,1.71 -63.89,4.26 -104.78,7.66c-3.41,63.04 -7.67,137.58 -12.78,223.62c-5.11,86.04 -10.65,176.34 -16.61,270.9c-5.96,94.55 -12.35,189.97 -19.17,286.22c-6.81,96.27 -13.63,185.29 -20.44,267.07c25.55,3.4 48.56,5.54 69,6.39c20.45,0.85 37.48,1.28 51.11,1.28zm1387.7,378.23c-95.41,0 -163.56,-18.75 -204.45,-56.22c-40.89,-37.49 -61.33,-91.16 -61.33,-161.01c0,-34.08 2.55,-92.43 7.66,-175.06c5.12,-82.63 11.93,-176.76 20.45,-282.4c8.52,-105.63 17.04,-217.23 25.56,-334.78c8.51,-117.56 17.03,-228.3 25.55,-332.23c8.52,-103.93 15.33,-195.08 20.45,-273.45c5.11,-78.38 7.66,-132.04 7.66,-161c0,-25.56 13.63,-38.34 40.89,-38.34l899.58,0c10.22,0 19.59,2.55 28.11,7.67c8.52,5.11 12.78,14.48 12.78,28.11l-10.22,150.78c-3.41,51.11 -17.47,92.43 -42.17,123.95c-24.71,31.52 -75.39,47.28 -152.06,47.28l-352.68,0l-25.55,360.33l362.9,0c10.22,0 19.59,2.56 28.11,7.68c8.51,5.1 12.78,14.48 12.78,28.11l-10.22,150.78c-3.41,51.11 -17.47,92.43 -42.18,123.94c-24.7,31.52 -75.38,47.28 -152.05,47.28l-222.34,0l-28.12,380.79l562.24,0c10.23,0 19.59,2.98 28.12,8.94c8.51,5.97 12.77,14.92 12.77,26.84l-10.22,150.78c-3.41,51.11 -17.47,92.43 -42.17,123.95c-24.7,31.52 -75.39,47.28 -152.06,47.28l-587.79,0zm2159.5,0c-69.86,0 -121.83,-10.23 -155.9,-30.67c-34.07,-20.45 -58.78,-46 -74.11,-76.67c-88.6,-182.3 -171.65,-356.93 -249.18,-523.9c-77.51,-166.97 -156.31,-335.64 -236.39,-506.01c1.71,184 4.26,367.16 7.67,549.45c3.4,182.31 6.81,365.46 10.22,549.46c0,25.56 -13.63,38.34 -40.89,38.34l-140.56,0c-97.11,0 -165.69,-19.17 -205.72,-57.51c-40.04,-38.33 -60.06,-94.98 -60.06,-169.94c0,-20.45 1.28,-54.95 3.83,-103.51c2.56,-48.55 6.39,-106.05 11.5,-172.5c5.11,-66.45 10.65,-139.28 16.62,-218.5c5.95,-79.23 12.34,-159.73 19.16,-241.51c10.22,-129.48 18.74,-236.82 25.55,-322.01c6.82,-85.19 12.36,-157.17 16.62,-215.95c4.25,-58.78 7.24,-109.04 8.94,-150.78c1.7,-41.74 3.41,-83.06 5.11,-123.94c0,-25.56 13.63,-38.34 40.89,-38.34l204.45,0c56.22,0 102.23,6.39 138.01,19.17c35.77,12.78 65.17,30.24 88.16,52.39c23.01,22.14 41.32,47.28 54.95,75.39c13.63,28.11 26.41,57.5 38.33,88.16c40.89,105.64 77.1,196.79 108.62,273.46c31.52,76.66 59.21,143.96 83.06,201.89c23.85,57.93 44.72,108.19 62.61,150.78c17.89,42.59 34.5,81.78 49.83,117.56c15.33,35.78 30.67,70.28 46,103.5c15.34,33.22 31.52,69.43 48.56,108.62c0,-100.52 -0.43,-204.03 -1.28,-310.51c-0.85,-106.48 -1.7,-210.41 -2.55,-311.79c-0.85,-101.37 -1.7,-198.91 -2.56,-292.61c-0.85,-93.71 -1.28,-178.04 -1.28,-253.01c0,-15.33 14.48,-23 43.45,-23l140.56,0c56.22,0 100.94,5.54 134.17,16.61c33.22,11.07 59.2,27.26 77.94,48.56c18.75,21.29 31.1,47.28 37.06,77.95c5.97,30.66 8.95,65.58 8.95,104.77c0,42.6 -2.56,107.77 -7.67,195.51c-5.11,87.74 -11.08,186.13 -17.89,295.17c-6.82,109.04 -14.48,221.91 -23,338.62c-8.52,116.71 -16.61,224.47 -24.28,323.28c-7.67,98.82 -14.48,182.73 -20.44,251.73c-5.97,69.01 -9.8,109.47 -11.51,121.4c0,13.63 -4.68,23.85 -14.05,30.66c-9.37,6.82 -20.02,10.23 -31.95,10.23l-209.55,0zm1441.37,-1456.7l-97.12,1418.36c-1.7,25.56 -11.08,38.34 -28.11,38.34l-140.56,0c-95.41,0 -163.56,-18.75 -204.45,-56.22c-40.89,-37.49 -61.34,-91.16 -61.34,-161.01c0,-25.56 1.29,-63.89 3.84,-115c2.55,-51.12 6.39,-111.17 11.5,-180.17c5.11,-69.01 10.65,-143.97 16.61,-224.9c5.96,-80.93 12.35,-162.71 19.17,-245.34c6.81,-82.63 13.2,-164.83 19.16,-246.62c5.97,-81.77 11.51,-157.59 16.62,-227.44l-408.9,0c-18.74,0 -28.11,-11.93 -28.11,-35.78l7.67,-143.12c1.7,-22.14 5.53,-43.87 11.49,-65.17c5.96,-21.29 15.76,-40.46 29.39,-57.5c13.63,-17.03 31.1,-30.66 52.39,-40.89c21.3,-10.22 47.28,-15.33 77.95,-15.33l1142.36,0c10.22,0 19.59,2.55 28.11,7.67c8.52,5.11 12.78,14.48 12.78,28.11l-10.22,150.78c-3.41,51.11 -17.47,92.43 -42.17,123.95c-24.7,31.52 -75.39,47.28 -152.06,47.28l-276,0z" class="fil3"/>
    </g>
   </g>
  </g>
 </g>
</svg>